<?xml version="1.0" encoding="UTF-8" standalone="no"?>
<!-- Created with Inkscape (http://www.inkscape.org/) -->

<svg
   xmlns:dc="http://purl.org/dc/elements/1.1/"
   xmlns:cc="http://creativecommons.org/ns#"
   xmlns:rdf="http://www.w3.org/1999/02/22-rdf-syntax-ns#"
   xmlns:svg="http://www.w3.org/2000/svg"
   xmlns="http://www.w3.org/2000/svg"
   xmlns:sodipodi="http://sodipodi.sourceforge.net/DTD/sodipodi-0.dtd"
   xmlns:inkscape="http://www.inkscape.org/namespaces/inkscape"
   version="1.1"
   width="560.36761"
   height="63.923603"
   id="svg2"
   inkscape:version="0.91 r13725"
   sodipodi:docname="Bracket.svg">
  <sodipodi:namedview
     pagecolor="#ffffff"
     bordercolor="#666666"
     borderopacity="1"
     objecttolerance="10"
     gridtolerance="10"
     guidetolerance="10"
     inkscape:pageopacity="0"
     inkscape:pageshadow="2"
     inkscape:window-width="1205"
     inkscape:window-height="697"
     id="namedview15"
     showgrid="false"
     inkscape:zoom="0.6480668"
     inkscape:cx="125.89089"
     inkscape:cy="95.15908"
     inkscape:window-x="67"
     inkscape:window-y="675"
     inkscape:window-maximized="1"
     inkscape:current-layer="svg2"
     fit-margin-top="0"
     fit-margin-left="0"
     fit-margin-right="0"
     fit-margin-bottom="0" />
  <metadata
     id="metadata23">
    <rdf:RDF>
      <cc:Work
         rdf:about="">
        <dc:format>image/svg+xml</dc:format>
        <dc:type
           rdf:resource="http://purl.org/dc/dcmitype/StillImage" />
        <dc:title></dc:title>
      </cc:Work>
    </rdf:RDF>
  </metadata>
  <defs
     id="defs21" />
  <path
     inkscape:connector-curvature="0"
     d="m 557.36764,0 0,4.29117 c 0,10.0127 -1.43037,15.73423 -4.29117,18.59499 -4.29113,4.29114 -12.12501,5.72154 -16.41615,5.72154 l -186.44428,0 c -21.45576,0 -35.75963,2.86076 -44.34193,7.15193 -8.58233,4.29113 -14.30386,12.87347 -18.595,21.45577 -4.29116,-8.5823 -10.01269,-17.16464 -18.59503,-21.45577 -8.5823,-4.29117 -22.88613,-7.15193 -44.34193,-7.15193 l -202.96335,0 c -4.2911,0 -9.7965,-1.4304 -14.0876,-5.72154 C 4.4304,20.0254 3,14.30387 3,4.29117 L 3,0"
     id="llv-3"
     style="fill:none;stroke:#000000;stroke-width:6;stroke-miterlimit:4;stroke-dasharray:none;stroke-opacity:1"
     sodipodi:nodetypes="cssssscsssssc" />
</svg>
