<?xml version="1.0" encoding="UTF-8" standalone="no"?>
<!-- Created with Inkscape (http://www.inkscape.org/) -->

<svg
   xmlns:dc="http://purl.org/dc/elements/1.1/"
   xmlns:cc="http://creativecommons.org/ns#"
   xmlns:rdf="http://www.w3.org/1999/02/22-rdf-syntax-ns#"
   xmlns:svg="http://www.w3.org/2000/svg"
   xmlns="http://www.w3.org/2000/svg"
   xmlns:sodipodi="http://sodipodi.sourceforge.net/DTD/sodipodi-0.dtd"
   xmlns:inkscape="http://www.inkscape.org/namespaces/inkscape"
   version="1.1"
   width="63.923603"
   height="976.99133"
   id="svg2"
   inkscape:version="0.91 r13725"
   sodipodi:docname="Bracket.svg">
  <sodipodi:namedview
     pagecolor="#ffffff"
     bordercolor="#666666"
     borderopacity="1"
     objecttolerance="10"
     gridtolerance="10"
     guidetolerance="10"
     inkscape:pageopacity="0"
     inkscape:pageshadow="2"
     inkscape:window-width="1205"
     inkscape:window-height="697"
     id="namedview15"
     showgrid="false"
     inkscape:zoom="0.45825243"
     inkscape:cx="-149.98197"
     inkscape:cy="613.41859"
     inkscape:window-x="67"
     inkscape:window-y="675"
     inkscape:window-maximized="1"
     inkscape:current-layer="svg2"
     fit-margin-top="0"
     fit-margin-left="0"
     fit-margin-right="0"
     fit-margin-bottom="0" />
  <metadata
     id="metadata23">
    <rdf:RDF>
      <cc:Work
         rdf:about="">
        <dc:format>image/svg+xml</dc:format>
        <dc:type
           rdf:resource="http://purl.org/dc/dcmitype/StillImage" />
        <dc:title></dc:title>
      </cc:Work>
    </rdf:RDF>
  </metadata>
  <defs
     id="defs21" />
  <path
     inkscape:connector-curvature="0"
     d="m 0,3 4.29117,0 c 10.0127,0 15.73423,1.43037 18.59499,4.29117 4.29114,4.29113 5.72154,12.12501 5.72154,16.41615 l 0,774.34664 c 0,21.45576 2.86076,35.75963 7.15193,44.34193 4.29113,8.58233 12.87347,14.30386 21.45577,18.595 -8.5823,4.29116 -17.16464,10.01269 -21.45577,18.59503 -4.29117,8.5823 -7.15193,22.88613 -7.15193,44.34193 l 0,31.68471 c 0,4.2911 -1.4304,9.7965 -5.72154,14.0876 -2.86076,2.8608 -8.58229,4.2912 -18.59499,4.2912 l -4.29117,0"
     id="llv-3"
     style="fill:none;stroke:#000000;stroke-width:6;stroke-miterlimit:4;stroke-dasharray:none;stroke-opacity:1"
     sodipodi:nodetypes="cssssscsssssc" />
</svg>
