<?xml version="1.0" encoding="UTF-8" standalone="no"?>
<!-- Created with Inkscape (http://www.inkscape.org/) -->

<svg
   xmlns:ns0="http://www.iki.fi/pav/software/textext/"
   xmlns:dc="http://purl.org/dc/elements/1.1/"
   xmlns:cc="http://creativecommons.org/ns#"
   xmlns:rdf="http://www.w3.org/1999/02/22-rdf-syntax-ns#"
   xmlns:svg="http://www.w3.org/2000/svg"
   xmlns="http://www.w3.org/2000/svg"
   xmlns:sodipodi="http://sodipodi.sourceforge.net/DTD/sodipodi-0.dtd"
   xmlns:inkscape="http://www.inkscape.org/namespaces/inkscape"
   width="79.472786mm"
   height="94.208107mm"
   viewBox="0 0 281.59648 333.80824"
   id="svg2"
   version="1.1"
   inkscape:version="0.91 r13725"
   sodipodi:docname="CVRP1.svg">
  <sodipodi:namedview
     id="base"
     pagecolor="#ffffff"
     bordercolor="#666666"
     borderopacity="1.0"
     inkscape:pageopacity="0.0"
     inkscape:pageshadow="2"
     inkscape:zoom="1.979899"
     inkscape:cx="167.016"
     inkscape:cy="108.28295"
     inkscape:document-units="px"
     inkscape:current-layer="layer1"
     showgrid="false"
     inkscape:snap-object-midpoints="true"
     inkscape:snap-center="true"
     inkscape:snap-bbox="false"
     inkscape:snap-bbox-midpoints="true"
     inkscape:bbox-paths="true"
     inkscape:bbox-nodes="true"
     inkscape:snap-bbox-edge-midpoints="true"
     inkscape:object-paths="false"
     inkscape:snap-intersection-paths="false"
     inkscape:object-nodes="false"
     inkscape:snap-smooth-nodes="false"
     inkscape:snap-midpoints="false"
     fit-margin-top="0"
     fit-margin-left="0"
     fit-margin-right="0"
     fit-margin-bottom="0"
     inkscape:window-width="1205"
     inkscape:window-height="697"
     inkscape:window-x="67"
     inkscape:window-y="675"
     inkscape:window-maximized="1"
     inkscape:snap-nodes="true"
     inkscape:snap-others="true" />
  <defs
     id="defs4" />
  <metadata
     id="metadata7">
    <rdf:RDF>
      <cc:Work
         rdf:about="">
        <dc:format>image/svg+xml</dc:format>
        <dc:type
           rdf:resource="http://purl.org/dc/dcmitype/StillImage" />
        <dc:title></dc:title>
      </cc:Work>
    </rdf:RDF>
  </metadata>
  <g
     inkscape:label="Ebene 1"
     inkscape:groupmode="layer"
     id="layer1"
     transform="translate(35.734014,112.18521)">
    <g
       id="g5170"
       transform="matrix(2,0,0,-2,-185.6296,1575.8502)"
       xml:space="preserve"
       stroke-miterlimit="10.433"
       font-style="normal"
       font-variant="normal"
       font-weight="normal"
       font-stretch="normal"
       font-size-adjust="none"
       letter-spacing="normal"
       word-spacing="normal"
       ns0:text="$Q=7$\n\n"
       ns0:preamble="default_packages.tex"
       style="font-style:normal;font-variant:normal;font-weight:normal;font-stretch:normal;letter-spacing:normal;word-spacing:normal;text-anchor:start;fill:#000000;fill-opacity:1;fill-rule:evenodd;stroke:#000000;stroke-linecap:butt;stroke-linejoin:miter;stroke-miterlimit:10.43299961;stroke-dasharray:none;stroke-dashoffset:0;stroke-opacity:1"><path
         inkscape:connector-curvature="0"
         d="m 153.08,707.18 0.14,0.06 0.15,0.07 0.14,0.07 0.14,0.08 0.14,0.08 0.14,0.09 0.14,0.1 0.13,0.1 0.13,0.11 0.13,0.11 0.13,0.12 0.12,0.12 0.12,0.13 0.12,0.13 0.11,0.13 0.1,0.14 0.11,0.14 0.1,0.15 0.09,0.15 0.09,0.16 0.08,0.15 0.07,0.16 0.07,0.17 0.07,0.16 0.06,0.17 0.05,0.17 0.04,0.17 0.03,0.18 0.03,0.17 0.02,0.18 0.02,0.18 0,0.18 c 0,1.59 -1.06,2.67 -2.54,2.67 l -0.06,-0.25 c 1,0 1.72,-0.78 1.72,-2.11 0,-0.99 -0.5,-3.31 -2.18,-4.25 -0.05,0.35 -0.15,1.07 -0.88,1.07 l 0,-0.21 c 0.42,0 0.61,-0.24 0.61,-0.85 0,-0.15 -0.01,-0.16 -0.11,-0.2 -0.26,-0.11 -0.56,-0.17 -0.84,-0.17 l 0,0 c -0.14,0 -0.46,0 -0.46,0.42 0,0.4 0.38,0.8 0.8,0.8 l 0,0.21 c -0.53,0 -1.02,-0.49 -1.02,-1.01 0,-0.2 0.07,-0.31 0.07,-0.32 l 0,0 c -0.78,0.31 -1.12,1.09 -1.12,1.98 0,0.69 0.26,2.1 1.02,3.17 0.72,1.01 1.66,1.47 2.39,1.47 l 0.06,0.25 c -2.15,0 -4.35,-2.26 -4.35,-4.57 0,-1.65 1.12,-2.65 2.55,-2.65 0.25,0 0.59,0.04 0.98,0.14 -0.04,-0.61 -0.04,-0.63 -0.04,-0.76 0,-0.32 0,-1.09 0.83,-1.09 1.19,0 1.66,1.82 1.66,1.93 0,0.06 -0.07,0.09 -0.11,0.09 -0.08,0 -0.09,-0.05 -0.12,-0.11 -0.24,-0.7 -0.81,-0.95 -1.16,-0.95 -0.46,0 -0.61,0.27 -0.71,1.02 z"
         font-size-adjust="none"
         font-stretch="normal"
         font-style="normal"
         font-variant="normal"
         font-weight="normal"
         letter-spacing="normal"
         stroke-miterlimit="10.433"
         word-spacing="normal"
         style="font-style:normal;font-variant:normal;font-weight:normal;font-stretch:normal;letter-spacing:normal;word-spacing:normal;text-anchor:start;fill:#000000;fill-opacity:1;fill-rule:evenodd;stroke:#000000;stroke-width:0;stroke-linecap:butt;stroke-linejoin:miter;stroke-miterlimit:10.43299961;stroke-dasharray:none;stroke-dashoffset:0;stroke-opacity:1"
         id="path5172" /><path
         inkscape:connector-curvature="0"
         d="m 166.21,710.37 0.03,0 0.02,0 0.03,0 0.02,0.01 0.01,0 0.02,0 0.01,0 0.02,0 0.01,0 0.01,0.01 0.02,0 0.01,0 0.01,0.01 0.01,0 0.02,0.01 0.01,0 0.01,0.01 0.01,0.01 0.01,0.01 0.01,0.01 0,0.01 0.01,0 0,0.01 0,0 0.01,0.01 0,0.01 0,0 0.01,0.01 0,0.01 0,0 0,0.01 0,0.01 0,0.01 0,0.01 0.01,0 0,0.01 0,0.01 c 0,0.2 -0.19,0.2 -0.33,0.2 l -5.98,0 c -0.14,0 -0.33,0 -0.33,-0.2 0,-0.2 0.19,-0.2 0.34,-0.2 z"
         font-size-adjust="none"
         font-stretch="normal"
         font-style="normal"
         font-variant="normal"
         font-weight="normal"
         letter-spacing="normal"
         stroke-miterlimit="10.433"
         word-spacing="normal"
         style="font-style:normal;font-variant:normal;font-weight:normal;font-stretch:normal;letter-spacing:normal;word-spacing:normal;text-anchor:start;fill:#000000;fill-opacity:1;fill-rule:evenodd;stroke:#000000;stroke-width:0;stroke-linecap:butt;stroke-linejoin:miter;stroke-miterlimit:10.43299961;stroke-dasharray:none;stroke-dashoffset:0;stroke-opacity:1"
         id="path5174" /><path
         inkscape:connector-curvature="0"
         d="m 166.22,708.45 0.01,0 0.01,0 0.03,0 0.03,0 0.01,0 0.02,0 0.01,0 0.01,0 0.02,0 0.01,0.01 0.02,0 0.01,0 0.01,0.01 0.01,0 0.02,0.01 0.01,0 0.01,0.01 0.01,0 0.01,0.01 0.01,0.01 0.01,0.01 0,0 0,0.01 0.01,0.01 0,0 0,0.01 0.01,0 0,0.01 0,0.01 0.01,0 0,0.01 0,0.01 0,0 0,0.01 0,0.01 0,0.01 0.01,0.01 0,0.01 0,0.01 c 0,0.19 -0.19,0.19 -0.34,0.19 l -5.96,0 c -0.15,0 -0.34,0 -0.34,-0.19 0,-0.2 0.19,-0.2 0.33,-0.2 z"
         font-size-adjust="none"
         font-stretch="normal"
         font-style="normal"
         font-variant="normal"
         font-weight="normal"
         letter-spacing="normal"
         stroke-miterlimit="10.433"
         word-spacing="normal"
         style="font-style:normal;font-variant:normal;font-weight:normal;font-stretch:normal;letter-spacing:normal;word-spacing:normal;text-anchor:start;fill:#000000;fill-opacity:1;fill-rule:evenodd;stroke:#000000;stroke-width:0;stroke-linecap:butt;stroke-linejoin:miter;stroke-miterlimit:10.43299961;stroke-dasharray:none;stroke-dashoffset:0;stroke-opacity:1"
         id="path5176" /><path
         inkscape:connector-curvature="0"
         d="m 174.62,713.17 0.01,0.02 0.01,0.01 0,0.01 0.01,0.01 0.01,0 0,0.01 0.01,0.01 0,0.01 0.01,0.01 0,0.01 0.01,0 0,0.01 0,0.01 0,0.01 0.01,0.01 0,0.01 0,0 0,0.01 0,0.01 0.01,0.01 0,0.01 0,0.01 0,0.01 0,0.02 0,0.01 0,0.01 0,0.02 0,0.01 0,0.02 0,0.02 0,0.01 0,0.01 0,0.01 -2.42,0 c -1.22,0 -1.24,0.13 -1.28,0.32 l -0.25,0 -0.33,-2.05 0.25,0 c 0.03,0.16 0.12,0.79 0.25,0.91 0.07,0.06 0.85,0.06 0.98,0.06 l 2.06,0 c -0.11,-0.16 -0.89,-1.24 -1.11,-1.57 -0.9,-1.34 -1.23,-2.72 -1.23,-3.74 0,-0.1 0,-0.54 0.46,-0.54 0.46,0 0.46,0.44 0.46,0.54 l 0,0.51 c 0,0.55 0.03,1.09 0.11,1.63 0.04,0.23 0.18,1.08 0.61,1.7 z"
         font-size-adjust="none"
         font-stretch="normal"
         font-style="normal"
         font-variant="normal"
         font-weight="normal"
         letter-spacing="normal"
         stroke-miterlimit="10.433"
         word-spacing="normal"
         style="font-style:normal;font-variant:normal;font-weight:normal;font-stretch:normal;letter-spacing:normal;word-spacing:normal;text-anchor:start;fill:#000000;fill-opacity:1;fill-rule:evenodd;stroke:#000000;stroke-width:0;stroke-linecap:butt;stroke-linejoin:miter;stroke-miterlimit:10.43299961;stroke-dasharray:none;stroke-dashoffset:0;stroke-opacity:1"
         id="path5178" /></g>    <g
       id="g6103-1-4"
       transform="matrix(0.60659021,0,0,0.60659021,-8.0819563,-22.729488)"
       style="stroke:#000000">
      <path
         id="path6033-9-5"
         d="m 219.70898,247.01758 -2.52539,10.10156 0,6.56641 1.86914,0 a 6.0511365,6.0511365 0 0 1 5.67969,-3.98243 6.0511365,6.0511365 0 0 1 5.67969,3.98243 l 1.66992,0 0,-16.66797 -12.37305,0 z"
         style="fill:none;fill-rule:evenodd;stroke:#000000;stroke-width:2;stroke-linecap:round;stroke-linejoin:round;stroke-miterlimit:4;stroke-dasharray:none;stroke-opacity:1"
         inkscape:connector-curvature="0" />
      <circle
         r="3.125"
         cy="265.75507"
         cx="224.73215"
         id="path6037-3-4"
         style="opacity:1;fill:none;fill-opacity:1;stroke:#000000;stroke-width:2;stroke-linecap:round;stroke-linejoin:round;stroke-miterlimit:4;stroke-dasharray:none;stroke-dashoffset:0;stroke-opacity:1" />
      <circle
         r="3.125"
         cy="265.75507"
         cx="262.5"
         id="path6037-6-5-7"
         style="opacity:1;fill:none;fill-opacity:1;stroke:#000000;stroke-width:2;stroke-linecap:round;stroke-linejoin:round;stroke-miterlimit:4;stroke-dasharray:none;stroke-dashoffset:0;stroke-opacity:1" />
      <circle
         r="3.125"
         cy="265.75507"
         cx="242.14285"
         id="path6037-6-9-7-3"
         style="opacity:1;fill:none;fill-opacity:1;stroke:#000000;stroke-width:2;stroke-linecap:round;stroke-linejoin:round;stroke-miterlimit:4;stroke-dasharray:none;stroke-dashoffset:0;stroke-opacity:1" />
      <rect
         y="256.44681"
         x="236.017"
         height="7.1973367"
         width="31.819805"
         id="rect6035-4-3"
         style="opacity:1;fill:#ffffff;fill-opacity:1;stroke:#000000;stroke-width:2;stroke-linecap:round;stroke-linejoin:round;stroke-miterlimit:4;stroke-dasharray:none;stroke-dashoffset:0;stroke-opacity:1" />
      <path
         inkscape:connector-curvature="0"
         id="path6101-3-2"
         d="m 232.20881,262.0441 3.40927,0"
         style="fill:none;fill-rule:evenodd;stroke:#000000;stroke-width:2;stroke-linecap:butt;stroke-linejoin:miter;stroke-miterlimit:4;stroke-dasharray:none;stroke-opacity:1" />
    </g>
  </g>
</svg>
