<?xml version="1.0" encoding="UTF-8" standalone="no"?>
<!-- Created with Inkscape (http://www.inkscape.org/) -->

<svg
   xmlns:ns0="http://www.iki.fi/pav/software/textext/"
   xmlns:dc="http://purl.org/dc/elements/1.1/"
   xmlns:cc="http://creativecommons.org/ns#"
   xmlns:rdf="http://www.w3.org/1999/02/22-rdf-syntax-ns#"
   xmlns:svg="http://www.w3.org/2000/svg"
   xmlns="http://www.w3.org/2000/svg"
   xmlns:sodipodi="http://sodipodi.sourceforge.net/DTD/sodipodi-0.dtd"
   xmlns:inkscape="http://www.inkscape.org/namespaces/inkscape"
   width="102.37846mm"
   height="78.455513mm"
   viewBox="0 0 362.75834 277.99197"
   id="svg4361"
   version="1.1"
   inkscape:version="0.91 r13725"
   sodipodi:docname="Decomposition4.svg">
  <sodipodi:namedview
     id="base"
     pagecolor="#ffffff"
     bordercolor="#666666"
     borderopacity="1.0"
     inkscape:pageopacity="0.0"
     inkscape:pageshadow="2"
     inkscape:zoom="1.4"
     inkscape:cx="25.981219"
     inkscape:cy="158.6125"
     inkscape:document-units="px"
     inkscape:current-layer="layer1"
     showgrid="false"
     inkscape:snap-object-midpoints="false"
     fit-margin-top="0"
     fit-margin-left="0"
     fit-margin-right="0"
     fit-margin-bottom="0"
     inkscape:window-width="1205"
     inkscape:window-height="697"
     inkscape:window-x="67"
     inkscape:window-y="675"
     inkscape:window-maximized="1"
     inkscape:object-paths="true"
     inkscape:snap-intersection-paths="true"
     inkscape:object-nodes="true" />
  <defs
     id="defs4363" />
  <metadata
     id="metadata4366">
    <rdf:RDF>
      <cc:Work
         rdf:about="">
        <dc:format>image/svg+xml</dc:format>
        <dc:type
           rdf:resource="http://purl.org/dc/dcmitype/StillImage" />
        <dc:title></dc:title>
      </cc:Work>
    </rdf:RDF>
  </metadata>
  <g
     transform="translate(0.88056672,16.52965)"
     id="layer1"
     inkscape:groupmode="layer"
     inkscape:label="Ebene 1">
    <path
       style="opacity:1;fill:none;fill-opacity:0.48743723;stroke:#4d4d4d;stroke-width:2;stroke-linecap:butt;stroke-linejoin:miter;stroke-miterlimit:4;stroke-dasharray:2, 2;stroke-dashoffset:0;stroke-opacity:1"
       d="M 1.0097656,11.810547 C 52.268436,60.04121 119.66882,86.914297 189.70508,87.044922 252.09259,87.030367 312.65739,65.783013 361.63477,26.728516"
       transform="translate(-1.205064,-27.611906)"
       id="path4184"
       inkscape:connector-curvature="0"
       sodipodi:nodetypes="ccc" />
    <circle
       transform="scale(-1,-1)"
       r="4.6428571"
       cy="-199.07553"
       cx="-160.19458"
       id="path4144"
       style="opacity:1;fill:#646464;fill-opacity:1;stroke:#0000ff;stroke-width:0;stroke-linecap:butt;stroke-linejoin:round;stroke-miterlimit:4;stroke-dasharray:none;stroke-dashoffset:0;stroke-opacity:1" />
    <circle
       transform="scale(-1,-1)"
       r="4.6428571"
       cy="-136.57552"
       cx="-123.40889"
       id="path4144-3"
       style="opacity:1;fill:#646464;fill-opacity:1;stroke:#0000ff;stroke-width:0;stroke-linecap:butt;stroke-linejoin:round;stroke-miterlimit:4;stroke-dasharray:none;stroke-dashoffset:0;stroke-opacity:1" />
    <circle
       transform="scale(-1,-1)"
       r="4.6428571"
       cy="-136.57552"
       cx="-179.83745"
       id="path4144-5"
       style="opacity:1;fill:#646464;fill-opacity:1;stroke:#0000ff;stroke-width:0;stroke-linecap:butt;stroke-linejoin:round;stroke-miterlimit:4;stroke-dasharray:none;stroke-dashoffset:0;stroke-opacity:1" />
    <circle
       transform="scale(-1,-1)"
       r="4.6428571"
       cy="-108.71838"
       cx="-164.12317"
       id="path4144-0"
       style="opacity:1;fill:#646464;fill-opacity:1;stroke:#0000ff;stroke-width:0;stroke-linecap:butt;stroke-linejoin:round;stroke-miterlimit:4;stroke-dasharray:none;stroke-dashoffset:0;stroke-opacity:1" />
    <circle
       transform="scale(-1,-1)"
       r="4.6428571"
       cy="-185.86127"
       cx="-225.55174"
       id="path4144-39"
       style="opacity:1;fill:#646464;fill-opacity:1;stroke:#0000ff;stroke-width:0;stroke-linecap:butt;stroke-linejoin:round;stroke-miterlimit:4;stroke-dasharray:none;stroke-dashoffset:0;stroke-opacity:1" />
    <circle
       transform="scale(-1,-1)"
       r="4.6428571"
       cy="-155.86125"
       cx="-248.40889"
       id="path4144-56"
       style="opacity:1;fill:#646464;fill-opacity:1;stroke:#0000ff;stroke-width:0;stroke-linecap:butt;stroke-linejoin:round;stroke-miterlimit:4;stroke-dasharray:none;stroke-dashoffset:0;stroke-opacity:1" />
    <circle
       transform="scale(-1,-1)"
       r="4.6428571"
       cy="-188.0041"
       cx="-49.123169"
       id="path4144-7"
       style="opacity:1;fill:#646464;fill-opacity:1;stroke:#0000ff;stroke-width:0;stroke-linecap:butt;stroke-linejoin:round;stroke-miterlimit:4;stroke-dasharray:none;stroke-dashoffset:0;stroke-opacity:1" />
    <circle
       transform="scale(-1,-1)"
       r="4.6428571"
       cy="-121.57553"
       cx="-213.40887"
       id="path4144-07"
       style="opacity:1;fill:#646464;fill-opacity:1;stroke:#0000ff;stroke-width:0;stroke-linecap:butt;stroke-linejoin:round;stroke-miterlimit:4;stroke-dasharray:none;stroke-dashoffset:0;stroke-opacity:1" />
    <circle
       transform="scale(-1,-1)"
       r="4.6428571"
       cy="-86.575516"
       cx="-161.26601"
       id="path4144-1"
       style="opacity:1;fill:#646464;fill-opacity:1;stroke:#0000ff;stroke-width:0;stroke-linecap:butt;stroke-linejoin:round;stroke-miterlimit:4;stroke-dasharray:none;stroke-dashoffset:0;stroke-opacity:1" />
    <circle
       transform="scale(-1,-1)"
       r="4.6428571"
       cy="-173.0041"
       cx="-118.40889"
       id="path4144-38"
       style="opacity:1;fill:#646464;fill-opacity:1;stroke:#0000ff;stroke-width:0;stroke-linecap:butt;stroke-linejoin:round;stroke-miterlimit:4;stroke-dasharray:none;stroke-dashoffset:0;stroke-opacity:1" />
    <circle
       transform="scale(-1,-1)"
       r="4.6428571"
       cy="-120.14696"
       cx="-65.551758"
       id="path4144-2"
       style="opacity:1;fill:#646464;fill-opacity:1;stroke:#0000ff;stroke-width:0;stroke-linecap:butt;stroke-linejoin:round;stroke-miterlimit:4;stroke-dasharray:none;stroke-dashoffset:0;stroke-opacity:1" />
    <circle
       transform="scale(-1,-1)"
       r="4.6428571"
       cy="-38.004089"
       cx="-226.9803"
       id="path4144-24"
       style="opacity:1;fill:#646464;fill-opacity:1;stroke:#0000ff;stroke-width:0;stroke-linecap:butt;stroke-linejoin:round;stroke-miterlimit:4;stroke-dasharray:none;stroke-dashoffset:0;stroke-opacity:1" />
    <circle
       transform="scale(-1,-1)"
       r="4.6428571"
       cy="-34.432663"
       cx="-290.55173"
       id="path4144-4"
       style="opacity:1;fill:#646464;fill-opacity:1;stroke:#0000ff;stroke-width:0;stroke-linecap:butt;stroke-linejoin:round;stroke-miterlimit:4;stroke-dasharray:none;stroke-dashoffset:0;stroke-opacity:1" />
    <circle
       transform="scale(-1,-1)"
       r="4.6428571"
       cy="-235.86124"
       cx="-294.83746"
       id="path4144-6"
       style="opacity:1;fill:#646464;fill-opacity:1;stroke:#0000ff;stroke-width:0;stroke-linecap:butt;stroke-linejoin:round;stroke-miterlimit:4;stroke-dasharray:none;stroke-dashoffset:0;stroke-opacity:1" />
    <circle
       transform="scale(-1,-1)"
       r="4.6428571"
       cy="-181.57553"
       cx="-337.69458"
       id="path4144-9"
       style="opacity:1;fill:#646464;fill-opacity:1;stroke:#0000ff;stroke-width:0;stroke-linecap:butt;stroke-linejoin:round;stroke-miterlimit:4;stroke-dasharray:none;stroke-dashoffset:0;stroke-opacity:1" />
    <circle
       transform="scale(-1,-1)"
       r="4.6428571"
       cy="-191.57555"
       cx="-277.69461"
       id="path4144-64"
       style="opacity:1;fill:#646464;fill-opacity:1;stroke:#0000ff;stroke-width:0;stroke-linecap:butt;stroke-linejoin:round;stroke-miterlimit:4;stroke-dasharray:none;stroke-dashoffset:0;stroke-opacity:1" />
    <circle
       transform="scale(-1,-1)"
       r="4.6428571"
       cy="-234.43268"
       cx="-225.55173"
       id="path4144-13"
       style="opacity:1;fill:#646464;fill-opacity:1;stroke:#0000ff;stroke-width:0;stroke-linecap:butt;stroke-linejoin:round;stroke-miterlimit:4;stroke-dasharray:none;stroke-dashoffset:0;stroke-opacity:1" />
    <circle
       transform="scale(-1,-1)"
       r="4.6428571"
       cy="-240.86125"
       cx="-146.26602"
       id="path4144-46"
       style="opacity:1;fill:#646464;fill-opacity:1;stroke:#0000ff;stroke-width:0;stroke-linecap:butt;stroke-linejoin:round;stroke-miterlimit:4;stroke-dasharray:none;stroke-dashoffset:0;stroke-opacity:1" />
    <circle
       transform="scale(-1,-1)"
       r="4.6428571"
       cy="-101.57552"
       cx="-35.551697"
       id="path4144-06"
       style="opacity:1;fill:#646464;fill-opacity:1;stroke:#0000ff;stroke-width:0;stroke-linecap:butt;stroke-linejoin:round;stroke-miterlimit:4;stroke-dasharray:none;stroke-dashoffset:0;stroke-opacity:1" />
    <circle
       transform="scale(-1,-1)"
       r="4.6428571"
       cy="-68.718399"
       cx="-105.55173"
       id="path4144-11"
       style="opacity:1;fill:#646464;fill-opacity:1;stroke:#0000ff;stroke-width:0;stroke-linecap:butt;stroke-linejoin:round;stroke-miterlimit:4;stroke-dasharray:none;stroke-dashoffset:0;stroke-opacity:1" />
    <circle
       transform="scale(-1,-1)"
       r="4.6428571"
       cy="-80.146957"
       cx="-64.837402"
       id="path4144-398"
       style="opacity:1;fill:#646464;fill-opacity:1;stroke:#0000ff;stroke-width:0;stroke-linecap:butt;stroke-linejoin:round;stroke-miterlimit:4;stroke-dasharray:none;stroke-dashoffset:0;stroke-opacity:1" />
    <circle
       transform="scale(-1,-1)"
       r="4.6428571"
       cy="-150.14697"
       cx="-46.266022"
       id="path4144-25"
       style="opacity:1;fill:#646464;fill-opacity:1;stroke:#0000ff;stroke-width:0;stroke-linecap:butt;stroke-linejoin:round;stroke-miterlimit:4;stroke-dasharray:none;stroke-dashoffset:0;stroke-opacity:1" />
    <circle
       transform="scale(-1,-1)"
       r="4.6428571"
       cy="-155.86125"
       cx="-16.980286"
       id="path4144-35"
       style="opacity:1;fill:#646464;fill-opacity:1;stroke:#0000ff;stroke-width:0;stroke-linecap:butt;stroke-linejoin:round;stroke-miterlimit:4;stroke-dasharray:none;stroke-dashoffset:0;stroke-opacity:1" />
    <circle
       transform="scale(-1,-1)"
       r="4.6428571"
       cy="-35.146973"
       cx="-126.26601"
       id="path4144-95"
       style="opacity:1;fill:#646464;fill-opacity:1;stroke:#0000ff;stroke-width:0;stroke-linecap:butt;stroke-linejoin:round;stroke-miterlimit:4;stroke-dasharray:none;stroke-dashoffset:0;stroke-opacity:1" />
    <circle
       transform="scale(-1,-1)"
       r="4.6428571"
       cy="-228.0041"
       cx="-122.6946"
       id="path4144-91"
       style="opacity:1;fill:#646464;fill-opacity:1;stroke:#0000ff;stroke-width:0;stroke-linecap:butt;stroke-linejoin:round;stroke-miterlimit:4;stroke-dasharray:none;stroke-dashoffset:0;stroke-opacity:1" />
    <circle
       transform="scale(-1,-1)"
       r="4.6428571"
       cy="-101.13223"
       cx="-254.30849"
       id="path4144-07-2"
       style="opacity:1;fill:#646464;fill-opacity:1;stroke:#0000ff;stroke-width:0;stroke-linecap:butt;stroke-linejoin:round;stroke-miterlimit:4;stroke-dasharray:none;stroke-dashoffset:0;stroke-opacity:1" />
    <circle
       transform="scale(-1,-1)"
       r="4.6428571"
       cy="-128.27509"
       cx="-280.02277"
       id="path4144-07-22"
       style="opacity:1;fill:#646464;fill-opacity:1;stroke:#0000ff;stroke-width:0;stroke-linecap:butt;stroke-linejoin:round;stroke-miterlimit:4;stroke-dasharray:none;stroke-dashoffset:0;stroke-opacity:1" />
    <circle
       transform="scale(-1,-1)"
       r="4.6428571"
       cy="-73.275085"
       cx="-303.59421"
       id="path4144-07-28"
       style="opacity:1;fill:#646464;fill-opacity:1;stroke:#0000ff;stroke-width:0;stroke-linecap:butt;stroke-linejoin:round;stroke-miterlimit:4;stroke-dasharray:none;stroke-dashoffset:0;stroke-opacity:1" />
    <circle
       transform="scale(-1,-1)"
       r="4.6428571"
       cy="-102.56079"
       cx="-347.16562"
       id="path4144-07-3"
       style="opacity:1;fill:#646464;fill-opacity:1;stroke:#0000ff;stroke-width:0;stroke-linecap:butt;stroke-linejoin:round;stroke-miterlimit:4;stroke-dasharray:none;stroke-dashoffset:0;stroke-opacity:1" />
    <path
       inkscape:connector-curvature="0"
       id="path5089"
       d="m 290.55173,34.432665 13.04246,38.84242 43.57143,29.285705 m -43.57143,-29.285705 -49.28571,27.857145 25.71429,27.14285 m -25.71429,-27.14285 -40.8996,20.4433"
       style="fill:none;fill-rule:evenodd;stroke:#ff6600;stroke-width:3;stroke-linecap:round;stroke-linejoin:round;stroke-miterlimit:4;stroke-dasharray:none;stroke-opacity:1" />
    <path
       inkscape:connector-curvature="0"
       id="path5091"
       d="m 226.9803,38.004095 21.42859,117.857145 -22.85714,30.00003 m 22.85714,-30.00003 29.28571,35.7143 59.99999,-10.00001 m -59.99999,10.00001 17.14285,44.28569 m -69.2857,-49.99996 -2e-5,48.5714 m 2e-5,-48.5714 -65.35717,13.21426 m 0,0 -13.92855,41.78572"
       style="fill:none;fill-rule:evenodd;stroke:#006400;stroke-width:3;stroke-linecap:round;stroke-linejoin:round;stroke-miterlimit:4;stroke-dasharray:none;stroke-opacity:1" />
    <path
       inkscape:connector-curvature="0"
       id="path5093"
       d="m 126.26601,35.146975 -20.71428,33.57142 m -40.714324,11.42856 0.71435,39.999995 m -30.00006,-18.57144 29.28571,-21.428555 40.714324,-11.42856"
       style="fill:none;fill-rule:evenodd;stroke:#0000ff;stroke-width:3;stroke-linecap:round;stroke-linejoin:round;stroke-miterlimit:4;stroke-dasharray:none;stroke-opacity:1;stroke-dashoffset:0"
       sodipodi:nodetypes="ccccccc" />
    <path
       inkscape:connector-curvature="0"
       id="path5095"
       d="m 123.40889,136.57551 -5,36.42859 4.28571,55"
       style="fill:none;fill-rule:evenodd;stroke:#ff0000;stroke-width:3;stroke-linecap:round;stroke-linejoin:round;stroke-miterlimit:4;stroke-dasharray:none;stroke-dashoffset:0;stroke-opacity:1" />
    <path
       inkscape:connector-curvature="0"
       id="path5097"
       d="m 65.551756,120.14695 -19.28573,30.00001 -29.28574,5.71429 m 29.28574,-5.71429 2.85714,37.85714"
       style="fill:none;fill-rule:evenodd;stroke:#0000ff;stroke-width:3;stroke-linecap:round;stroke-linejoin:round;stroke-miterlimit:4;stroke-dasharray:none;stroke-dashoffset:0;stroke-opacity:1" />
    <circle
       transform="scale(-1,-1)"
       r="4.6428571"
       cy="-164.6535"
       cx="-163.68105"
       id="path4144-5-2"
       style="opacity:1;fill:#646464;fill-opacity:1;stroke:#0000ff;stroke-width:0;stroke-linecap:butt;stroke-linejoin:round;stroke-miterlimit:4;stroke-dasharray:none;stroke-dashoffset:0;stroke-opacity:1" />
    <path
       style="fill:none;fill-rule:evenodd;stroke:#ff0000;stroke-width:3;stroke-linecap:round;stroke-linejoin:miter;stroke-miterlimit:4;stroke-dasharray:none;stroke-dashoffset:0;stroke-opacity:1"
       d="m 163.68103,164.6535 16.15641,-28.07799"
       id="path5450"
       inkscape:connector-curvature="0" />
    <path
       style="opacity:1;fill:none;fill-opacity:0.48743723;stroke:#4d4d4d;stroke-width:2;stroke-linecap:butt;stroke-linejoin:miter;stroke-miterlimit:4;stroke-dasharray:2, 2;stroke-dashoffset:0;stroke-opacity:1"
       d="M 1.9824219,126.5957 C 58.76337,160.84093 123.60517,178.99062 189.70508,179.14062 c 60.32016,-0.0967 119.69354,-15.1852 172.90234,-43.93945"
       transform="translate(-1.205064,-27.611906)"
       id="path4184-5"
       inkscape:connector-curvature="0"
       sodipodi:nodetypes="ccc" />
    <path
       style="opacity:1;fill:none;fill-opacity:0.48743723;stroke:#4d4d4d;stroke-width:2;stroke-linecap:butt;stroke-linejoin:miter;stroke-miterlimit:4;stroke-dasharray:2, 2;stroke-dashoffset:0;stroke-opacity:1"
       d="m 1.7636719,248.90625 c 59.3713251,25.7989 123.3144481,39.12499 187.9414081,39.16797 59.07079,-3e-5 117.62682,-11.09809 172.68359,-32.72852"
       transform="translate(-1.205064,-27.611906)"
       id="path4184-1"
       inkscape:connector-curvature="0"
       sodipodi:nodetypes="ccc" />
    <g
       id="g4235"
       transform="matrix(2.000000,  0,  0,  -2.000000, -295.316799, 1464.635732)"
       xml:space="preserve"
       stroke="black"
       stroke-linecap="butt"
       stroke-linejoin="miter"
       stroke-miterlimit="10.433"
       stroke-dasharray="none"
       stroke-dashoffset="0"
       stroke-opacity="1"
       fill="black"
       fill-rule="evenodd"
       fill-opacity="1"
       font-style="normal"
       font-variant="normal"
       font-weight="normal"
       font-stretch="normal"
       font-size-adjust="none"
       letter-spacing="normal"
       word-spacing="normal"
       text-anchor="start"
       ns0:text="$V_{l-1}$\n\n\n\n"
       ns0:preamble="default_packages.tex"
       style="font-style:normal;font-variant:normal;font-weight:normal;font-stretch:normal;letter-spacing:normal;word-spacing:normal;text-anchor:start;fill:#4d4d4d;fill-opacity:1;fill-rule:evenodd;stroke:#808080;stroke-linecap:butt;stroke-linejoin:miter;stroke-miterlimit:10.43299961;stroke-dasharray:none;stroke-dashoffset:0;stroke-opacity:1"><path
         d="M154.98,712.78 L155.02,712.85 L155.07,712.91 L155.11,712.98 L155.15,713.03 L155.2,713.09 L155.24,713.14 L155.29,713.19 L155.33,713.23 L155.37,713.27 L155.41,713.31 L155.45,713.34 L155.5,713.37 L155.54,713.4 L155.58,713.43 L155.62,713.45 L155.66,713.47 L155.7,713.49 L155.74,713.51 L155.78,713.52 L155.81,713.54 L155.85,713.55 L155.89,713.56 L155.93,713.57 L155.96,713.57 L156,713.58 L156.04,713.58 L156.11,713.59 L156.18,713.6 L156.25,713.6 C156.37,713.61,156.38,713.78,156.38,713.79 C156.38,713.87,156.33,713.91,156.25,713.91 C155.99,713.91,155.7,713.88,155.43,713.88 C155.1,713.88,154.76,713.91,154.45,713.91 C154.39,713.91,154.26,713.91,154.26,713.72 C154.26,713.61,154.35,713.6,154.42,713.6 C154.68,713.58,154.88,713.48,154.88,713.27 C154.88,713.13,154.73,712.91,154.73,712.9 L151.66,708.05 L150.99,713.3 C150.99,713.47,151.21,713.6,151.67,713.6 C151.81,713.6,151.92,713.6,151.92,713.8 C151.92,713.89,151.84,713.91,151.78,713.91 C151.38,713.91,150.96,713.88,150.55,713.88 C150.37,713.88,150.18,713.89,150,713.89 C149.82,713.89,149.63,713.91,149.46,713.91 C149.39,713.91,149.27,713.91,149.27,713.72 C149.27,713.6,149.36,713.6,149.52,713.6 C150.08,713.6,150.09,713.51,150.12,713.26 L150.91,707.14 C150.94,706.94,150.98,706.91,151.1,706.91 C151.26,706.91,151.3,706.96,151.38,707.09 Z "
         stroke-width="0"
         fill="black"
         font-size-adjust="none"
         font-stretch="normal"
         font-style="normal"
         font-variant="normal"
         font-weight="normal"
         letter-spacing="normal"
         stroke-miterlimit="10.433"
         word-spacing="normal"
         style="font-style:normal;font-variant:normal;font-weight:normal;font-stretch:normal;letter-spacing:normal;word-spacing:normal;text-anchor:start;fill:#4d4d4d;fill-opacity:1;fill-rule:evenodd;stroke:#808080;stroke-linecap:butt;stroke-linejoin:miter;stroke-miterlimit:10.43299961;stroke-dasharray:none;stroke-dashoffset:0;stroke-opacity:1"
         id="path4237" /><path
         d="M156.5,710.25 L156.5,710.25 L156.5,710.25 L156.5,710.25 L156.5,710.25 L156.5,710.25 L156.5,710.25 L156.5,710.26 L156.5,710.26 L156.5,710.26 L156.5,710.26 L156.5,710.27 L156.5,710.27 L156.5,710.27 L156.51,710.28 L156.51,710.28 L156.51,710.29 L156.51,710.29 L156.51,710.3 L156.51,710.31 L156.51,710.31 L156.51,710.32 L156.52,710.32 L156.52,710.32 L156.52,710.33 L156.52,710.33 L156.52,710.34 L156.52,710.34 L156.52,710.34 L156.52,710.35 L156.52,710.35 L156.52,710.35 L156.52,710.35 L156.52,710.35 L156.52,710.35 L156.52,710.36 L156.52,710.36 L156.52,710.36 L156.52,710.36 L156.52,710.36 L156.52,710.36 L156.52,710.36 C156.52,710.39,156.5,710.46,156.41,710.46 C156.27,710.46,155.69,710.4,155.52,710.39 C155.47,710.38,155.37,710.37,155.37,710.23 C155.37,710.13,155.47,710.13,155.54,710.13 C155.88,710.13,155.88,710.08,155.88,710.03 C155.88,709.98,155.87,709.93,155.85,709.87 L154.99,706.44 C154.96,706.37,154.96,706.29,154.96,706.22 C154.96,705.78,155.36,705.56,155.69,705.56 C155.86,705.56,156.07,705.62,156.25,705.93 C156.4,706.19,156.5,706.6,156.5,706.63 C156.5,706.72,156.4,706.72,156.38,706.72 C156.29,706.72,156.27,706.67,156.24,706.55 C156.15,706.2,156.02,705.76,155.72,705.76 C155.53,705.76,155.48,705.93,155.48,706.1 C155.48,706.17,155.5,706.3,155.52,706.38 Z "
         stroke-width="0"
         fill="black"
         font-size-adjust="none"
         font-stretch="normal"
         font-style="normal"
         font-variant="normal"
         font-weight="normal"
         letter-spacing="normal"
         stroke-miterlimit="10.433"
         word-spacing="normal"
         style="font-style:normal;font-variant:normal;font-weight:normal;font-stretch:normal;letter-spacing:normal;word-spacing:normal;text-anchor:start;fill:#4d4d4d;fill-opacity:1;fill-rule:evenodd;stroke:#808080;stroke-linecap:butt;stroke-linejoin:miter;stroke-miterlimit:10.43299961;stroke-dasharray:none;stroke-dashoffset:0;stroke-opacity:1"
         id="path4239" /><path
         d="M162.29,707.2 L162.3,707.2 L162.31,707.2 L162.32,707.2 L162.33,707.2 L162.35,707.2 L162.37,707.2 L162.38,707.2 L162.39,707.21 L162.4,707.21 L162.41,707.21 L162.42,707.21 L162.44,707.21 L162.45,707.22 L162.46,707.22 L162.47,707.22 L162.48,707.23 L162.49,707.23 L162.5,707.24 L162.51,707.24 L162.52,707.25 L162.52,707.26 L162.53,707.26 L162.53,707.27 L162.54,707.27 L162.54,707.28 L162.54,707.28 L162.55,707.29 L162.55,707.29 L162.55,707.3 L162.55,707.3 L162.56,707.31 L162.56,707.31 L162.56,707.32 L162.56,707.33 L162.56,707.33 L162.56,707.34 L162.56,707.35 L162.57,707.35 L162.57,707.36 L162.57,707.37 C162.57,707.54,162.4,707.54,162.29,707.54 H158.12 C158.01,707.54,157.84,707.54,157.84,707.38 C157.84,707.2,158,707.2,158.12,707.2 Z "
         stroke-width="0"
         fill="black"
         font-size-adjust="none"
         font-stretch="normal"
         font-style="normal"
         font-variant="normal"
         font-weight="normal"
         letter-spacing="normal"
         stroke-miterlimit="10.433"
         word-spacing="normal"
         style="font-style:normal;font-variant:normal;font-weight:normal;font-stretch:normal;letter-spacing:normal;word-spacing:normal;text-anchor:start;fill:#4d4d4d;fill-opacity:1;fill-rule:evenodd;stroke:#808080;stroke-linecap:butt;stroke-linejoin:miter;stroke-miterlimit:10.43299961;stroke-dasharray:none;stroke-dashoffset:0;stroke-opacity:1"
         id="path4241" /><path
         d="M165.65,710.05 L165.65,710.06 L165.65,710.07 L165.65,710.08 L165.65,710.09 L165.65,710.09 L165.65,710.1 L165.65,710.11 L165.65,710.12 L165.65,710.12 L165.65,710.13 L165.65,710.14 L165.65,710.14 L165.65,710.15 L165.65,710.15 L165.65,710.16 L165.65,710.16 L165.65,710.17 L165.64,710.17 L165.64,710.18 L165.64,710.19 L165.64,710.2 L165.63,710.2 L165.63,710.21 L165.63,710.22 L165.62,710.22 L165.62,710.23 L165.61,710.23 L165.6,710.23 L165.59,710.24 L165.59,710.24 L165.58,710.24 L165.57,710.24 L165.56,710.24 L165.56,710.24 L165.55,710.24 L165.55,710.25 L165.54,710.25 L165.53,710.25 L165.53,710.25 L165.52,710.25 L165.51,710.25 L165.51,710.25 L165.5,710.25 L165.49,710.25 L165.49,710.25 L165.48,710.25 L165.47,710.25 L165.46,710.25 L165.45,710.25 L165.44,710.25 C164.99,709.81,164.36,709.8,164.07,709.8 V709.55 C164.24,709.55,164.7,709.55,165.09,709.75 V706.2 C165.09,705.97,165.09,705.88,164.39,705.88 H164.12 V705.63 C164.25,705.64,165.11,705.66,165.37,705.66 C165.58,705.66,166.46,705.64,166.62,705.63 V705.88 H166.35 C165.65,705.88,165.65,705.97,165.65,706.2 Z "
         stroke-width="0"
         fill="black"
         font-size-adjust="none"
         font-stretch="normal"
         font-style="normal"
         font-variant="normal"
         font-weight="normal"
         letter-spacing="normal"
         stroke-miterlimit="10.433"
         word-spacing="normal"
         style="font-style:normal;font-variant:normal;font-weight:normal;font-stretch:normal;letter-spacing:normal;word-spacing:normal;text-anchor:start;fill:#4d4d4d;fill-opacity:1;fill-rule:evenodd;stroke:#808080;stroke-linecap:butt;stroke-linejoin:miter;stroke-miterlimit:10.43299961;stroke-dasharray:none;stroke-dashoffset:0;stroke-opacity:1"
         id="path4243" /></g>    <g
       style="font-style:normal;font-variant:normal;font-weight:normal;font-stretch:normal;letter-spacing:normal;word-spacing:normal;text-anchor:start;fill:#4d4d4d;fill-opacity:1;fill-rule:evenodd;stroke:#000000;stroke-linecap:butt;stroke-linejoin:miter;stroke-miterlimit:10.43299961;stroke-dasharray:none;stroke-dashoffset:0;stroke-opacity:1"
       ns0:preamble="default_packages.tex"
       ns0:text="$V_l$\n\n\n"
       text-anchor="start"
       word-spacing="normal"
       letter-spacing="normal"
       font-size-adjust="none"
       font-stretch="normal"
       font-weight="normal"
       font-variant="normal"
       font-style="normal"
       fill-opacity="1"
       fill-rule="evenodd"
       fill="black"
       stroke-opacity="1"
       stroke-dashoffset="0"
       stroke-dasharray="none"
       stroke-miterlimit="10.433"
       stroke-linejoin="miter"
       stroke-linecap="butt"
       stroke="black"
       xml:space="preserve"
       transform="matrix(2.000000,  0,  0,  -2.000000, -294.975167, 1548.711525)"
       id="content"><path
         id="path4353"
         style="font-style:normal;font-variant:normal;font-weight:normal;font-stretch:normal;letter-spacing:normal;word-spacing:normal;text-anchor:start;fill:#4d4d4d;fill-opacity:1;fill-rule:evenodd;stroke:#000000;stroke-linecap:butt;stroke-linejoin:miter;stroke-miterlimit:10.43299961;stroke-dasharray:none;stroke-dashoffset:0;stroke-opacity:1"
         word-spacing="normal"
         stroke-miterlimit="10.433"
         letter-spacing="normal"
         font-weight="normal"
         font-variant="normal"
         font-style="normal"
         font-stretch="normal"
         font-size-adjust="none"
         fill="black"
         stroke-width="0"
         d="M154.98,712.78 L155.02,712.85 L155.07,712.91 L155.11,712.98 L155.15,713.03 L155.2,713.09 L155.24,713.14 L155.29,713.19 L155.33,713.23 L155.37,713.27 L155.41,713.31 L155.45,713.34 L155.5,713.37 L155.54,713.4 L155.58,713.43 L155.62,713.45 L155.66,713.47 L155.7,713.49 L155.74,713.51 L155.78,713.52 L155.81,713.54 L155.85,713.55 L155.89,713.56 L155.93,713.57 L155.96,713.57 L156,713.58 L156.04,713.58 L156.11,713.59 L156.18,713.6 L156.25,713.6 C156.37,713.61,156.38,713.78,156.38,713.79 C156.38,713.87,156.33,713.91,156.25,713.91 C155.99,713.91,155.7,713.88,155.43,713.88 C155.1,713.88,154.76,713.91,154.45,713.91 C154.39,713.91,154.26,713.91,154.26,713.72 C154.26,713.61,154.35,713.6,154.42,713.6 C154.68,713.58,154.88,713.48,154.88,713.27 C154.88,713.13,154.73,712.91,154.73,712.9 L151.66,708.05 L150.99,713.3 C150.99,713.47,151.21,713.6,151.67,713.6 C151.81,713.6,151.92,713.6,151.92,713.8 C151.92,713.89,151.84,713.91,151.78,713.91 C151.38,713.91,150.96,713.88,150.55,713.88 C150.37,713.88,150.18,713.89,150,713.89 C149.82,713.89,149.63,713.91,149.46,713.91 C149.39,713.91,149.27,713.91,149.27,713.72 C149.27,713.6,149.36,713.6,149.52,713.6 C150.08,713.6,150.09,713.51,150.12,713.26 L150.91,707.14 C150.94,706.94,150.98,706.91,151.1,706.91 C151.26,706.91,151.3,706.96,151.38,707.09 Z " /><path
         id="path4355"
         style="font-style:normal;font-variant:normal;font-weight:normal;font-stretch:normal;letter-spacing:normal;word-spacing:normal;text-anchor:start;fill:#4d4d4d;fill-opacity:1;fill-rule:evenodd;stroke:#000000;stroke-linecap:butt;stroke-linejoin:miter;stroke-miterlimit:10.43299961;stroke-dasharray:none;stroke-dashoffset:0;stroke-opacity:1"
         word-spacing="normal"
         stroke-miterlimit="10.433"
         letter-spacing="normal"
         font-weight="normal"
         font-variant="normal"
         font-style="normal"
         font-stretch="normal"
         font-size-adjust="none"
         fill="black"
         stroke-width="0"
         d="M156.5,710.25 L156.5,710.25 L156.5,710.25 L156.5,710.25 L156.5,710.25 L156.5,710.25 L156.5,710.25 L156.5,710.26 L156.5,710.26 L156.5,710.26 L156.5,710.26 L156.5,710.27 L156.5,710.27 L156.5,710.27 L156.51,710.28 L156.51,710.28 L156.51,710.29 L156.51,710.29 L156.51,710.3 L156.51,710.31 L156.51,710.31 L156.51,710.32 L156.52,710.32 L156.52,710.32 L156.52,710.33 L156.52,710.33 L156.52,710.34 L156.52,710.34 L156.52,710.34 L156.52,710.35 L156.52,710.35 L156.52,710.35 L156.52,710.35 L156.52,710.35 L156.52,710.35 L156.52,710.36 L156.52,710.36 L156.52,710.36 L156.52,710.36 L156.52,710.36 L156.52,710.36 L156.52,710.36 C156.52,710.39,156.5,710.46,156.41,710.46 C156.27,710.46,155.69,710.4,155.52,710.39 C155.47,710.38,155.37,710.37,155.37,710.23 C155.37,710.13,155.47,710.13,155.54,710.13 C155.88,710.13,155.88,710.08,155.88,710.03 C155.88,709.98,155.87,709.93,155.85,709.87 L154.99,706.44 C154.96,706.37,154.96,706.29,154.96,706.22 C154.96,705.78,155.36,705.56,155.69,705.56 C155.86,705.56,156.07,705.62,156.25,705.93 C156.4,706.19,156.5,706.6,156.5,706.63 C156.5,706.72,156.4,706.72,156.38,706.72 C156.29,706.72,156.27,706.67,156.24,706.55 C156.15,706.2,156.02,705.76,155.72,705.76 C155.53,705.76,155.48,705.93,155.48,706.1 C155.48,706.17,155.5,706.3,155.52,706.38 Z " /></g>    <path
       inkscape:connector-curvature="0"
       id="path5093-1"
       d="m 161.266,86.575513 2.85716,22.142867 -40.71428,27.85713 m 40.71428,-27.85713 15.71428,27.85713"
       style="fill:none;fill-rule:evenodd;stroke:#ff0000;stroke-width:3;stroke-linecap:round;stroke-linejoin:round;stroke-miterlimit:4;stroke-dasharray:none;stroke-opacity:1;stroke-dashoffset:0"
       sodipodi:nodetypes="ccccc" />
  </g>
</svg>
