<?xml version="1.0" encoding="UTF-8" standalone="no"?>
<!-- Created with Inkscape (http://www.inkscape.org/) -->

<svg
   xmlns:ns0="http://www.iki.fi/pav/software/textext/"
   xmlns:dc="http://purl.org/dc/elements/1.1/"
   xmlns:cc="http://creativecommons.org/ns#"
   xmlns:rdf="http://www.w3.org/1999/02/22-rdf-syntax-ns#"
   xmlns:svg="http://www.w3.org/2000/svg"
   xmlns="http://www.w3.org/2000/svg"
   xmlns:sodipodi="http://sodipodi.sourceforge.net/DTD/sodipodi-0.dtd"
   xmlns:inkscape="http://www.inkscape.org/namespaces/inkscape"
   width="161.23476mm"
   height="71.678627mm"
   viewBox="0 0 571.30426 253.97938"
   id="svg5452"
   version="1.1"
   inkscape:version="0.91 r13725"
   sodipodi:docname="FractionalAssignment3.svg">
  <sodipodi:namedview
     id="base"
     pagecolor="#ffffff"
     bordercolor="#666666"
     borderopacity="1.0"
     inkscape:pageopacity="0.0"
     inkscape:pageshadow="2"
     inkscape:zoom="0.98994949"
     inkscape:cx="442.53224"
     inkscape:cy="188.43954"
     inkscape:document-units="px"
     inkscape:current-layer="layer1"
     showgrid="false"
     inkscape:snap-object-midpoints="false"
     inkscape:window-width="1205"
     inkscape:window-height="697"
     inkscape:window-x="67"
     inkscape:window-y="-8"
     inkscape:window-maximized="1"
     fit-margin-top="0"
     fit-margin-left="0"
     fit-margin-right="0"
     fit-margin-bottom="0" />
  <defs
     id="defs5454" />
  <metadata
     id="metadata5457">
    <rdf:RDF>
      <cc:Work
         rdf:about="">
        <dc:format>image/svg+xml</dc:format>
        <dc:type
           rdf:resource="http://purl.org/dc/dcmitype/StillImage" />
        <dc:title />
      </cc:Work>
    </rdf:RDF>
  </metadata>
  <g
     inkscape:label="Ebene 1"
     inkscape:groupmode="layer"
     id="layer1"
     transform="translate(11.105537,-128.59203)">
    <g
       style="font-style:normal;font-variant:normal;font-weight:normal;font-stretch:normal;letter-spacing:normal;word-spacing:normal;text-anchor:start;fill:#000000;fill-opacity:1;fill-rule:evenodd;stroke:#000000;stroke-linecap:butt;stroke-linejoin:miter;stroke-miterlimit:10.43299961;stroke-dasharray:none;stroke-dashoffset:0;stroke-opacity:1"
       ns0:preamble="default_packages.tex"
       ns0:text="\\textsf{(Weg-)Budget:}\n\n$b(i) := \\beta2^{\\lambda_i}M$\n\n\n\n\n\n\n\n\n"
       text-anchor="start"
       word-spacing="normal"
       letter-spacing="normal"
       font-size-adjust="none"
       font-stretch="normal"
       font-weight="normal"
       font-variant="normal"
       font-style="normal"
       fill-opacity="1"
       fill-rule="evenodd"
       fill="black"
       stroke-opacity="1"
       stroke-dashoffset="0"
       stroke-dasharray="none"
       stroke-miterlimit="10.433"
       stroke-linejoin="miter"
       stroke-linecap="butt"
       stroke="black"
       xml:space="preserve"
       transform="matrix(2.000000,  0,  0,  -2.000000, 131.095240, 1657.242500)"
       id="content"><path
         id="path4171"
         style="font-style:normal;font-variant:normal;font-weight:normal;font-stretch:normal;letter-spacing:normal;word-spacing:normal;text-anchor:start;fill:#000000;fill-opacity:1;fill-rule:evenodd;stroke:#000000;stroke-linecap:butt;stroke-linejoin:miter;stroke-miterlimit:10.43299961;stroke-dasharray:none;stroke-dashoffset:0;stroke-opacity:1"
         word-spacing="normal"
         stroke-miterlimit="10.433"
         letter-spacing="normal"
         font-weight="normal"
         font-variant="normal"
         font-style="normal"
         font-stretch="normal"
         font-size-adjust="none"
         fill="black"
         stroke-width="0"
         d="M151.41,714.58 L151.38,714.55 L151.35,714.52 L151.32,714.48 L151.28,714.45 L151.24,714.41 L151.2,714.37 L151.16,714.33 L151.12,714.29 L151.07,714.24 L151.03,714.2 L150.98,714.15 L150.94,714.09 L150.89,714.04 L150.84,713.98 L150.79,713.92 L150.74,713.86 L150.69,713.79 L150.64,713.73 L150.59,713.65 L150.54,713.58 L150.49,713.5 L150.44,713.42 L150.39,713.34 L150.34,713.26 L150.29,713.17 L150.25,713.07 L150.2,712.98 L150.15,712.88 L150.1,712.78 L150.06,712.67 L150.01,712.56 L149.97,712.45 C149.57,711.39,149.5,710.33,149.5,709.61 C149.5,706.4,150.94,705.08,151.41,704.64 H152.02 C151.54,705.12,150.28,706.4,150.28,709.61 C150.28,710.16,150.31,711.33,150.72,712.5 C151.13,713.65,151.69,714.25,152.02,714.58 Z " /><path
         id="path4173"
         style="font-style:normal;font-variant:normal;font-weight:normal;font-stretch:normal;letter-spacing:normal;word-spacing:normal;text-anchor:start;fill:#000000;fill-opacity:1;fill-rule:evenodd;stroke:#000000;stroke-linecap:butt;stroke-linejoin:miter;stroke-miterlimit:10.43299961;stroke-dasharray:none;stroke-dashoffset:0;stroke-opacity:1"
         word-spacing="normal"
         stroke-miterlimit="10.433"
         letter-spacing="normal"
         font-weight="normal"
         font-variant="normal"
         font-style="normal"
         font-stretch="normal"
         font-size-adjust="none"
         fill="black"
         stroke-width="0"
         d="M161.85,714.02 H161.13 L160.23,710.9 C159.97,710.02,159.49,708.35,159.44,707.84 H159.43 C159.43,707.85,159.37,708.37,158.71,710.63 L157.73,714.02 H156.92 L156.03,710.92 C155.81,710.16,155.31,708.42,155.26,707.86 H155.25 C155.21,708.26,154.94,709.23,154.86,709.56 L154.39,711.22 L153.58,714.02 H152.73 L154.75,707.13 H155.56 L156.55,710.57 C156.76,711.3,157.19,712.78,157.25,713.29 H157.26 C157.3,713,157.54,712.05,157.81,711.11 L158.96,707.13 H159.83 Z " /><path
         id="path4175"
         style="font-style:normal;font-variant:normal;font-weight:normal;font-stretch:normal;letter-spacing:normal;word-spacing:normal;text-anchor:start;fill:#000000;fill-opacity:1;fill-rule:evenodd;stroke:#000000;stroke-linecap:butt;stroke-linejoin:miter;stroke-miterlimit:10.43299961;stroke-dasharray:none;stroke-dashoffset:0;stroke-opacity:1"
         word-spacing="normal"
         stroke-miterlimit="10.433"
         letter-spacing="normal"
         font-weight="normal"
         font-variant="normal"
         font-style="normal"
         font-stretch="normal"
         font-size-adjust="none"
         fill="black"
         stroke-width="0"
         d="M165.85,709.3 L165.85,709.33 L165.85,709.37 L165.85,709.41 L165.84,709.44 L165.84,709.49 L165.84,709.53 L165.84,709.57 L165.84,709.62 L165.84,709.67 L165.83,709.72 L165.83,709.77 L165.82,709.82 L165.82,709.88 L165.81,709.93 L165.8,709.99 L165.79,710.04 L165.78,710.1 L165.77,710.16 L165.76,710.22 L165.74,710.27 L165.73,710.33 L165.71,710.39 L165.69,710.45 L165.67,710.51 L165.65,710.57 L165.63,710.63 L165.6,710.69 L165.58,710.75 L165.55,710.81 L165.52,710.87 L165.48,710.92 L165.45,710.98 C165.04,711.59,164.43,711.71,164.07,711.71 C162.96,711.71,162.07,710.65,162.07,709.37 C162.07,708.06,163.02,707.02,164.22,707.02 C164.85,707.02,165.42,707.25,165.81,707.53 L165.75,708.18 C165.12,707.66,164.46,707.62,164.23,707.62 C163.43,707.62,162.79,708.33,162.76,709.3 L162.81,709.85 C162.97,710.6,163.5,711.1,164.07,711.1 C164.59,711.1,165.15,710.76,165.28,709.85 H162.81 L162.76,709.3 Z " /><path
         id="path4177"
         style="font-style:normal;font-variant:normal;font-weight:normal;font-stretch:normal;letter-spacing:normal;word-spacing:normal;text-anchor:start;fill:#000000;fill-opacity:1;fill-rule:evenodd;stroke:#000000;stroke-linecap:butt;stroke-linejoin:miter;stroke-miterlimit:10.43299961;stroke-dasharray:none;stroke-dashoffset:0;stroke-opacity:1"
         word-spacing="normal"
         stroke-miterlimit="10.433"
         letter-spacing="normal"
         font-weight="normal"
         font-variant="normal"
         font-style="normal"
         font-stretch="normal"
         font-size-adjust="none"
         fill="black"
         stroke-width="0"
         d="M169.65,711.01 L169.7,711.01 L169.74,711.01 L169.78,711.01 L169.83,711.02 L169.87,711.02 L169.92,711.02 L169.97,711.03 L170.02,711.03 L170.11,711.04 L170.16,711.04 L170.21,711.04 L170.25,711.05 L170.3,711.05 L170.35,711.05 L170.39,711.05 C170.57,711.05,170.96,711.02,170.98,711.02 L170.87,711.65 C170.17,711.65,169.6,711.46,169.3,711.33 C169.09,711.5,168.75,711.65,168.35,711.65 V711.08 C168.78,711.08,169.25,710.8,169.25,710.03 C169.25,709.25,168.78,708.97,168.35,708.97 H168.35 C167.98,708.97,167.46,709.2,167.46,710.03 C167.46,710.85,167.98,711.08,168.35,711.08 V711.65 C167.49,711.65,166.76,710.93,166.76,710.03 C166.76,709.66,166.89,709.3,167.09,709.04 C166.8,708.64,166.8,708.25,166.8,708.2 C166.8,707.94,166.89,707.65,167.06,707.44 C166.54,707.14,166.42,706.68,166.42,706.42 C166.42,705.67,167.41,705.08,168.63,705.08 L168.64,705.65 C167.83,705.65,167.12,705.95,167.12,706.42 C167.12,706.45,167.12,707.09,167.9,707.09 H168.8 C169.02,707.09,170.14,707.09,170.14,706.41 C170.14,705.97,169.46,705.65,168.64,705.65 L168.63,705.08 C169.85,705.08,170.84,705.66,170.84,706.43 C170.84,707.81,169.18,707.81,168.79,707.81 H167.91 C167.78,707.81,167.33,707.81,167.33,708.34 C167.33,708.45,167.37,708.6,167.44,708.69 C167.65,708.55,167.98,708.41,168.35,708.41 C169.25,708.41,169.94,709.14,169.94,710.03 C169.94,710.5,169.73,710.87,169.62,711.02 Z " /><polygon
         id="polygon4179"
         style="font-style:normal;font-variant:normal;font-weight:normal;font-stretch:normal;letter-spacing:normal;word-spacing:normal;text-anchor:start;fill:#000000;fill-opacity:1;fill-rule:evenodd;stroke:#000000;stroke-linecap:butt;stroke-linejoin:miter;stroke-miterlimit:10.43299961;stroke-dasharray:none;stroke-dashoffset:0;stroke-opacity:1"
         word-spacing="normal"
         stroke-miterlimit="10.433"
         letter-spacing="normal"
         font-weight="normal"
         font-variant="normal"
         font-style="normal"
         font-stretch="normal"
         font-size-adjust="none"
         fill="black"
         stroke-width="0"
         points="173.88,709.04 173.88,709.62 171.24,709.62 171.24,709.04 " /><path
         id="path4181"
         style="font-style:normal;font-variant:normal;font-weight:normal;font-stretch:normal;letter-spacing:normal;word-spacing:normal;text-anchor:start;fill:#000000;fill-opacity:1;fill-rule:evenodd;stroke:#000000;stroke-linecap:butt;stroke-linejoin:miter;stroke-miterlimit:10.43299961;stroke-dasharray:none;stroke-dashoffset:0;stroke-opacity:1"
         word-spacing="normal"
         stroke-miterlimit="10.433"
         letter-spacing="normal"
         font-weight="normal"
         font-variant="normal"
         font-style="normal"
         font-stretch="normal"
         font-size-adjust="none"
         fill="black"
         stroke-width="0"
         d="M175.61,704.64 L175.64,704.67 L175.68,704.7 L175.71,704.73 L175.75,704.77 L175.79,704.81 L175.83,704.84 L175.87,704.89 L175.91,704.93 L175.95,704.97 L176,705.02 L176.04,705.07 L176.09,705.12 L176.14,705.18 L176.19,705.24 L176.23,705.3 L176.28,705.36 L176.33,705.42 L176.38,705.49 L176.43,705.56 L176.48,705.64 L176.53,705.71 L176.58,705.79 L176.63,705.88 L176.68,705.96 L176.73,706.05 L176.78,706.14 L176.83,706.24 L176.88,706.34 L176.92,706.44 L176.97,706.55 L177.02,706.65 L177.06,706.77 C177.46,707.83,177.53,708.88,177.53,709.61 C177.53,712.82,176.09,714.14,175.61,714.58 H175.01 C175.48,714.1,176.75,712.82,176.75,709.61 C176.75,709.05,176.72,707.89,176.31,706.72 C175.9,705.57,175.33,704.97,175.01,704.64 Z " /><path
         id="path4183"
         style="font-style:normal;font-variant:normal;font-weight:normal;font-stretch:normal;letter-spacing:normal;word-spacing:normal;text-anchor:start;fill:#000000;fill-opacity:1;fill-rule:evenodd;stroke:#000000;stroke-linecap:butt;stroke-linejoin:miter;stroke-miterlimit:10.43299961;stroke-dasharray:none;stroke-dashoffset:0;stroke-opacity:1"
         word-spacing="normal"
         stroke-miterlimit="10.433"
         letter-spacing="normal"
         font-weight="normal"
         font-variant="normal"
         font-style="normal"
         font-stretch="normal"
         font-size-adjust="none"
         fill="black"
         stroke-width="0"
         d="M179.29,714.02 V707.13 H181.92 L181.64,707.68 H180.12 V710.4 V711.01 V713.46 H181.37 C182.48,713.46,183.36,712.94,183.36,712.28 C183.36,711.68,182.65,711.01,181.27,711.01 H180.12 V710.4 H181.56 C182.62,710.4,183.6,709.8,183.6,709 C183.6,708.26,182.72,707.68,181.64,707.68 L181.92,707.13 C183.36,707.13,184.4,708.02,184.4,708.99 C184.4,709.86,183.54,710.56,182.48,710.73 C183.39,710.96,184.13,711.54,184.13,712.29 C184.13,713.21,183.07,714.02,181.65,714.02 Z " /><path
         id="path4185"
         style="font-style:normal;font-variant:normal;font-weight:normal;font-stretch:normal;letter-spacing:normal;word-spacing:normal;text-anchor:start;fill:#000000;fill-opacity:1;fill-rule:evenodd;stroke:#000000;stroke-linecap:butt;stroke-linejoin:miter;stroke-miterlimit:10.43299961;stroke-dasharray:none;stroke-dashoffset:0;stroke-opacity:1"
         word-spacing="normal"
         stroke-miterlimit="10.433"
         letter-spacing="normal"
         font-weight="normal"
         font-variant="normal"
         font-style="normal"
         font-stretch="normal"
         font-size-adjust="none"
         fill="black"
         stroke-width="0"
         d="M189.3,711.54 H188.52 V708.66 C188.52,707.91,187.96,707.56,187.33,707.56 C186.62,707.56,186.55,707.82,186.55,708.25 V711.54 H185.77 V708.21 C185.77,707.49,186,707.02,186.83,707.02 C187.36,707.02,188.06,707.17,188.55,707.6 V707.13 H189.3 Z " /><path
         id="path4187"
         style="font-style:normal;font-variant:normal;font-weight:normal;font-stretch:normal;letter-spacing:normal;word-spacing:normal;text-anchor:start;fill:#000000;fill-opacity:1;fill-rule:evenodd;stroke:#000000;stroke-linecap:butt;stroke-linejoin:miter;stroke-miterlimit:10.43299961;stroke-dasharray:none;stroke-dashoffset:0;stroke-opacity:1"
         word-spacing="normal"
         stroke-miterlimit="10.433"
         letter-spacing="normal"
         font-weight="normal"
         font-variant="normal"
         font-style="normal"
         font-stretch="normal"
         font-size-adjust="none"
         fill="black"
         stroke-width="0"
         d="M194.44,714.02 H193.69 V711.1 C193.16,711.54,192.6,711.65,192.24,711.65 C191.25,711.65,190.47,710.61,190.47,709.33 C190.47,708.03,191.24,707.02,192.18,707.02 C192.51,707.02,193.1,707.1,193.66,707.64 L193.33,707.9 C193.1,707.7,192.85,707.62,192.59,707.62 C191.98,707.62,191.25,708.09,191.25,709.32 C191.25,710.63,192.1,711.04,192.69,711.04 C193.14,711.04,193.44,710.81,193.66,710.49 V708.51 C193.66,708.37,193.65,708.19,193.33,707.9 L193.66,707.64 V707.13 H194.44 Z " /><path
         id="path4189"
         style="font-style:normal;font-variant:normal;font-weight:normal;font-stretch:normal;letter-spacing:normal;word-spacing:normal;text-anchor:start;fill:#000000;fill-opacity:1;fill-rule:evenodd;stroke:#000000;stroke-linecap:butt;stroke-linejoin:miter;stroke-miterlimit:10.43299961;stroke-dasharray:none;stroke-dashoffset:0;stroke-opacity:1"
         word-spacing="normal"
         stroke-miterlimit="10.433"
         letter-spacing="normal"
         font-weight="normal"
         font-variant="normal"
         font-style="normal"
         font-stretch="normal"
         font-size-adjust="none"
         fill="black"
         stroke-width="0"
         d="M198.77,711.01 L198.81,711.01 L198.85,711.01 L198.9,711.01 L198.94,711.02 L198.99,711.02 L199.04,711.02 L199.08,711.03 L199.13,711.03 L199.23,711.04 L199.27,711.04 L199.32,711.04 L199.37,711.05 L199.41,711.05 L199.46,711.05 L199.51,711.05 C199.69,711.05,200.07,711.02,200.1,711.02 L199.99,711.65 C199.29,711.65,198.71,711.46,198.41,711.33 C198.2,711.5,197.86,711.65,197.46,711.65 V711.08 C197.89,711.08,198.36,710.8,198.36,710.03 C198.36,709.25,197.89,708.97,197.46,708.97 H197.46 C197.09,708.97,196.57,709.2,196.57,710.03 C196.57,710.85,197.09,711.08,197.46,711.08 V711.65 C196.6,711.65,195.88,710.93,195.88,710.03 C195.88,709.66,196.01,709.3,196.21,709.04 C195.92,708.64,195.92,708.25,195.92,708.2 C195.92,707.94,196.01,707.65,196.18,707.44 C195.66,707.14,195.54,706.68,195.54,706.42 C195.54,705.67,196.52,705.08,197.74,705.08 L197.75,705.65 C196.94,705.65,196.24,705.95,196.24,706.42 C196.24,706.45,196.24,707.09,197.01,707.09 H197.91 C198.13,707.09,199.26,707.09,199.26,706.41 C199.26,705.97,198.57,705.65,197.75,705.65 L197.74,705.08 C198.97,705.08,199.96,705.66,199.96,706.43 C199.96,707.81,198.29,707.81,197.9,707.81 H197.02 C196.89,707.81,196.45,707.81,196.45,708.34 C196.45,708.45,196.49,708.6,196.55,708.69 C196.76,708.55,197.09,708.41,197.46,708.41 C198.36,708.41,199.06,709.14,199.06,710.03 C199.06,710.5,198.84,710.87,198.73,711.02 Z " /><path
         id="path4191"
         style="font-style:normal;font-variant:normal;font-weight:normal;font-stretch:normal;letter-spacing:normal;word-spacing:normal;text-anchor:start;fill:#000000;fill-opacity:1;fill-rule:evenodd;stroke:#000000;stroke-linecap:butt;stroke-linejoin:miter;stroke-miterlimit:10.43299961;stroke-dasharray:none;stroke-dashoffset:0;stroke-opacity:1"
         word-spacing="normal"
         stroke-miterlimit="10.433"
         letter-spacing="normal"
         font-weight="normal"
         font-variant="normal"
         font-style="normal"
         font-stretch="normal"
         font-size-adjust="none"
         fill="black"
         stroke-width="0"
         d="M204.37,709.3 L204.37,709.33 L204.37,709.37 L204.37,709.41 L204.37,709.44 L204.37,709.49 L204.36,709.53 L204.36,709.57 L204.36,709.62 L204.36,709.67 L204.35,709.72 L204.35,709.77 L204.34,709.82 L204.34,709.88 L204.33,709.93 L204.32,709.99 L204.31,710.04 L204.3,710.1 L204.29,710.16 L204.28,710.22 L204.27,710.27 L204.25,710.33 L204.23,710.39 L204.22,710.45 L204.2,710.51 L204.17,710.57 L204.15,710.63 L204.12,710.69 L204.1,710.75 L204.07,710.81 L204.04,710.87 L204,710.92 L203.97,710.98 C203.56,711.59,202.95,711.71,202.59,711.71 C201.49,711.71,200.59,710.65,200.59,709.37 C200.59,708.06,201.55,707.02,202.74,707.02 C203.37,707.02,203.94,707.25,204.33,707.53 L204.27,708.18 C203.64,707.66,202.98,707.62,202.75,707.62 C201.96,707.62,201.32,708.33,201.29,709.3 L201.34,709.85 C201.5,710.6,202.02,711.1,202.59,711.1 C203.11,711.1,203.67,710.76,203.8,709.85 H201.34 L201.29,709.3 Z " /><path
         id="path4193"
         style="font-style:normal;font-variant:normal;font-weight:normal;font-stretch:normal;letter-spacing:normal;word-spacing:normal;text-anchor:start;fill:#000000;fill-opacity:1;fill-rule:evenodd;stroke:#000000;stroke-linecap:butt;stroke-linejoin:miter;stroke-miterlimit:10.43299961;stroke-dasharray:none;stroke-dashoffset:0;stroke-opacity:1"
         word-spacing="normal"
         stroke-miterlimit="10.433"
         letter-spacing="normal"
         font-weight="normal"
         font-variant="normal"
         font-style="normal"
         font-stretch="normal"
         font-size-adjust="none"
         fill="black"
         stroke-width="0"
         d="M206.41,710.96 H207.82 V711.54 H206.41 V712.8 H205.72 V711.54 H204.86 V710.96 H205.69 V708.31 C205.69,707.71,205.83,707.02,206.52,707.02 C207.22,707.02,207.73,707.26,207.98,707.39 L207.82,707.98 C207.56,707.77,207.24,707.65,206.92,707.65 C206.55,707.65,206.41,707.95,206.41,708.48 Z " /><polygon
         id="polygon4195"
         style="font-style:normal;font-variant:normal;font-weight:normal;font-stretch:normal;letter-spacing:normal;word-spacing:normal;text-anchor:start;fill:#000000;fill-opacity:1;fill-rule:evenodd;stroke:#000000;stroke-linecap:butt;stroke-linejoin:miter;stroke-miterlimit:10.43299961;stroke-dasharray:none;stroke-dashoffset:0;stroke-opacity:1"
         word-spacing="normal"
         stroke-miterlimit="10.433"
         letter-spacing="normal"
         font-weight="normal"
         font-variant="normal"
         font-style="normal"
         font-stretch="normal"
         font-size-adjust="none"
         fill="black"
         stroke-width="0"
         points="210.06,711.54 209.23,711.54 209.23,710.71 210.06,710.71 " /><polygon
         id="polygon4197"
         style="font-style:normal;font-variant:normal;font-weight:normal;font-stretch:normal;letter-spacing:normal;word-spacing:normal;text-anchor:start;fill:#000000;fill-opacity:1;fill-rule:evenodd;stroke:#000000;stroke-linecap:butt;stroke-linejoin:miter;stroke-miterlimit:10.43299961;stroke-dasharray:none;stroke-dashoffset:0;stroke-opacity:1"
         word-spacing="normal"
         stroke-miterlimit="10.433"
         letter-spacing="normal"
         font-weight="normal"
         font-variant="normal"
         font-style="normal"
         font-stretch="normal"
         font-size-adjust="none"
         fill="black"
         stroke-width="0"
         points="209.23,707.95 209.23,707.13 210.06,707.13 210.06,707.95 " /><path
         id="path4199"
         style="font-style:normal;font-variant:normal;font-weight:normal;font-stretch:normal;letter-spacing:normal;word-spacing:normal;text-anchor:start;fill:#000000;fill-opacity:1;fill-rule:evenodd;stroke:#000000;stroke-linecap:butt;stroke-linejoin:miter;stroke-miterlimit:10.43299961;stroke-dasharray:none;stroke-dashoffset:0;stroke-opacity:1"
         word-spacing="normal"
         stroke-miterlimit="10.433"
         letter-spacing="normal"
         font-weight="normal"
         font-variant="normal"
         font-style="normal"
         font-stretch="normal"
         font-size-adjust="none"
         fill="black"
         stroke-width="0"
         d="M151.1,701.96 L151.1,701.96 L151.09,701.96 L151.09,701.96 L151.09,701.96 L151.09,701.96 L151.09,701.97 L151.09,701.97 L151.09,701.97 L151.09,701.98 L151.09,701.98 L151.09,701.98 L151.09,701.99 L151.09,701.99 L151.09,702 L151.08,702 L151.08,702.01 L151.08,702.01 L151.08,702.02 L151.07,702.02 L151.07,702.03 L151.06,702.03 L151.06,702.03 L151.06,702.04 L151.06,702.04 L151.05,702.04 L151.05,702.04 L151.05,702.04 L151.04,702.05 L151.04,702.05 L151.04,702.05 L151.03,702.05 L151.03,702.05 L151.03,702.05 L151.02,702.06 L151.02,702.06 L151.01,702.06 L151.01,702.06 L151,702.06 L151,702.06 L150.99,702.06 L150.99,702.06 L150.98,702.06 L150.98,702.06 L150.97,702.06 L150.97,702.06 C150.74,702.06,150.01,701.98,149.75,701.97 C149.67,701.96,149.56,701.95,149.56,701.77 C149.56,701.65,149.65,701.65,149.8,701.65 C150.28,701.65,150.3,701.58,150.3,701.48 C150.3,701.41,150.21,701.07,150.16,700.86 L149.34,697.62 C149.22,697.13,149.18,696.97,149.18,696.62 C149.18,695.68,149.71,695.06,150.45,695.06 V695.28 C150.11,695.28,149.78,695.55,149.78,696.28 C149.78,696.47,149.78,696.66,149.94,697.29 L150.16,698.2 C150.22,698.42,150.22,698.44,150.31,698.55 C150.8,699.19,151.24,699.34,151.5,699.34 C151.86,699.34,152.13,699.04,152.13,698.41 C152.13,697.82,151.8,696.68,151.62,696.3 C151.29,695.64,150.84,695.28,150.45,695.28 V695.06 C151.62,695.06,152.85,696.54,152.85,697.97 C152.85,698.88,152.32,699.56,151.52,699.56 C151.07,699.56,150.66,699.27,150.36,698.97 Z " /><path
         id="path4201"
         style="font-style:normal;font-variant:normal;font-weight:normal;font-stretch:normal;letter-spacing:normal;word-spacing:normal;text-anchor:start;fill:#000000;fill-opacity:1;fill-rule:evenodd;stroke:#000000;stroke-linecap:butt;stroke-linejoin:miter;stroke-miterlimit:10.43299961;stroke-dasharray:none;stroke-dashoffset:0;stroke-opacity:1"
         word-spacing="normal"
         stroke-miterlimit="10.433"
         letter-spacing="normal"
         font-weight="normal"
         font-variant="normal"
         font-style="normal"
         font-stretch="normal"
         font-size-adjust="none"
         fill="black"
         stroke-width="0"
         d="M156.29,692.79 L156.29,692.79 L156.29,692.8 L156.29,692.8 L156.29,692.8 L156.29,692.81 L156.29,692.81 L156.29,692.81 L156.28,692.82 L156.28,692.82 L156.28,692.82 L156.28,692.83 L156.27,692.83 L156.27,692.84 L156.27,692.84 L156.26,692.85 L156.26,692.86 L156.25,692.86 L156.25,692.87 L156.24,692.87 L156.24,692.88 L156.24,692.88 L156.23,692.89 L156.23,692.89 L156.23,692.89 L156.22,692.9 L156.22,692.9 L156.21,692.91 L156.21,692.91 L156.2,692.92 L156.2,692.92 L156.19,692.93 L156.19,692.94 L156.18,692.94 L156.18,692.95 L156.17,692.95 L156.16,692.96 L156.16,692.97 L156.15,692.97 L156.14,692.98 L156.13,692.99 L156.13,693 L156.12,693 C154.87,694.26,154.55,696.13,154.55,697.65 C154.55,699.38,154.93,701.11,156.16,702.35 C156.29,702.47,156.29,702.49,156.29,702.52 C156.29,702.59,156.25,702.62,156.19,702.62 C156.09,702.62,155.19,701.95,154.6,700.68 C154.1,699.59,153.98,698.49,153.98,697.65 C153.98,696.88,154.09,695.68,154.63,694.55 C155.23,693.33,156.09,692.69,156.19,692.69 C156.25,692.69,156.29,692.72,156.29,692.79 Z " /><path
         id="path4203"
         style="font-style:normal;font-variant:normal;font-weight:normal;font-stretch:normal;letter-spacing:normal;word-spacing:normal;text-anchor:start;fill:#000000;fill-opacity:1;fill-rule:evenodd;stroke:#000000;stroke-linecap:butt;stroke-linejoin:miter;stroke-miterlimit:10.43299961;stroke-dasharray:none;stroke-dashoffset:0;stroke-opacity:1"
         word-spacing="normal"
         stroke-miterlimit="10.433"
         letter-spacing="normal"
         font-weight="normal"
         font-variant="normal"
         font-style="normal"
         font-stretch="normal"
         font-size-adjust="none"
         fill="black"
         stroke-width="0"
         d="M159.69,701.38 L159.69,701.4 L159.69,701.42 L159.69,701.43 L159.69,701.45 L159.68,701.47 L159.68,701.49 L159.67,701.5 L159.67,701.52 L159.66,701.53 L159.65,701.55 L159.65,701.56 L159.64,701.58 L159.63,701.59 L159.62,701.61 L159.61,701.62 L159.6,701.63 L159.58,701.64 L159.57,701.65 L159.56,701.67 L159.54,701.68 L159.53,701.68 L159.51,701.69 L159.5,701.7 L159.48,701.71 L159.46,701.71 L159.44,701.72 L159.43,701.72 L159.41,701.73 L159.39,701.73 L159.37,701.73 L159.35,701.74 L159.32,701.74 C159.06,701.74,158.79,701.48,158.79,701.21 C158.79,701.02,158.93,700.85,159.17,700.85 C159.4,700.85,159.69,701.08,159.69,701.38 Z " /><path
         id="path4205"
         style="font-style:normal;font-variant:normal;font-weight:normal;font-stretch:normal;letter-spacing:normal;word-spacing:normal;text-anchor:start;fill:#000000;fill-opacity:1;fill-rule:evenodd;stroke:#000000;stroke-linecap:butt;stroke-linejoin:miter;stroke-miterlimit:10.43299961;stroke-dasharray:none;stroke-dashoffset:0;stroke-opacity:1"
         word-spacing="normal"
         stroke-miterlimit="10.433"
         letter-spacing="normal"
         font-weight="normal"
         font-variant="normal"
         font-style="normal"
         font-stretch="normal"
         font-size-adjust="none"
         fill="black"
         stroke-width="0"
         d="M158.94,697.64 L158.95,697.67 L158.96,697.69 L158.97,697.72 L158.98,697.74 L158.98,697.76 L158.99,697.78 L159,697.8 L159.01,697.82 L159.01,697.83 L159.02,697.85 L159.03,697.87 L159.03,697.88 L159.04,697.9 L159.04,697.91 L159.05,697.94 L159.06,697.97 L159.07,698 L159.08,698.01 L159.08,698.03 L159.09,698.04 L159.1,698.06 L159.1,698.07 L159.11,698.09 L159.12,698.11 L159.12,698.13 L159.13,698.15 L159.14,698.17 L159.15,698.2 L159.16,698.22 C159.24,698.42,159.29,698.56,159.29,698.75 C159.29,699.19,158.97,699.56,158.47,699.56 C157.53,699.56,157.15,698.12,157.15,698.03 C157.15,697.93,157.25,697.93,157.27,697.93 C157.37,697.93,157.38,697.95,157.43,698.11 C157.7,699.04,158.1,699.34,158.44,699.34 C158.52,699.34,158.69,699.34,158.69,699.02 C158.69,698.82,158.62,698.61,158.58,698.51 C158.5,698.25,158.05,697.1,157.89,696.67 C157.79,696.41,157.66,696.08,157.66,695.88 C157.66,695.41,158,695.06,158.48,695.06 C159.41,695.06,159.78,696.5,159.78,696.59 C159.78,696.69,159.69,696.69,159.66,696.69 C159.56,696.69,159.56,696.66,159.51,696.51 C159.34,695.89,159.01,695.28,158.5,695.28 C158.33,695.28,158.26,695.38,158.26,695.61 C158.26,695.85,158.32,695.99,158.55,696.6 Z " /><path
         id="path4207"
         style="font-style:normal;font-variant:normal;font-weight:normal;font-stretch:normal;letter-spacing:normal;word-spacing:normal;text-anchor:start;fill:#000000;fill-opacity:1;fill-rule:evenodd;stroke:#000000;stroke-linecap:butt;stroke-linejoin:miter;stroke-miterlimit:10.43299961;stroke-dasharray:none;stroke-dashoffset:0;stroke-opacity:1"
         word-spacing="normal"
         stroke-miterlimit="10.433"
         letter-spacing="normal"
         font-weight="normal"
         font-variant="normal"
         font-style="normal"
         font-stretch="normal"
         font-size-adjust="none"
         fill="black"
         stroke-width="0"
         d="M163.18,697.65 L163.18,697.73 L163.18,697.8 L163.17,697.88 L163.17,697.96 L163.16,698.13 L163.15,698.31 L163.13,698.49 L163.11,698.68 L163.09,698.87 L163.05,699.07 L163.01,699.28 L162.97,699.48 L162.91,699.69 L162.85,699.9 L162.78,700.12 L162.7,700.33 L162.66,700.44 L162.62,700.54 L162.57,700.65 L162.52,700.75 C161.92,701.97,161.06,702.62,160.96,702.62 C160.9,702.62,160.86,702.58,160.86,702.52 C160.86,702.49,160.86,702.47,161.05,702.29 C162.03,701.31,162.6,699.73,162.6,697.65 C162.6,695.96,162.23,694.21,160.99,692.96 C160.86,692.84,160.86,692.82,160.86,692.79 C160.86,692.73,160.9,692.69,160.96,692.69 C161.06,692.69,161.96,693.36,162.55,694.62 C163.06,695.72,163.18,696.82,163.18,697.65 Z " /><path
         id="path4209"
         style="font-style:normal;font-variant:normal;font-weight:normal;font-stretch:normal;letter-spacing:normal;word-spacing:normal;text-anchor:start;fill:#000000;fill-opacity:1;fill-rule:evenodd;stroke:#000000;stroke-linecap:butt;stroke-linejoin:miter;stroke-miterlimit:10.43299961;stroke-dasharray:none;stroke-dashoffset:0;stroke-opacity:1"
         word-spacing="normal"
         stroke-miterlimit="10.433"
         letter-spacing="normal"
         font-weight="normal"
         font-variant="normal"
         font-style="normal"
         font-stretch="normal"
         font-size-adjust="none"
         fill="black"
         stroke-width="0"
         d="M168.85,698.92 L168.85,698.95 L168.85,698.98 L168.85,699 L168.84,699.03 L168.84,699.06 L168.83,699.08 L168.82,699.1 L168.81,699.13 L168.8,699.15 L168.79,699.17 L168.78,699.2 L168.76,699.22 L168.75,699.24 L168.73,699.26 L168.72,699.28 L168.7,699.3 L168.68,699.31 L168.66,699.33 L168.64,699.35 L168.62,699.36 L168.6,699.37 L168.58,699.39 L168.55,699.4 L168.53,699.41 L168.51,699.42 L168.48,699.43 L168.46,699.43 L168.43,699.44 L168.4,699.44 L168.38,699.45 L168.35,699.45 L168.32,699.45 C168.04,699.45,167.8,699.21,167.8,698.92 C167.8,698.64,168.04,698.4,168.32,698.4 C168.61,698.4,168.85,698.64,168.85,698.92 Z " /><path
         id="path4211"
         style="font-style:normal;font-variant:normal;font-weight:normal;font-stretch:normal;letter-spacing:normal;word-spacing:normal;text-anchor:start;fill:#000000;fill-opacity:1;fill-rule:evenodd;stroke:#000000;stroke-linecap:butt;stroke-linejoin:miter;stroke-miterlimit:10.43299961;stroke-dasharray:none;stroke-dashoffset:0;stroke-opacity:1"
         word-spacing="normal"
         stroke-miterlimit="10.433"
         letter-spacing="normal"
         font-weight="normal"
         font-variant="normal"
         font-style="normal"
         font-stretch="normal"
         font-size-adjust="none"
         fill="black"
         stroke-width="0"
         d="M168.85,695.7 L168.85,695.72 L168.85,695.75 L168.85,695.78 L168.84,695.8 L168.84,695.83 L168.83,695.85 L168.82,695.88 L168.81,695.9 L168.8,695.92 L168.79,695.95 L168.78,695.97 L168.76,695.99 L168.75,696.01 L168.73,696.03 L168.72,696.05 L168.7,696.07 L168.68,696.09 L168.66,696.1 L168.64,696.12 L168.62,696.13 L168.6,696.15 L168.58,696.16 L168.55,696.17 L168.53,696.18 L168.51,696.19 L168.48,696.2 L168.46,696.21 L168.43,696.21 L168.4,696.22 L168.38,696.22 L168.35,696.22 L168.32,696.22 C168.04,696.22,167.8,695.98,167.8,695.7 C167.8,695.41,168.04,695.17,168.32,695.17 C168.61,695.17,168.85,695.41,168.85,695.7 Z " /><path
         id="path4213"
         style="font-style:normal;font-variant:normal;font-weight:normal;font-stretch:normal;letter-spacing:normal;word-spacing:normal;text-anchor:start;fill:#000000;fill-opacity:1;fill-rule:evenodd;stroke:#000000;stroke-linecap:butt;stroke-linejoin:miter;stroke-miterlimit:10.43299961;stroke-dasharray:none;stroke-dashoffset:0;stroke-opacity:1"
         word-spacing="normal"
         stroke-miterlimit="10.433"
         letter-spacing="normal"
         font-weight="normal"
         font-variant="normal"
         font-style="normal"
         font-stretch="normal"
         font-size-adjust="none"
         fill="black"
         stroke-width="0"
         d="M176.56,698.42 L176.59,698.42 L176.61,698.42 L176.64,698.42 L176.66,698.42 L176.67,698.42 L176.69,698.42 L176.7,698.42 L176.72,698.43 L176.73,698.43 L176.74,698.43 L176.76,698.43 L176.77,698.44 L176.78,698.44 L176.8,698.45 L176.81,698.45 L176.82,698.46 L176.83,698.47 L176.84,698.47 L176.85,698.48 L176.86,698.49 L176.86,698.5 L176.87,698.51 L176.87,698.51 L176.88,698.52 L176.88,698.52 L176.88,698.53 L176.88,698.54 L176.89,698.54 L176.89,698.55 L176.89,698.56 L176.89,698.57 L176.89,698.57 L176.89,698.58 L176.9,698.59 L176.9,698.6 L176.9,698.61 L176.9,698.62 C176.9,698.82,176.71,698.82,176.57,698.82 H170.59 C170.46,698.82,170.26,698.82,170.26,698.62 C170.26,698.42,170.46,698.42,170.6,698.42 Z " /><path
         id="path4215"
         style="font-style:normal;font-variant:normal;font-weight:normal;font-stretch:normal;letter-spacing:normal;word-spacing:normal;text-anchor:start;fill:#000000;fill-opacity:1;fill-rule:evenodd;stroke:#000000;stroke-linecap:butt;stroke-linejoin:miter;stroke-miterlimit:10.43299961;stroke-dasharray:none;stroke-dashoffset:0;stroke-opacity:1"
         word-spacing="normal"
         stroke-miterlimit="10.433"
         letter-spacing="normal"
         font-weight="normal"
         font-variant="normal"
         font-style="normal"
         font-stretch="normal"
         font-size-adjust="none"
         fill="black"
         stroke-width="0"
         d="M176.57,696.49 L176.58,696.49 L176.59,696.49 L176.62,696.49 L176.65,696.49 L176.66,696.49 L176.68,696.49 L176.69,696.5 L176.71,696.5 L176.72,696.5 L176.73,696.5 L176.75,696.5 L176.76,696.51 L176.77,696.51 L176.78,696.52 L176.8,696.52 L176.81,696.53 L176.82,696.53 L176.83,696.54 L176.84,696.55 L176.85,696.56 L176.86,696.56 L176.86,696.57 L176.87,696.57 L176.87,696.58 L176.87,696.59 L176.88,696.59 L176.88,696.6 L176.88,696.6 L176.88,696.61 L176.89,696.62 L176.89,696.62 L176.89,696.63 L176.89,696.64 L176.89,696.65 L176.89,696.65 L176.9,696.66 L176.9,696.67 L176.9,696.68 L176.9,696.69 C176.9,696.89,176.71,696.89,176.56,696.89 H170.6 C170.46,696.89,170.26,696.89,170.26,696.69 C170.26,696.49,170.46,696.49,170.59,696.49 Z " /><path
         id="path4217"
         style="font-style:normal;font-variant:normal;font-weight:normal;font-stretch:normal;letter-spacing:normal;word-spacing:normal;text-anchor:start;fill:#000000;fill-opacity:1;fill-rule:evenodd;stroke:#000000;stroke-linecap:butt;stroke-linejoin:miter;stroke-miterlimit:10.43299961;stroke-dasharray:none;stroke-dashoffset:0;stroke-opacity:1"
         word-spacing="normal"
         stroke-miterlimit="10.433"
         letter-spacing="normal"
         font-weight="normal"
         font-variant="normal"
         font-style="normal"
         font-stretch="normal"
         font-size-adjust="none"
         fill="black"
         stroke-width="0"
         d="M185.95,700.82 L185.95,700.89 L185.95,700.96 L185.94,701.03 L185.93,701.09 L185.91,701.16 L185.9,701.22 L185.88,701.29 L185.86,701.35 L185.83,701.41 L185.8,701.47 L185.77,701.52 L185.74,701.58 L185.7,701.63 L185.66,701.68 L185.62,701.73 L185.58,701.78 L185.53,701.83 L185.48,701.87 L185.43,701.91 L185.38,701.95 L185.33,701.98 L185.27,702.02 L185.21,702.05 L185.15,702.08 L185.09,702.1 L185.02,702.12 L184.96,702.14 L184.89,702.16 L184.82,702.17 L184.75,702.18 L184.67,702.18 L184.6,702.18 C184.02,702.18,183.74,702.02,183.39,701.77 C182.84,701.37,182.29,700.41,182.1,699.65 L180.52,693.34 C180.51,693.3,180.56,693.24,180.64,693.24 C180.72,693.24,180.75,693.26,180.76,693.29 L181.46,696.03 C181.65,695.44,182.09,695.07,182.81,695.07 L182.78,695.29 C182.02,695.29,181.65,695.86,181.65,696.57 C181.65,696.67,181.65,696.82,181.7,697.01 L182.33,699.52 C182.55,700.38,183.27,701.96,184.47,701.96 C185.05,701.96,185.4,701.65,185.4,701.05 H185.4 C185.4,700.35,185.02,699.64,184.5,699.33 C184.23,699.43,184.03,699.45,183.73,699.45 C183.52,699.45,182.96,699.46,182.96,699.13 C182.95,698.85,183.47,698.89,183.65,698.89 L183.68,699.1 C183.54,699.1,183.34,699.09,183.24,699.14 C183.26,699.24,183.62,699.22,183.73,699.22 C183.94,699.22,184.03,699.22,184.16,699.17 H184.16 C184.03,699.12,183.92,699.1,183.68,699.1 L183.65,698.89 C184.02,698.89,184.17,698.9,184.47,699.01 C184.85,698.66,184.9,698.35,184.91,697.89 C184.93,697.32,184.69,696.57,184.41,696.18 C184.02,695.65,183.35,695.29,182.78,695.29 L182.81,695.07 C183.54,695.07,184.29,695.42,184.74,695.85 C185.22,696.31,185.54,696.95,185.54,697.68 C185.54,698.4,185.17,698.91,184.81,699.16 C185.38,699.49,185.95,700.11,185.95,700.82 Z " /><path
         id="path4219"
         style="font-style:normal;font-variant:normal;font-weight:normal;font-stretch:normal;letter-spacing:normal;word-spacing:normal;text-anchor:start;fill:#000000;fill-opacity:1;fill-rule:evenodd;stroke:#000000;stroke-linecap:butt;stroke-linejoin:miter;stroke-miterlimit:10.43299961;stroke-dasharray:none;stroke-dashoffset:0;stroke-opacity:1"
         word-spacing="normal"
         stroke-miterlimit="10.433"
         letter-spacing="normal"
         font-weight="normal"
         font-variant="normal"
         font-style="normal"
         font-stretch="normal"
         font-size-adjust="none"
         fill="black"
         stroke-width="0"
         d="M187.65,695.93 L188.7,696.96 C190.26,698.33,190.86,698.86,190.86,699.86 C190.86,700.99,189.96,701.79,188.74,701.79 C187.62,701.79,186.88,700.87,186.88,699.99 C186.88,699.43,187.38,699.43,187.41,699.43 C187.58,699.43,187.93,699.55,187.93,699.96 C187.93,700.22,187.75,700.47,187.4,700.47 C187.32,700.47,187.3,700.47,187.27,700.47 C187.5,701.11,188.04,701.48,188.62,701.48 C189.52,701.48,189.95,700.67,189.95,699.86 C189.95,699.06,189.45,698.28,188.9,697.66 L186.99,695.54 C186.88,695.43,186.88,695.41,186.88,695.17 H190.58 L190.86,696.9 H190.61 C190.56,696.6,190.49,696.16,190.39,696.01 C190.32,695.93,189.66,695.93,189.44,695.93 Z " /><path
         id="path4221"
         style="font-style:normal;font-variant:normal;font-weight:normal;font-stretch:normal;letter-spacing:normal;word-spacing:normal;text-anchor:start;fill:#000000;fill-opacity:1;fill-rule:evenodd;stroke:#000000;stroke-linecap:butt;stroke-linejoin:miter;stroke-miterlimit:10.43299961;stroke-dasharray:none;stroke-dashoffset:0;stroke-opacity:1"
         word-spacing="normal"
         stroke-miterlimit="10.433"
         letter-spacing="normal"
         font-weight="normal"
         font-variant="normal"
         font-style="normal"
         font-stretch="normal"
         font-size-adjust="none"
         fill="black"
         stroke-width="0"
         d="M194.19,700.77 L194.25,700.62 L194.32,700.47 L194.39,700.31 L194.45,700.16 L194.52,700 L194.58,699.85 L194.61,699.78 L194.64,699.7 L194.67,699.63 L194.7,699.56 L194.73,699.5 L194.76,699.43 L194.78,699.37 L194.81,699.31 L194.83,699.25 L194.86,699.2 L194.88,699.15 L194.9,699.1 L194.92,699.06 L194.94,699.02 L194.95,698.99 L194.97,698.96 L194.98,698.93 L194.99,698.91 L195,698.89 L195.01,698.88 C195.15,698.72,195.27,698.72,195.38,698.72 H195.52 C195.65,698.72,195.73,698.72,195.73,698.8 C195.73,698.83,195.7,698.85,195.69,698.87 C195.61,698.95,195.54,699.1,195.51,699.17 L193.8,703.17 C193.75,703.3,193.61,703.61,192.87,703.61 C192.79,703.61,192.69,703.61,192.69,703.51 C192.69,703.43,192.76,703.42,192.79,703.42 C192.94,703.4,193.07,703.37,193.25,702.98 L194.08,701.03 L192.02,699.18 C191.93,699.11,191.88,699.06,191.88,698.94 C191.88,698.77,192.02,698.7,192.12,698.7 C192.25,698.7,192.33,698.79,192.35,698.81 Z " /><path
         id="path4223"
         style="font-style:normal;font-variant:normal;font-weight:normal;font-stretch:normal;letter-spacing:normal;word-spacing:normal;text-anchor:start;fill:#000000;fill-opacity:1;fill-rule:evenodd;stroke:#000000;stroke-linecap:butt;stroke-linejoin:miter;stroke-miterlimit:10.43299961;stroke-dasharray:none;stroke-dashoffset:0;stroke-opacity:1"
         word-spacing="normal"
         stroke-miterlimit="10.433"
         letter-spacing="normal"
         font-weight="normal"
         font-variant="normal"
         font-style="normal"
         font-stretch="normal"
         font-size-adjust="none"
         fill="black"
         stroke-width="0"
         d="M198.05,700.89 L198.05,700.9 L198.05,700.91 L198.05,700.92 L198.05,700.93 L198.05,700.94 L198.04,700.95 L198.04,700.96 L198.04,700.97 L198.03,700.98 L198.03,700.99 L198.02,701 L198.02,701.01 L198.01,701.02 L198.01,701.02 L198,701.03 L197.99,701.04 L197.99,701.05 L197.98,701.05 L197.97,701.06 L197.96,701.07 L197.95,701.07 L197.94,701.08 L197.93,701.08 L197.92,701.09 L197.91,701.09 L197.9,701.09 L197.89,701.1 L197.88,701.1 L197.87,701.1 L197.86,701.1 L197.85,701.1 L197.84,701.1 C197.7,701.1,197.53,700.97,197.53,700.8 C197.53,700.66,197.64,700.59,197.75,700.59 C197.91,700.59,198.05,700.74,198.05,700.89 Z " /><path
         id="path4225"
         style="font-style:normal;font-variant:normal;font-weight:normal;font-stretch:normal;letter-spacing:normal;word-spacing:normal;text-anchor:start;fill:#000000;fill-opacity:1;fill-rule:evenodd;stroke:#000000;stroke-linecap:butt;stroke-linejoin:miter;stroke-miterlimit:10.43299961;stroke-dasharray:none;stroke-dashoffset:0;stroke-opacity:1"
         word-spacing="normal"
         stroke-miterlimit="10.433"
         letter-spacing="normal"
         font-weight="normal"
         font-variant="normal"
         font-style="normal"
         font-stretch="normal"
         font-size-adjust="none"
         fill="black"
         stroke-width="0"
         d="M198.29,698.5 L198.29,698.51 L198.29,698.51 L198.29,698.51 L198.29,698.52 L198.29,698.52 L198.28,698.52 L198.28,698.52 L198.28,698.53 L198.28,698.53 L198.28,698.53 L198.28,698.53 L198.28,698.54 L198.28,698.54 L198.28,698.54 L198.28,698.54 L198.27,698.54 L198.27,698.55 L198.27,698.55 L198.27,698.55 L198.27,698.55 L198.26,698.55 L198.26,698.56 L198.26,698.56 L198.25,698.56 L198.25,698.56 L198.24,698.57 L198.24,698.57 L198.23,698.57 L198.23,698.57 L198.22,698.57 L198.22,698.57 L198.22,698.57 L198.21,698.57 L198.21,698.57 L198.2,698.57 L198.2,698.57 L198.2,698.57 L198.19,698.57 L198.19,698.57 L198.19,698.57 L198.19,698.57 L198.18,698.57 C198.1,698.57,198.09,698.55,198.06,698.46 C197.98,698.19,197.76,697.9,197.51,697.9 C197.39,697.9,197.36,697.98,197.36,698.09 C197.36,698.2,197.38,698.25,197.42,698.34 C197.46,698.45,197.5,698.54,197.53,698.61 C197.55,698.66,197.74,699.12,197.81,699.3 C197.85,699.4,197.88,699.46,197.88,699.55 C197.88,699.79,197.65,699.98,197.34,699.98 C196.82,699.98,196.54,699.35,196.54,699.21 C196.54,699.15,196.62,699.15,196.64,699.15 C196.73,699.15,196.73,699.17,196.76,699.24 C196.87,699.6,197.1,699.82,197.32,699.82 C197.41,699.82,197.47,699.76,197.47,699.63 C197.47,699.61,197.47,699.54,197.44,699.45 C197.4,699.36,197.18,698.83,197.11,698.66 C197.07,698.57,197.07,698.56,197,698.4 C196.98,698.33,196.95,698.26,196.95,698.17 C196.95,697.91,197.19,697.73,197.49,697.73 C198.01,697.73,198.29,698.38,198.29,698.5 Z " /><path
         id="path4227"
         style="font-style:normal;font-variant:normal;font-weight:normal;font-stretch:normal;letter-spacing:normal;word-spacing:normal;text-anchor:start;fill:#000000;fill-opacity:1;fill-rule:evenodd;stroke:#000000;stroke-linecap:butt;stroke-linejoin:miter;stroke-miterlimit:10.43299961;stroke-dasharray:none;stroke-dashoffset:0;stroke-opacity:1"
         word-spacing="normal"
         stroke-miterlimit="10.433"
         letter-spacing="normal"
         font-weight="normal"
         font-variant="normal"
         font-style="normal"
         font-stretch="normal"
         font-size-adjust="none"
         fill="black"
         stroke-width="0"
         d="M208.98,701.19 L208.98,701.22 L208.99,701.25 L209,701.28 L209.01,701.31 L209.02,701.34 L209.02,701.37 L209.03,701.39 L209.04,701.41 L209.05,701.43 L209.06,701.45 L209.08,701.47 L209.09,701.49 L209.1,701.51 L209.12,701.52 L209.14,701.54 L209.16,701.55 L209.18,701.57 L209.2,701.58 L209.23,701.59 L209.26,701.6 L209.29,701.61 L209.3,701.61 L209.32,701.61 L209.34,701.62 L209.36,701.62 L209.38,701.62 L209.4,701.63 L209.42,701.63 L209.44,701.63 L209.46,701.63 L209.48,701.64 L209.51,701.64 L209.53,701.64 L209.56,701.64 L209.59,701.64 L209.61,701.64 L209.64,701.64 L209.67,701.65 L209.7,701.65 L209.73,701.65 L209.77,701.65 L209.8,701.65 L209.83,701.65 C210.06,701.65,210.15,701.65,210.15,701.85 C210.15,701.96,210.05,701.96,209.88,701.96 H208.57 C208.31,701.96,208.3,701.96,208.18,701.77 L204.54,696.1 L203.76,701.73 C203.73,701.96,203.71,701.96,203.45,701.96 H202.09 C201.9,701.96,201.79,701.96,201.79,701.77 C201.79,701.65,201.88,701.65,202.07,701.65 C202.21,701.65,202.38,701.64,202.5,701.63 C202.66,701.61,202.72,701.58,202.72,701.47 C202.72,701.43,202.71,701.4,202.68,701.28 L201.42,696.22 C201.32,695.83,201.15,695.51,200.34,695.48 C200.29,695.48,200.16,695.47,200.16,695.29 C200.16,695.2,200.22,695.17,200.3,695.17 C200.62,695.17,200.97,695.2,201.3,695.2 C201.64,695.2,202,695.17,202.32,695.17 C202.38,695.17,202.5,695.17,202.5,695.37 C202.5,695.48,202.4,695.48,202.32,695.48 C201.76,695.49,201.65,695.69,201.65,695.91 C201.65,695.98,201.66,696.03,201.69,696.14 L203.04,701.56 H203.05 L203.91,695.4 C203.93,695.28,203.94,695.17,204.06,695.17 C204.17,695.17,204.23,695.28,204.28,695.35 L208.31,701.64 H208.32 L206.89,695.95 C206.79,695.56,206.77,695.48,205.98,695.48 C205.82,695.48,205.71,695.48,205.71,695.29 C205.71,695.17,205.82,695.17,205.85,695.17 C206.13,695.17,206.81,695.2,207.09,695.2 C207.5,695.2,207.93,695.17,208.34,695.17 C208.4,695.17,208.53,695.17,208.53,695.37 C208.53,695.48,208.44,695.48,208.25,695.48 C207.88,695.48,207.6,695.48,207.6,695.66 C207.6,695.7,207.6,695.72,207.65,695.9 Z " /></g>  </g>
</svg>
