<?xml version="1.0" encoding="UTF-8" standalone="no"?>
<!-- Created with Inkscape (http://www.inkscape.org/) -->

<svg
   xmlns:ns0="http://www.iki.fi/pav/software/textext/"
   xmlns:dc="http://purl.org/dc/elements/1.1/"
   xmlns:cc="http://creativecommons.org/ns#"
   xmlns:rdf="http://www.w3.org/1999/02/22-rdf-syntax-ns#"
   xmlns:svg="http://www.w3.org/2000/svg"
   xmlns="http://www.w3.org/2000/svg"
   xmlns:sodipodi="http://sodipodi.sourceforge.net/DTD/sodipodi-0.dtd"
   xmlns:inkscape="http://www.inkscape.org/namespaces/inkscape"
   width="161.23476mm"
   height="71.678627mm"
   viewBox="0 0 571.30426 253.97938"
   id="svg5452"
   version="1.1"
   inkscape:version="0.91 r13725"
   sodipodi:docname="FractionalAssignment3.svg">
  <sodipodi:namedview
     id="base"
     pagecolor="#ffffff"
     bordercolor="#666666"
     borderopacity="1.0"
     inkscape:pageopacity="0.0"
     inkscape:pageshadow="2"
     inkscape:zoom="0.98994949"
     inkscape:cx="129.83946"
     inkscape:cy="188.43954"
     inkscape:document-units="px"
     inkscape:current-layer="layer1"
     showgrid="false"
     inkscape:snap-object-midpoints="false"
     inkscape:window-width="1205"
     inkscape:window-height="697"
     inkscape:window-x="67"
     inkscape:window-y="675"
     inkscape:window-maximized="1"
     fit-margin-top="0"
     fit-margin-left="0"
     fit-margin-right="0"
     fit-margin-bottom="0" />
  <defs
     id="defs5454" />
  <metadata
     id="metadata5457">
    <rdf:RDF>
      <cc:Work
         rdf:about="">
        <dc:format>image/svg+xml</dc:format>
        <dc:type
           rdf:resource="http://purl.org/dc/dcmitype/StillImage" />
        <dc:title></dc:title>
      </cc:Work>
    </rdf:RDF>
  </metadata>
  <g
     transform="translate(11.105537,-128.59203)"
     id="layer1"
     inkscape:groupmode="layer"
     inkscape:label="Ebene 1">
    <g
       style="font-style:normal;font-variant:normal;font-weight:normal;font-stretch:normal;letter-spacing:normal;word-spacing:normal;text-anchor:start;fill:#000000;fill-opacity:1;fill-rule:evenodd;stroke:#000000;stroke-linecap:butt;stroke-linejoin:miter;stroke-miterlimit:10.43299961;stroke-dasharray:none;stroke-dashoffset:0;stroke-opacity:1"
       ns0:preamble="default_packages.tex"
       ns0:text="\\textsf{(Zeit-)Budget:}\n\n$b(i) := \\beta2^{\\lambda_i}M$\n\n\n\n\n\n\n\n"
       word-spacing="normal"
       letter-spacing="normal"
       font-size-adjust="none"
       font-stretch="normal"
       font-weight="normal"
       font-variant="normal"
       font-style="normal"
       stroke-miterlimit="10.433"
       xml:space="preserve"
       transform="matrix(2,0,0,-2,130.59524,1662.0325)"
       id="g6096"><path
         id="path6098"
         style="font-style:normal;font-variant:normal;font-weight:normal;font-stretch:normal;letter-spacing:normal;word-spacing:normal;text-anchor:start;fill:#000000;fill-opacity:1;fill-rule:evenodd;stroke:#000000;stroke-width:0;stroke-linecap:butt;stroke-linejoin:miter;stroke-miterlimit:10.43299961;stroke-dasharray:none;stroke-dashoffset:0;stroke-opacity:1"
         word-spacing="normal"
         stroke-miterlimit="10.433"
         letter-spacing="normal"
         font-weight="normal"
         font-variant="normal"
         font-style="normal"
         font-stretch="normal"
         font-size-adjust="none"
         d="m 151.41,714.58 -0.03,-0.03 -0.03,-0.03 -0.03,-0.04 -0.04,-0.03 -0.04,-0.04 -0.04,-0.04 -0.04,-0.04 -0.04,-0.04 -0.05,-0.05 -0.04,-0.04 -0.05,-0.05 -0.04,-0.06 -0.05,-0.05 -0.05,-0.06 -0.05,-0.06 -0.05,-0.06 -0.05,-0.07 -0.05,-0.06 -0.05,-0.08 -0.05,-0.07 -0.05,-0.08 -0.05,-0.08 -0.05,-0.08 -0.05,-0.08 -0.05,-0.09 -0.04,-0.1 -0.05,-0.09 -0.05,-0.1 -0.05,-0.1 -0.04,-0.11 -0.05,-0.11 -0.04,-0.11 c -0.4,-1.06 -0.47,-2.12 -0.47,-2.84 0,-3.21 1.44,-4.53 1.91,-4.97 l 0.61,0 c -0.48,0.48 -1.74,1.76 -1.74,4.97 0,0.55 0.03,1.72 0.44,2.89 0.41,1.15 0.97,1.75 1.3,2.08 z"
         inkscape:connector-curvature="0" /><path
         id="path6100"
         style="font-style:normal;font-variant:normal;font-weight:normal;font-stretch:normal;letter-spacing:normal;word-spacing:normal;text-anchor:start;fill:#000000;fill-opacity:1;fill-rule:evenodd;stroke:#000000;stroke-width:0;stroke-linecap:butt;stroke-linejoin:miter;stroke-miterlimit:10.43299961;stroke-dasharray:none;stroke-dashoffset:0;stroke-opacity:1"
         word-spacing="normal"
         stroke-miterlimit="10.433"
         letter-spacing="normal"
         font-weight="normal"
         font-variant="normal"
         font-style="normal"
         font-stretch="normal"
         font-size-adjust="none"
         d="m 158.11,713.61 0,0.41 -4.84,0 0,-0.62 2,0 c 0.12,0 0.24,0.01 0.36,0.01 l 1.35,0 -3.83,-5.86 0,-0.42 5.02,0 0,0.65 -0.96,0 c -0.86,0 -1.75,-0.02 -2.62,-0.02 l -0.32,0 z"
         inkscape:connector-curvature="0" /><path
         id="path6102"
         style="font-style:normal;font-variant:normal;font-weight:normal;font-stretch:normal;letter-spacing:normal;word-spacing:normal;text-anchor:start;fill:#000000;fill-opacity:1;fill-rule:evenodd;stroke:#000000;stroke-width:0;stroke-linecap:butt;stroke-linejoin:miter;stroke-miterlimit:10.43299961;stroke-dasharray:none;stroke-dashoffset:0;stroke-opacity:1"
         word-spacing="normal"
         stroke-miterlimit="10.433"
         letter-spacing="normal"
         font-weight="normal"
         font-variant="normal"
         font-style="normal"
         font-stretch="normal"
         font-size-adjust="none"
         d="m 162.8,709.3 0,0.03 0,0.04 0,0.04 0,0.03 0,0.05 0,0.04 0,0.04 0,0.05 -0.01,0.05 0,0.05 -0.01,0.05 0,0.05 -0.01,0.06 0,0.05 -0.01,0.06 -0.01,0.05 -0.01,0.06 -0.01,0.06 -0.01,0.06 -0.02,0.05 -0.01,0.06 -0.02,0.06 -0.02,0.06 -0.02,0.06 -0.02,0.06 -0.02,0.06 -0.03,0.06 -0.03,0.06 -0.03,0.06 -0.03,0.06 -0.03,0.05 -0.04,0.06 c -0.41,0.61 -1.01,0.73 -1.37,0.73 -1.11,0 -2.01,-1.06 -2.01,-2.34 0,-1.31 0.96,-2.35 2.16,-2.35 0.63,0 1.19,0.23 1.58,0.51 l -0.06,0.65 c -0.63,-0.52 -1.28,-0.56 -1.51,-0.56 -0.8,0 -1.44,0.71 -1.47,1.68 l 0.05,0.55 c 0.16,0.75 0.69,1.25 1.26,1.25 0.52,0 1.07,-0.34 1.21,-1.25 l -2.47,0 -0.05,-0.55 z"
         inkscape:connector-curvature="0" /><polygon
         id="polygon6104"
         style="font-style:normal;font-variant:normal;font-weight:normal;font-stretch:normal;letter-spacing:normal;word-spacing:normal;text-anchor:start;fill:#000000;fill-opacity:1;fill-rule:evenodd;stroke:#000000;stroke-width:0;stroke-linecap:butt;stroke-linejoin:miter;stroke-miterlimit:10.43299961;stroke-dasharray:none;stroke-dashoffset:0;stroke-opacity:1"
         word-spacing="normal"
         stroke-miterlimit="10.433"
         letter-spacing="normal"
         font-weight="normal"
         font-variant="normal"
         font-style="normal"
         font-stretch="normal"
         font-size-adjust="none"
         points="163.84,713.88 163.84,713 164.73,713 164.73,713.88 " /><polygon
         id="polygon6106"
         style="font-style:normal;font-variant:normal;font-weight:normal;font-stretch:normal;letter-spacing:normal;word-spacing:normal;text-anchor:start;fill:#000000;fill-opacity:1;fill-rule:evenodd;stroke:#000000;stroke-width:0;stroke-linecap:butt;stroke-linejoin:miter;stroke-miterlimit:10.43299961;stroke-dasharray:none;stroke-dashoffset:0;stroke-opacity:1"
         word-spacing="normal"
         stroke-miterlimit="10.433"
         letter-spacing="normal"
         font-weight="normal"
         font-variant="normal"
         font-style="normal"
         font-stretch="normal"
         font-size-adjust="none"
         points="163.91,711.54 163.91,707.13 164.66,707.13 164.66,711.54 " /><path
         id="path6108"
         style="font-style:normal;font-variant:normal;font-weight:normal;font-stretch:normal;letter-spacing:normal;word-spacing:normal;text-anchor:start;fill:#000000;fill-opacity:1;fill-rule:evenodd;stroke:#000000;stroke-width:0;stroke-linecap:butt;stroke-linejoin:miter;stroke-miterlimit:10.43299961;stroke-dasharray:none;stroke-dashoffset:0;stroke-opacity:1"
         word-spacing="normal"
         stroke-miterlimit="10.433"
         letter-spacing="normal"
         font-weight="normal"
         font-variant="normal"
         font-style="normal"
         font-stretch="normal"
         font-size-adjust="none"
         d="m 167.23,710.96 1.4,0 0,0.58 -1.4,0 0,1.26 -0.69,0 0,-1.26 -0.87,0 0,-0.58 0.84,0 0,-2.65 c 0,-0.6 0.14,-1.29 0.83,-1.29 0.7,0 1.2,0.24 1.45,0.37 l -0.16,0.59 c -0.26,-0.21 -0.58,-0.33 -0.89,-0.33 -0.37,0 -0.51,0.3 -0.51,0.83 z"
         inkscape:connector-curvature="0" /><polygon
         id="polygon6110"
         style="font-style:normal;font-variant:normal;font-weight:normal;font-stretch:normal;letter-spacing:normal;word-spacing:normal;text-anchor:start;fill:#000000;fill-opacity:1;fill-rule:evenodd;stroke:#000000;stroke-width:0;stroke-linecap:butt;stroke-linejoin:miter;stroke-miterlimit:10.43299961;stroke-dasharray:none;stroke-dashoffset:0;stroke-opacity:1"
         word-spacing="normal"
         stroke-miterlimit="10.433"
         letter-spacing="normal"
         font-weight="normal"
         font-variant="normal"
         font-style="normal"
         font-stretch="normal"
         font-size-adjust="none"
         points="171.83,709.62 169.19,709.62 169.19,709.04 171.83,709.04 " /><path
         id="path6112"
         style="font-style:normal;font-variant:normal;font-weight:normal;font-stretch:normal;letter-spacing:normal;word-spacing:normal;text-anchor:start;fill:#000000;fill-opacity:1;fill-rule:evenodd;stroke:#000000;stroke-width:0;stroke-linecap:butt;stroke-linejoin:miter;stroke-miterlimit:10.43299961;stroke-dasharray:none;stroke-dashoffset:0;stroke-opacity:1"
         word-spacing="normal"
         stroke-miterlimit="10.433"
         letter-spacing="normal"
         font-weight="normal"
         font-variant="normal"
         font-style="normal"
         font-stretch="normal"
         font-size-adjust="none"
         d="m 173.57,704.64 0.03,0.03 0.03,0.03 0.04,0.03 0.03,0.04 0.04,0.04 0.04,0.03 0.04,0.05 0.04,0.04 0.05,0.04 0.04,0.05 0.05,0.05 0.04,0.05 0.05,0.06 0.05,0.06 0.05,0.06 0.05,0.06 0.05,0.06 0.05,0.07 0.05,0.07 0.05,0.08 0.05,0.07 0.05,0.08 0.05,0.09 0.05,0.08 0.05,0.09 0.05,0.09 0.04,0.1 0.05,0.1 0.05,0.1 0.04,0.11 0.05,0.1 0.04,0.12 c 0.4,1.06 0.47,2.11 0.47,2.84 0,3.21 -1.44,4.53 -1.91,4.97 l -0.61,0 c 0.48,-0.48 1.74,-1.76 1.74,-4.97 0,-0.56 -0.03,-1.72 -0.44,-2.89 -0.4,-1.15 -0.97,-1.75 -1.3,-2.08 z"
         inkscape:connector-curvature="0" /><path
         id="path6114"
         style="font-style:normal;font-variant:normal;font-weight:normal;font-stretch:normal;letter-spacing:normal;word-spacing:normal;text-anchor:start;fill:#000000;fill-opacity:1;fill-rule:evenodd;stroke:#000000;stroke-width:0;stroke-linecap:butt;stroke-linejoin:miter;stroke-miterlimit:10.43299961;stroke-dasharray:none;stroke-dashoffset:0;stroke-opacity:1"
         word-spacing="normal"
         stroke-miterlimit="10.433"
         letter-spacing="normal"
         font-weight="normal"
         font-variant="normal"
         font-style="normal"
         font-stretch="normal"
         font-size-adjust="none"
         d="m 177.24,714.02 0,-6.89 2.63,0 c 1.44,0 2.49,0.89 2.49,1.86 0,0.87 -0.87,1.57 -1.93,1.74 0.91,0.23 1.66,0.81 1.66,1.56 0,0.92 -1.07,1.73 -2.49,1.73 l -0.27,-0.56 c 1.1,0 1.98,-0.52 1.98,-1.18 0,-0.6 -0.71,-1.27 -2.08,-1.27 l -1.16,0 0,-0.61 1.44,0 c 1.06,0 2.04,-0.6 2.04,-1.4 0,-0.74 -0.88,-1.32 -1.95,-1.32 l -1.53,0 0,2.72 0,0.61 0,2.45 1.26,0 0.27,0.56 z"
         inkscape:connector-curvature="0" /><path
         id="path6116"
         style="font-style:normal;font-variant:normal;font-weight:normal;font-stretch:normal;letter-spacing:normal;word-spacing:normal;text-anchor:start;fill:#000000;fill-opacity:1;fill-rule:evenodd;stroke:#000000;stroke-width:0;stroke-linecap:butt;stroke-linejoin:miter;stroke-miterlimit:10.43299961;stroke-dasharray:none;stroke-dashoffset:0;stroke-opacity:1"
         word-spacing="normal"
         stroke-miterlimit="10.433"
         letter-spacing="normal"
         font-weight="normal"
         font-variant="normal"
         font-style="normal"
         font-stretch="normal"
         font-size-adjust="none"
         d="m 187.25,711.54 -0.77,0 0,-2.88 c 0,-0.75 -0.56,-1.1 -1.2,-1.1 -0.71,0 -0.78,0.26 -0.78,0.69 l 0,3.29 -0.78,0 0,-3.33 c 0,-0.72 0.23,-1.19 1.06,-1.19 0.53,0 1.24,0.15 1.73,0.58 l 0,-0.47 0.74,0 z"
         inkscape:connector-curvature="0" /><path
         id="path6118"
         style="font-style:normal;font-variant:normal;font-weight:normal;font-stretch:normal;letter-spacing:normal;word-spacing:normal;text-anchor:start;fill:#000000;fill-opacity:1;fill-rule:evenodd;stroke:#000000;stroke-width:0;stroke-linecap:butt;stroke-linejoin:miter;stroke-miterlimit:10.43299961;stroke-dasharray:none;stroke-dashoffset:0;stroke-opacity:1"
         word-spacing="normal"
         stroke-miterlimit="10.433"
         letter-spacing="normal"
         font-weight="normal"
         font-variant="normal"
         font-style="normal"
         font-stretch="normal"
         font-size-adjust="none"
         d="m 192.39,714.02 -0.75,0 0,-2.92 c -0.52,0.44 -1.08,0.55 -1.45,0.55 -0.99,0 -1.77,-1.04 -1.77,-2.32 0,-1.3 0.77,-2.31 1.72,-2.31 0.33,0 0.92,0.08 1.47,0.62 l -0.32,0.26 c -0.23,-0.2 -0.48,-0.28 -0.74,-0.28 -0.62,0 -1.35,0.47 -1.35,1.7 0,1.31 0.86,1.72 1.45,1.72 0.45,0 0.75,-0.23 0.96,-0.55 l 0,-1.98 c 0,-0.14 -0.01,-0.32 -0.32,-0.61 l 0.32,-0.26 0,-0.51 0.78,0 z"
         inkscape:connector-curvature="0" /><path
         id="path6120"
         style="font-style:normal;font-variant:normal;font-weight:normal;font-stretch:normal;letter-spacing:normal;word-spacing:normal;text-anchor:start;fill:#000000;fill-opacity:1;fill-rule:evenodd;stroke:#000000;stroke-width:0;stroke-linecap:butt;stroke-linejoin:miter;stroke-miterlimit:10.43299961;stroke-dasharray:none;stroke-dashoffset:0;stroke-opacity:1"
         word-spacing="normal"
         stroke-miterlimit="10.433"
         letter-spacing="normal"
         font-weight="normal"
         font-variant="normal"
         font-style="normal"
         font-stretch="normal"
         font-size-adjust="none"
         d="m 196.72,711.01 0.04,0 0.05,0 0.04,0 0.05,0.01 0.04,0 0.05,0 0.05,0.01 0.04,0 0.1,0.01 0.05,0 0.04,0 0.05,0.01 0.05,0 0.04,0 0.05,0 c 0.18,0 0.57,-0.03 0.59,-0.03 l -0.11,0.63 c -0.7,0 -1.28,-0.19 -1.58,-0.32 -0.21,0.17 -0.54,0.32 -0.94,0.32 l 0,-0.57 c 0.42,0 0.89,-0.28 0.89,-1.05 0,-0.78 -0.47,-1.06 -0.89,-1.06 l 0,0 c -0.37,0 -0.89,0.23 -0.89,1.06 0,0.82 0.52,1.05 0.89,1.05 l 0,0.57 c -0.86,0 -1.59,-0.72 -1.59,-1.62 0,-0.37 0.13,-0.73 0.33,-0.99 -0.29,-0.4 -0.29,-0.79 -0.29,-0.84 0,-0.26 0.09,-0.55 0.26,-0.76 -0.52,-0.3 -0.64,-0.76 -0.64,-1.02 0,-0.75 0.99,-1.34 2.21,-1.34 l 0.01,0.57 c -0.81,0 -1.52,0.3 -1.52,0.77 0,0.03 0,0.67 0.78,0.67 l 0.89,0 c 0.22,0 1.35,0 1.35,-0.68 0,-0.44 -0.69,-0.76 -1.5,-0.76 l -0.01,-0.57 c 1.22,0 2.21,0.58 2.21,1.35 0,1.38 -1.67,1.38 -2.06,1.38 l -0.87,0 c -0.13,0 -0.58,0 -0.58,0.53 0,0.11 0.04,0.26 0.11,0.35 0.21,-0.14 0.54,-0.28 0.91,-0.28 0.89,0 1.59,0.73 1.59,1.62 0,0.47 -0.22,0.84 -0.33,0.99 z"
         inkscape:connector-curvature="0" /><path
         id="path6122"
         style="font-style:normal;font-variant:normal;font-weight:normal;font-stretch:normal;letter-spacing:normal;word-spacing:normal;text-anchor:start;fill:#000000;fill-opacity:1;fill-rule:evenodd;stroke:#000000;stroke-width:0;stroke-linecap:butt;stroke-linejoin:miter;stroke-miterlimit:10.43299961;stroke-dasharray:none;stroke-dashoffset:0;stroke-opacity:1"
         word-spacing="normal"
         stroke-miterlimit="10.433"
         letter-spacing="normal"
         font-weight="normal"
         font-variant="normal"
         font-style="normal"
         font-stretch="normal"
         font-size-adjust="none"
         d="m 202.32,709.3 0,0.03 0,0.04 0,0.04 0,0.03 0,0.05 0,0.04 0,0.04 -0.01,0.05 0,0.05 0,0.05 -0.01,0.05 0,0.05 -0.01,0.06 0,0.05 -0.01,0.06 -0.01,0.05 -0.01,0.06 -0.01,0.06 -0.02,0.06 -0.01,0.05 -0.02,0.06 -0.01,0.06 -0.02,0.06 -0.02,0.06 -0.02,0.06 -0.03,0.06 -0.02,0.06 -0.03,0.06 -0.03,0.06 -0.03,0.06 -0.03,0.05 -0.04,0.06 c -0.41,0.61 -1.01,0.73 -1.37,0.73 -1.11,0 -2.01,-1.06 -2.01,-2.34 0,-1.31 0.96,-2.35 2.16,-2.35 0.62,0 1.19,0.23 1.58,0.51 l -0.06,0.65 c -0.63,-0.52 -1.29,-0.56 -1.51,-0.56 -0.8,0 -1.44,0.71 -1.47,1.68 l 0.05,0.55 c 0.16,0.75 0.69,1.25 1.26,1.25 0.52,0 1.07,-0.34 1.2,-1.25 l -2.46,0 -0.05,-0.55 z"
         inkscape:connector-curvature="0" /><path
         id="path6124"
         style="font-style:normal;font-variant:normal;font-weight:normal;font-stretch:normal;letter-spacing:normal;word-spacing:normal;text-anchor:start;fill:#000000;fill-opacity:1;fill-rule:evenodd;stroke:#000000;stroke-width:0;stroke-linecap:butt;stroke-linejoin:miter;stroke-miterlimit:10.43299961;stroke-dasharray:none;stroke-dashoffset:0;stroke-opacity:1"
         word-spacing="normal"
         stroke-miterlimit="10.433"
         letter-spacing="normal"
         font-weight="normal"
         font-variant="normal"
         font-style="normal"
         font-stretch="normal"
         font-size-adjust="none"
         d="m 204.37,710.96 1.4,0 0,0.58 -1.4,0 0,1.26 -0.69,0 0,-1.26 -0.87,0 0,-0.58 0.84,0 0,-2.65 c 0,-0.6 0.14,-1.29 0.83,-1.29 0.69,0 1.2,0.24 1.45,0.37 l -0.16,0.59 c -0.26,-0.21 -0.58,-0.33 -0.9,-0.33 -0.36,0 -0.5,0.3 -0.5,0.83 z"
         inkscape:connector-curvature="0" /><polygon
         id="polygon6126"
         style="font-style:normal;font-variant:normal;font-weight:normal;font-stretch:normal;letter-spacing:normal;word-spacing:normal;text-anchor:start;fill:#000000;fill-opacity:1;fill-rule:evenodd;stroke:#000000;stroke-width:0;stroke-linecap:butt;stroke-linejoin:miter;stroke-miterlimit:10.43299961;stroke-dasharray:none;stroke-dashoffset:0;stroke-opacity:1"
         word-spacing="normal"
         stroke-miterlimit="10.433"
         letter-spacing="normal"
         font-weight="normal"
         font-variant="normal"
         font-style="normal"
         font-stretch="normal"
         font-size-adjust="none"
         points="207.18,711.54 207.18,710.71 208.01,710.71 208.01,711.54 " /><polygon
         id="polygon6128"
         style="font-style:normal;font-variant:normal;font-weight:normal;font-stretch:normal;letter-spacing:normal;word-spacing:normal;text-anchor:start;fill:#000000;fill-opacity:1;fill-rule:evenodd;stroke:#000000;stroke-width:0;stroke-linecap:butt;stroke-linejoin:miter;stroke-miterlimit:10.43299961;stroke-dasharray:none;stroke-dashoffset:0;stroke-opacity:1"
         word-spacing="normal"
         stroke-miterlimit="10.433"
         letter-spacing="normal"
         font-weight="normal"
         font-variant="normal"
         font-style="normal"
         font-stretch="normal"
         font-size-adjust="none"
         points="207.18,707.13 208.01,707.13 208.01,707.95 207.18,707.95 " /><path
         id="path6130"
         style="font-style:normal;font-variant:normal;font-weight:normal;font-stretch:normal;letter-spacing:normal;word-spacing:normal;text-anchor:start;fill:#000000;fill-opacity:1;fill-rule:evenodd;stroke:#000000;stroke-width:0;stroke-linecap:butt;stroke-linejoin:miter;stroke-miterlimit:10.43299961;stroke-dasharray:none;stroke-dashoffset:0;stroke-opacity:1"
         word-spacing="normal"
         stroke-miterlimit="10.433"
         letter-spacing="normal"
         font-weight="normal"
         font-variant="normal"
         font-style="normal"
         font-stretch="normal"
         font-size-adjust="none"
         d="m 151.1,701.96 0,0 -0.01,0 0,0 0,0 0,0 0,0.01 0,0 0,0 0,0.01 0,0 0,0 0,0.01 0,0 0,0.01 -0.01,0 0,0.01 0,0 0,0.01 -0.01,0 0,0.01 -0.01,0 0,0 0,0.01 0,0 -0.01,0 0,0 0,0 -0.01,0.01 0,0 0,0 -0.01,0 0,0 0,0 -0.01,0.01 0,0 -0.01,0 0,0 -0.01,0 0,0 -0.01,0 0,0 -0.01,0 0,0 -0.01,0 0,0 c -0.23,0 -0.96,-0.08 -1.22,-0.09 -0.08,-0.01 -0.19,-0.02 -0.19,-0.2 0,-0.12 0.09,-0.12 0.24,-0.12 0.48,0 0.5,-0.07 0.5,-0.17 0,-0.07 -0.09,-0.41 -0.14,-0.62 l -0.82,-3.24 c -0.12,-0.49 -0.16,-0.65 -0.16,-1 0,-0.94 0.53,-1.56 1.27,-1.56 l 0,0.22 c -0.34,0 -0.67,0.27 -0.67,1 0,0.19 0,0.38 0.16,1.01 l 0.22,0.91 c 0.06,0.22 0.06,0.24 0.15,0.35 0.49,0.64 0.93,0.79 1.19,0.79 0.36,0 0.63,-0.3 0.63,-0.93 0,-0.59 -0.33,-1.73 -0.51,-2.11 -0.33,-0.66 -0.78,-1.02 -1.17,-1.02 l 0,-0.22 c 1.17,0 2.4,1.48 2.4,2.91 0,0.91 -0.53,1.59 -1.33,1.59 -0.45,0 -0.86,-0.29 -1.16,-0.59 z"
         inkscape:connector-curvature="0" /><path
         id="path6132"
         style="font-style:normal;font-variant:normal;font-weight:normal;font-stretch:normal;letter-spacing:normal;word-spacing:normal;text-anchor:start;fill:#000000;fill-opacity:1;fill-rule:evenodd;stroke:#000000;stroke-width:0;stroke-linecap:butt;stroke-linejoin:miter;stroke-miterlimit:10.43299961;stroke-dasharray:none;stroke-dashoffset:0;stroke-opacity:1"
         word-spacing="normal"
         stroke-miterlimit="10.433"
         letter-spacing="normal"
         font-weight="normal"
         font-variant="normal"
         font-style="normal"
         font-stretch="normal"
         font-size-adjust="none"
         d="m 156.29,692.79 0,0 0,0.01 0,0 0,0 0,0.01 0,0 0,0 -0.01,0.01 0,0 0,0 0,0.01 -0.01,0 0,0.01 0,0 -0.01,0.01 0,0.01 -0.01,0 0,0.01 -0.01,0 0,0.01 0,0 -0.01,0.01 0,0 0,0 -0.01,0.01 0,0 -0.01,0.01 0,0 -0.01,0.01 0,0 -0.01,0.01 0,0.01 -0.01,0 0,0.01 -0.01,0 -0.01,0.01 0,0.01 -0.01,0 -0.01,0.01 -0.01,0.01 0,0.01 -0.01,0 c -1.25,1.26 -1.57,3.13 -1.57,4.65 0,1.73 0.38,3.46 1.61,4.7 0.13,0.12 0.13,0.14 0.13,0.17 0,0.07 -0.04,0.1 -0.1,0.1 -0.1,0 -1,-0.67 -1.59,-1.94 -0.5,-1.09 -0.62,-2.19 -0.62,-3.03 0,-0.77 0.11,-1.97 0.65,-3.1 0.6,-1.22 1.46,-1.86 1.56,-1.86 0.06,0 0.1,0.03 0.1,0.1 z"
         inkscape:connector-curvature="0" /><path
         id="path6134"
         style="font-style:normal;font-variant:normal;font-weight:normal;font-stretch:normal;letter-spacing:normal;word-spacing:normal;text-anchor:start;fill:#000000;fill-opacity:1;fill-rule:evenodd;stroke:#000000;stroke-width:0;stroke-linecap:butt;stroke-linejoin:miter;stroke-miterlimit:10.43299961;stroke-dasharray:none;stroke-dashoffset:0;stroke-opacity:1"
         word-spacing="normal"
         stroke-miterlimit="10.433"
         letter-spacing="normal"
         font-weight="normal"
         font-variant="normal"
         font-style="normal"
         font-stretch="normal"
         font-size-adjust="none"
         d="m 159.69,701.38 0,0.02 0,0.02 0,0.01 0,0.02 -0.01,0.02 0,0.02 -0.01,0.01 0,0.02 -0.01,0.01 -0.01,0.02 0,0.01 -0.01,0.02 -0.01,0.01 -0.01,0.02 -0.01,0.01 -0.01,0.01 -0.02,0.01 -0.01,0.01 -0.01,0.02 -0.02,0.01 -0.01,0 -0.02,0.01 -0.01,0.01 -0.02,0.01 -0.02,0 -0.02,0.01 -0.01,0 -0.02,0.01 -0.02,0 -0.02,0 -0.02,0.01 -0.03,0 c -0.26,0 -0.53,-0.26 -0.53,-0.53 0,-0.19 0.14,-0.36 0.38,-0.36 0.23,0 0.52,0.23 0.52,0.53 z"
         inkscape:connector-curvature="0" /><path
         id="path6136"
         style="font-style:normal;font-variant:normal;font-weight:normal;font-stretch:normal;letter-spacing:normal;word-spacing:normal;text-anchor:start;fill:#000000;fill-opacity:1;fill-rule:evenodd;stroke:#000000;stroke-width:0;stroke-linecap:butt;stroke-linejoin:miter;stroke-miterlimit:10.43299961;stroke-dasharray:none;stroke-dashoffset:0;stroke-opacity:1"
         word-spacing="normal"
         stroke-miterlimit="10.433"
         letter-spacing="normal"
         font-weight="normal"
         font-variant="normal"
         font-style="normal"
         font-stretch="normal"
         font-size-adjust="none"
         d="m 158.94,697.64 0.01,0.03 0.01,0.02 0.01,0.03 0.01,0.02 0,0.02 0.01,0.02 0.01,0.02 0.01,0.02 0,0.01 0.01,0.02 0.01,0.02 0,0.01 0.01,0.02 0,0.01 0.01,0.03 0.01,0.03 0.01,0.03 0.01,0.01 0,0.02 0.01,0.01 0.01,0.02 0,0.01 0.01,0.02 0.01,0.02 0,0.02 0.01,0.02 0.01,0.02 0.01,0.03 0.01,0.02 c 0.08,0.2 0.13,0.34 0.13,0.53 0,0.44 -0.32,0.81 -0.82,0.81 -0.94,0 -1.32,-1.44 -1.32,-1.53 0,-0.1 0.1,-0.1 0.12,-0.1 0.1,0 0.11,0.02 0.16,0.18 0.27,0.93 0.67,1.23 1.01,1.23 0.08,0 0.25,0 0.25,-0.32 0,-0.2 -0.07,-0.41 -0.11,-0.51 -0.08,-0.26 -0.53,-1.41 -0.69,-1.84 -0.1,-0.26 -0.23,-0.59 -0.23,-0.79 0,-0.47 0.34,-0.82 0.82,-0.82 0.93,0 1.3,1.44 1.3,1.53 0,0.1 -0.09,0.1 -0.12,0.1 -0.1,0 -0.1,-0.03 -0.15,-0.18 -0.17,-0.62 -0.5,-1.23 -1.01,-1.23 -0.17,0 -0.24,0.1 -0.24,0.33 0,0.24 0.06,0.38 0.29,0.99 z"
         inkscape:connector-curvature="0" /><path
         id="path6138"
         style="font-style:normal;font-variant:normal;font-weight:normal;font-stretch:normal;letter-spacing:normal;word-spacing:normal;text-anchor:start;fill:#000000;fill-opacity:1;fill-rule:evenodd;stroke:#000000;stroke-width:0;stroke-linecap:butt;stroke-linejoin:miter;stroke-miterlimit:10.43299961;stroke-dasharray:none;stroke-dashoffset:0;stroke-opacity:1"
         word-spacing="normal"
         stroke-miterlimit="10.433"
         letter-spacing="normal"
         font-weight="normal"
         font-variant="normal"
         font-style="normal"
         font-stretch="normal"
         font-size-adjust="none"
         d="m 163.18,697.65 0,0.08 0,0.07 -0.01,0.08 0,0.08 -0.01,0.17 -0.01,0.18 -0.02,0.18 -0.02,0.19 -0.02,0.19 -0.04,0.2 -0.04,0.21 -0.04,0.2 -0.06,0.21 -0.06,0.21 -0.07,0.22 -0.08,0.21 -0.04,0.11 -0.04,0.1 -0.05,0.11 -0.05,0.1 c -0.6,1.22 -1.46,1.87 -1.56,1.87 -0.06,0 -0.1,-0.04 -0.1,-0.1 0,-0.03 0,-0.05 0.19,-0.23 0.98,-0.98 1.55,-2.56 1.55,-4.64 0,-1.69 -0.37,-3.44 -1.61,-4.69 -0.13,-0.12 -0.13,-0.14 -0.13,-0.17 0,-0.06 0.04,-0.1 0.1,-0.1 0.1,0 1,0.67 1.59,1.93 0.51,1.1 0.63,2.2 0.63,3.03 z"
         inkscape:connector-curvature="0" /><path
         id="path6140"
         style="font-style:normal;font-variant:normal;font-weight:normal;font-stretch:normal;letter-spacing:normal;word-spacing:normal;text-anchor:start;fill:#000000;fill-opacity:1;fill-rule:evenodd;stroke:#000000;stroke-width:0;stroke-linecap:butt;stroke-linejoin:miter;stroke-miterlimit:10.43299961;stroke-dasharray:none;stroke-dashoffset:0;stroke-opacity:1"
         word-spacing="normal"
         stroke-miterlimit="10.433"
         letter-spacing="normal"
         font-weight="normal"
         font-variant="normal"
         font-style="normal"
         font-stretch="normal"
         font-size-adjust="none"
         d="m 168.85,698.92 0,0.03 0,0.03 0,0.02 -0.01,0.03 0,0.03 -0.01,0.02 -0.01,0.02 -0.01,0.03 -0.01,0.02 -0.01,0.02 -0.01,0.03 -0.02,0.02 -0.01,0.02 -0.02,0.02 -0.01,0.02 -0.02,0.02 -0.02,0.01 -0.02,0.02 -0.02,0.02 -0.02,0.01 -0.02,0.01 -0.02,0.02 -0.03,0.01 -0.02,0.01 -0.02,0.01 -0.03,0.01 -0.02,0 -0.03,0.01 -0.03,0 -0.02,0.01 -0.03,0 -0.03,0 c -0.28,0 -0.52,-0.24 -0.52,-0.53 0,-0.28 0.24,-0.52 0.52,-0.52 0.29,0 0.53,0.24 0.53,0.52 z"
         inkscape:connector-curvature="0" /><path
         id="path6142"
         style="font-style:normal;font-variant:normal;font-weight:normal;font-stretch:normal;letter-spacing:normal;word-spacing:normal;text-anchor:start;fill:#000000;fill-opacity:1;fill-rule:evenodd;stroke:#000000;stroke-width:0;stroke-linecap:butt;stroke-linejoin:miter;stroke-miterlimit:10.43299961;stroke-dasharray:none;stroke-dashoffset:0;stroke-opacity:1"
         word-spacing="normal"
         stroke-miterlimit="10.433"
         letter-spacing="normal"
         font-weight="normal"
         font-variant="normal"
         font-style="normal"
         font-stretch="normal"
         font-size-adjust="none"
         d="m 168.85,695.7 0,0.02 0,0.03 0,0.03 -0.01,0.02 0,0.03 -0.01,0.02 -0.01,0.03 -0.01,0.02 -0.01,0.02 -0.01,0.03 -0.01,0.02 -0.02,0.02 -0.01,0.02 -0.02,0.02 -0.01,0.02 -0.02,0.02 -0.02,0.02 -0.02,0.01 -0.02,0.02 -0.02,0.01 -0.02,0.02 -0.02,0.01 -0.03,0.01 -0.02,0.01 -0.02,0.01 -0.03,0.01 -0.02,0.01 -0.03,0 -0.03,0.01 -0.02,0 -0.03,0 -0.03,0 c -0.28,0 -0.52,-0.24 -0.52,-0.52 0,-0.29 0.24,-0.53 0.52,-0.53 0.29,0 0.53,0.24 0.53,0.53 z"
         inkscape:connector-curvature="0" /><path
         id="path6144"
         style="font-style:normal;font-variant:normal;font-weight:normal;font-stretch:normal;letter-spacing:normal;word-spacing:normal;text-anchor:start;fill:#000000;fill-opacity:1;fill-rule:evenodd;stroke:#000000;stroke-width:0;stroke-linecap:butt;stroke-linejoin:miter;stroke-miterlimit:10.43299961;stroke-dasharray:none;stroke-dashoffset:0;stroke-opacity:1"
         word-spacing="normal"
         stroke-miterlimit="10.433"
         letter-spacing="normal"
         font-weight="normal"
         font-variant="normal"
         font-style="normal"
         font-stretch="normal"
         font-size-adjust="none"
         d="m 176.56,698.42 0.03,0 0.02,0 0.03,0 0.02,0 0.01,0 0.02,0 0.01,0 0.02,0.01 0.01,0 0.01,0 0.02,0 0.01,0.01 0.01,0 0.02,0.01 0.01,0 0.01,0.01 0.01,0.01 0.01,0 0.01,0.01 0.01,0.01 0,0.01 0.01,0.01 0,0 0.01,0.01 0,0 0,0.01 0,0.01 0.01,0 0,0.01 0,0.01 0,0.01 0,0 0,0.01 0.01,0.01 0,0.01 0,0.01 0,0.01 c 0,0.2 -0.19,0.2 -0.33,0.2 l -5.98,0 c -0.13,0 -0.33,0 -0.33,-0.2 0,-0.2 0.2,-0.2 0.34,-0.2 z"
         inkscape:connector-curvature="0" /><path
         id="path6146"
         style="font-style:normal;font-variant:normal;font-weight:normal;font-stretch:normal;letter-spacing:normal;word-spacing:normal;text-anchor:start;fill:#000000;fill-opacity:1;fill-rule:evenodd;stroke:#000000;stroke-width:0;stroke-linecap:butt;stroke-linejoin:miter;stroke-miterlimit:10.43299961;stroke-dasharray:none;stroke-dashoffset:0;stroke-opacity:1"
         word-spacing="normal"
         stroke-miterlimit="10.433"
         letter-spacing="normal"
         font-weight="normal"
         font-variant="normal"
         font-style="normal"
         font-stretch="normal"
         font-size-adjust="none"
         d="m 176.57,696.49 0.01,0 0.01,0 0.03,0 0.03,0 0.01,0 0.02,0 0.01,0.01 0.02,0 0.01,0 0.01,0 0.02,0 0.01,0.01 0.01,0 0.01,0.01 0.02,0 0.01,0.01 0.01,0 0.01,0.01 0.01,0.01 0.01,0.01 0.01,0 0,0.01 0.01,0 0,0.01 0,0.01 0.01,0 0,0.01 0,0 0,0.01 0.01,0.01 0,0 0,0.01 0,0.01 0,0.01 0,0 0.01,0.01 0,0.01 0,0.01 0,0.01 c 0,0.2 -0.19,0.2 -0.34,0.2 l -5.96,0 c -0.14,0 -0.34,0 -0.34,-0.2 0,-0.2 0.2,-0.2 0.33,-0.2 z"
         inkscape:connector-curvature="0" /><path
         id="path6148"
         style="font-style:normal;font-variant:normal;font-weight:normal;font-stretch:normal;letter-spacing:normal;word-spacing:normal;text-anchor:start;fill:#000000;fill-opacity:1;fill-rule:evenodd;stroke:#000000;stroke-width:0;stroke-linecap:butt;stroke-linejoin:miter;stroke-miterlimit:10.43299961;stroke-dasharray:none;stroke-dashoffset:0;stroke-opacity:1"
         word-spacing="normal"
         stroke-miterlimit="10.433"
         letter-spacing="normal"
         font-weight="normal"
         font-variant="normal"
         font-style="normal"
         font-stretch="normal"
         font-size-adjust="none"
         d="m 185.95,700.82 0,0.07 0,0.07 -0.01,0.07 -0.01,0.06 -0.02,0.07 -0.01,0.06 -0.02,0.07 -0.02,0.06 -0.03,0.06 -0.03,0.06 -0.03,0.05 -0.03,0.06 -0.04,0.05 -0.04,0.05 -0.04,0.05 -0.04,0.05 -0.05,0.05 -0.05,0.04 -0.05,0.04 -0.05,0.04 -0.05,0.03 -0.06,0.04 -0.06,0.03 -0.06,0.03 -0.06,0.02 -0.07,0.02 -0.06,0.02 -0.07,0.02 -0.07,0.01 -0.07,0.01 -0.08,0 -0.07,0 c -0.58,0 -0.86,-0.16 -1.21,-0.41 -0.55,-0.4 -1.1,-1.36 -1.29,-2.12 l -1.58,-6.31 c -0.01,-0.04 0.04,-0.1 0.12,-0.1 0.08,0 0.11,0.02 0.12,0.05 l 0.7,2.74 c 0.19,-0.59 0.63,-0.96 1.35,-0.96 l -0.03,0.22 c -0.76,0 -1.13,0.57 -1.13,1.28 0,0.1 0,0.25 0.05,0.44 l 0.63,2.51 c 0.22,0.86 0.94,2.44 2.14,2.44 0.58,0 0.93,-0.31 0.93,-0.91 l 0,0 c 0,-0.7 -0.38,-1.41 -0.9,-1.72 -0.27,0.1 -0.47,0.12 -0.77,0.12 -0.21,0 -0.77,0.01 -0.77,-0.32 -0.01,-0.28 0.51,-0.24 0.69,-0.24 l 0.03,0.21 c -0.14,0 -0.34,-0.01 -0.44,0.04 0.02,0.1 0.38,0.08 0.49,0.08 0.21,0 0.3,0 0.43,-0.05 l 0,0 c -0.13,-0.05 -0.24,-0.07 -0.48,-0.07 l -0.03,-0.21 c 0.37,0 0.52,0.01 0.82,0.12 0.38,-0.35 0.43,-0.66 0.44,-1.12 0.02,-0.57 -0.22,-1.32 -0.5,-1.71 -0.39,-0.53 -1.06,-0.89 -1.63,-0.89 l 0.03,-0.22 c 0.73,0 1.48,0.35 1.93,0.78 0.48,0.46 0.8,1.1 0.8,1.83 0,0.72 -0.37,1.23 -0.73,1.48 0.57,0.33 1.14,0.95 1.14,1.66 z"
         inkscape:connector-curvature="0" /><path
         id="path6150"
         style="font-style:normal;font-variant:normal;font-weight:normal;font-stretch:normal;letter-spacing:normal;word-spacing:normal;text-anchor:start;fill:#000000;fill-opacity:1;fill-rule:evenodd;stroke:#000000;stroke-width:0;stroke-linecap:butt;stroke-linejoin:miter;stroke-miterlimit:10.43299961;stroke-dasharray:none;stroke-dashoffset:0;stroke-opacity:1"
         word-spacing="normal"
         stroke-miterlimit="10.433"
         letter-spacing="normal"
         font-weight="normal"
         font-variant="normal"
         font-style="normal"
         font-stretch="normal"
         font-size-adjust="none"
         d="m 187.65,695.93 1.05,1.03 c 1.56,1.37 2.16,1.9 2.16,2.9 0,1.13 -0.9,1.93 -2.12,1.93 -1.12,0 -1.86,-0.92 -1.86,-1.8 0,-0.56 0.5,-0.56 0.53,-0.56 0.17,0 0.52,0.12 0.52,0.53 0,0.26 -0.18,0.51 -0.53,0.51 -0.08,0 -0.1,0 -0.13,0 0.23,0.64 0.77,1.01 1.35,1.01 0.9,0 1.33,-0.81 1.33,-1.62 0,-0.8 -0.5,-1.58 -1.05,-2.2 l -1.91,-2.12 c -0.11,-0.11 -0.11,-0.13 -0.11,-0.37 l 3.7,0 0.28,1.73 -0.25,0 c -0.05,-0.3 -0.12,-0.74 -0.22,-0.89 -0.07,-0.08 -0.73,-0.08 -0.95,-0.08 z"
         inkscape:connector-curvature="0" /><path
         id="path6152"
         style="font-style:normal;font-variant:normal;font-weight:normal;font-stretch:normal;letter-spacing:normal;word-spacing:normal;text-anchor:start;fill:#000000;fill-opacity:1;fill-rule:evenodd;stroke:#000000;stroke-width:0;stroke-linecap:butt;stroke-linejoin:miter;stroke-miterlimit:10.43299961;stroke-dasharray:none;stroke-dashoffset:0;stroke-opacity:1"
         word-spacing="normal"
         stroke-miterlimit="10.433"
         letter-spacing="normal"
         font-weight="normal"
         font-variant="normal"
         font-style="normal"
         font-stretch="normal"
         font-size-adjust="none"
         d="m 194.19,700.77 0.06,-0.15 0.07,-0.15 0.07,-0.16 0.06,-0.15 0.07,-0.16 0.06,-0.15 0.03,-0.07 0.03,-0.08 0.03,-0.07 0.03,-0.07 0.03,-0.06 0.03,-0.07 0.02,-0.06 0.03,-0.06 0.02,-0.06 0.03,-0.05 0.02,-0.05 0.02,-0.05 0.02,-0.04 0.02,-0.04 0.01,-0.03 0.02,-0.03 0.01,-0.03 0.01,-0.02 0.01,-0.02 0.01,-0.01 c 0.14,-0.16 0.26,-0.16 0.37,-0.16 l 0.14,0 c 0.13,0 0.21,0 0.21,0.08 0,0.03 -0.03,0.05 -0.04,0.07 -0.08,0.08 -0.15,0.23 -0.18,0.3 l -1.71,4 c -0.05,0.13 -0.19,0.44 -0.93,0.44 -0.08,0 -0.18,0 -0.18,-0.1 0,-0.08 0.07,-0.09 0.1,-0.09 0.15,-0.02 0.28,-0.05 0.46,-0.44 l 0.83,-1.95 -2.06,-1.85 c -0.09,-0.07 -0.14,-0.12 -0.14,-0.24 0,-0.17 0.14,-0.24 0.24,-0.24 0.13,0 0.21,0.09 0.23,0.11 z"
         inkscape:connector-curvature="0" /><path
         id="path6154"
         style="font-style:normal;font-variant:normal;font-weight:normal;font-stretch:normal;letter-spacing:normal;word-spacing:normal;text-anchor:start;fill:#000000;fill-opacity:1;fill-rule:evenodd;stroke:#000000;stroke-width:0;stroke-linecap:butt;stroke-linejoin:miter;stroke-miterlimit:10.43299961;stroke-dasharray:none;stroke-dashoffset:0;stroke-opacity:1"
         word-spacing="normal"
         stroke-miterlimit="10.433"
         letter-spacing="normal"
         font-weight="normal"
         font-variant="normal"
         font-style="normal"
         font-stretch="normal"
         font-size-adjust="none"
         d="m 198.05,700.89 0,0.01 0,0.01 0,0.01 0,0.01 0,0.01 -0.01,0.01 0,0.01 0,0.01 -0.01,0.01 0,0.01 -0.01,0.01 0,0.01 -0.01,0.01 0,0 -0.01,0.01 -0.01,0.01 0,0.01 -0.01,0 -0.01,0.01 -0.01,0.01 -0.01,0 -0.01,0.01 -0.01,0 -0.01,0.01 -0.01,0 -0.01,0 -0.01,0.01 -0.01,0 -0.01,0 -0.01,0 -0.01,0 -0.01,0 c -0.14,0 -0.31,-0.13 -0.31,-0.3 0,-0.14 0.11,-0.21 0.22,-0.21 0.16,0 0.3,0.15 0.3,0.3 z"
         inkscape:connector-curvature="0" /><path
         id="path6156"
         style="font-style:normal;font-variant:normal;font-weight:normal;font-stretch:normal;letter-spacing:normal;word-spacing:normal;text-anchor:start;fill:#000000;fill-opacity:1;fill-rule:evenodd;stroke:#000000;stroke-width:0;stroke-linecap:butt;stroke-linejoin:miter;stroke-miterlimit:10.43299961;stroke-dasharray:none;stroke-dashoffset:0;stroke-opacity:1"
         word-spacing="normal"
         stroke-miterlimit="10.433"
         letter-spacing="normal"
         font-weight="normal"
         font-variant="normal"
         font-style="normal"
         font-stretch="normal"
         font-size-adjust="none"
         d="m 198.29,698.5 0,0.01 0,0 0,0 0,0.01 0,0 -0.01,0 0,0 0,0.01 0,0 0,0 0,0 0,0.01 0,0 0,0 0,0 -0.01,0 0,0.01 0,0 0,0 0,0 -0.01,0 0,0.01 0,0 -0.01,0 0,0 -0.01,0.01 0,0 -0.01,0 0,0 -0.01,0 0,0 0,0 -0.01,0 0,0 -0.01,0 0,0 0,0 -0.01,0 0,0 0,0 0,0 -0.01,0 c -0.08,0 -0.09,-0.02 -0.12,-0.11 -0.08,-0.27 -0.3,-0.56 -0.55,-0.56 -0.12,0 -0.15,0.08 -0.15,0.19 0,0.11 0.02,0.16 0.06,0.25 0.04,0.11 0.08,0.2 0.11,0.27 0.02,0.05 0.21,0.51 0.28,0.69 0.04,0.1 0.07,0.16 0.07,0.25 0,0.24 -0.23,0.43 -0.54,0.43 -0.52,0 -0.8,-0.63 -0.8,-0.77 0,-0.06 0.08,-0.06 0.1,-0.06 0.09,0 0.09,0.02 0.12,0.09 0.11,0.36 0.34,0.58 0.56,0.58 0.09,0 0.15,-0.06 0.15,-0.19 0,-0.02 0,-0.09 -0.03,-0.18 -0.04,-0.09 -0.26,-0.62 -0.33,-0.79 -0.04,-0.09 -0.04,-0.1 -0.11,-0.26 -0.02,-0.07 -0.05,-0.14 -0.05,-0.23 0,-0.26 0.24,-0.44 0.54,-0.44 0.52,0 0.8,0.65 0.8,0.77 z"
         inkscape:connector-curvature="0" /><path
         id="path6158"
         style="font-style:normal;font-variant:normal;font-weight:normal;font-stretch:normal;letter-spacing:normal;word-spacing:normal;text-anchor:start;fill:#000000;fill-opacity:1;fill-rule:evenodd;stroke:#000000;stroke-width:0;stroke-linecap:butt;stroke-linejoin:miter;stroke-miterlimit:10.43299961;stroke-dasharray:none;stroke-dashoffset:0;stroke-opacity:1"
         word-spacing="normal"
         stroke-miterlimit="10.433"
         letter-spacing="normal"
         font-weight="normal"
         font-variant="normal"
         font-style="normal"
         font-stretch="normal"
         font-size-adjust="none"
         d="m 208.98,701.19 0,0.03 0.01,0.03 0.01,0.03 0.01,0.03 0.01,0.03 0,0.03 0.01,0.02 0.01,0.02 0.01,0.02 0.01,0.02 0.02,0.02 0.01,0.02 0.01,0.02 0.02,0.01 0.02,0.02 0.02,0.01 0.02,0.02 0.02,0.01 0.03,0.01 0.03,0.01 0.03,0.01 0.01,0 0.02,0 0.02,0.01 0.02,0 0.02,0 0.02,0.01 0.02,0 0.02,0 0.02,0 0.02,0.01 0.03,0 0.02,0 0.03,0 0.03,0 0.02,0 0.03,0 0.03,0.01 0.03,0 0.03,0 0.04,0 0.03,0 0.03,0 c 0.23,0 0.32,0 0.32,0.2 0,0.11 -0.1,0.11 -0.27,0.11 l -1.31,0 c -0.26,0 -0.27,0 -0.39,-0.19 l -3.64,-5.67 -0.78,5.63 c -0.03,0.23 -0.05,0.23 -0.31,0.23 l -1.36,0 c -0.19,0 -0.3,0 -0.3,-0.19 0,-0.12 0.09,-0.12 0.28,-0.12 0.14,0 0.31,-0.01 0.43,-0.02 0.16,-0.02 0.22,-0.05 0.22,-0.16 0,-0.04 -0.01,-0.07 -0.04,-0.19 l -1.26,-5.06 c -0.1,-0.39 -0.27,-0.71 -1.08,-0.74 -0.05,0 -0.18,-0.01 -0.18,-0.19 0,-0.09 0.06,-0.12 0.14,-0.12 0.32,0 0.67,0.03 1,0.03 0.34,0 0.7,-0.03 1.02,-0.03 0.06,0 0.18,0 0.18,0.2 0,0.11 -0.1,0.11 -0.18,0.11 -0.56,0.01 -0.67,0.21 -0.67,0.43 0,0.07 0.01,0.12 0.04,0.23 l 1.35,5.42 0.01,0 0.86,-6.16 c 0.02,-0.12 0.03,-0.23 0.15,-0.23 0.11,0 0.17,0.11 0.22,0.18 l 4.03,6.29 0.01,0 -1.43,-5.69 c -0.1,-0.39 -0.12,-0.47 -0.91,-0.47 -0.16,0 -0.27,0 -0.27,-0.19 0,-0.12 0.11,-0.12 0.14,-0.12 0.28,0 0.96,0.03 1.24,0.03 0.41,0 0.84,-0.03 1.25,-0.03 0.06,0 0.19,0 0.19,0.2 0,0.11 -0.09,0.11 -0.28,0.11 -0.37,0 -0.65,0 -0.65,0.18 0,0.04 0,0.06 0.05,0.24 z"
         inkscape:connector-curvature="0" /></g>  </g>
</svg>
