<?xml version="1.0" encoding="UTF-8" standalone="no"?>
<!-- Created with Inkscape (http://www.inkscape.org/) -->

<svg
   xmlns:ns0="http://www.iki.fi/pav/software/textext/"
   xmlns:dc="http://purl.org/dc/elements/1.1/"
   xmlns:cc="http://creativecommons.org/ns#"
   xmlns:rdf="http://www.w3.org/1999/02/22-rdf-syntax-ns#"
   xmlns:svg="http://www.w3.org/2000/svg"
   xmlns="http://www.w3.org/2000/svg"
   xmlns:sodipodi="http://sodipodi.sourceforge.net/DTD/sodipodi-0.dtd"
   xmlns:inkscape="http://www.inkscape.org/namespaces/inkscape"
   width="101.90096mm"
   height="76.017288mm"
   viewBox="0 0 361.0664 269.35259"
   id="svg2"
   version="1.1"
   inkscape:version="0.91 r13725"
   sodipodi:docname="LevelPrime1.svg">
  <sodipodi:namedview
     id="base"
     pagecolor="#ffffff"
     bordercolor="#666666"
     borderopacity="1.0"
     inkscape:pageopacity="0.0"
     inkscape:pageshadow="2"
     inkscape:zoom="1.4"
     inkscape:cx="-21.213462"
     inkscape:cy="191.43478"
     inkscape:document-units="px"
     inkscape:current-layer="layer1"
     showgrid="false"
     inkscape:snap-object-midpoints="true"
     fit-margin-top="0"
     fit-margin-left="0"
     fit-margin-right="0"
     fit-margin-bottom="0"
     inkscape:window-width="1205"
     inkscape:window-height="697"
     inkscape:window-x="67"
     inkscape:window-y="675"
     inkscape:window-maximized="1"
     inkscape:snap-others="false"
     inkscape:snap-nodes="false" />
  <defs
     id="defs4" />
  <metadata
     id="metadata7">
    <rdf:RDF>
      <cc:Work
         rdf:about="">
        <dc:format>image/svg+xml</dc:format>
        <dc:type
           rdf:resource="http://purl.org/dc/dcmitype/StillImage" />
        <dc:title></dc:title>
      </cc:Work>
    </rdf:RDF>
  </metadata>
  <g
     transform="translate(-14.425781,-61.62788)"
     id="layer1"
     inkscape:groupmode="layer"
     inkscape:label="Ebene 1">
    <path
       sodipodi:nodetypes="cccccc"
       inkscape:connector-curvature="0"
       id="path3336"
       d="m 72.816406,62.361328 c -36.5424,33.921297 -57.332518,81.511312 -57.390625,131.371092 0.02193,52.51814 23.038564,102.39334 62.986328,136.48633 m 232.867191,0 c 40.03214,-34.05036 63.13439,-83.93166 63.21289,-136.48633 -0.0853,-49.87577 -20.91474,-97.46823 -57.4961,-131.371092"
       style="opacity:1;fill:none;fill-opacity:1;stroke:#c80000;stroke-width:2;stroke-linecap:butt;stroke-linejoin:round;stroke-miterlimit:4;stroke-dasharray:2, 2;stroke-dashoffset:0;stroke-opacity:1" />
    <circle
       r="38.244419"
       cy="193.73254"
       cx="194.95944"
       id="path4138"
       style="opacity:1;fill:none;fill-opacity:1;stroke:#0000ff;stroke-width:2;stroke-linecap:butt;stroke-linejoin:round;stroke-miterlimit:4;stroke-dasharray:2, 2;stroke-dashoffset:0;stroke-opacity:1" />
    <circle
       r="81.285629"
       cy="193.73254"
       cx="194.95944"
       id="path4140"
       style="opacity:1;fill:none;fill-opacity:1;stroke:#800080;stroke-width:2;stroke-linecap:butt;stroke-linejoin:round;stroke-miterlimit:4;stroke-dasharray:2, 2;stroke-dashoffset:0;stroke-opacity:1" />
    <g
       style="font-style:normal;font-variant:normal;font-weight:normal;font-stretch:normal;letter-spacing:normal;word-spacing:normal;text-anchor:start;fill:#0000ff;fill-opacity:1;fill-rule:evenodd;stroke:#0000ff;stroke-linecap:butt;stroke-linejoin:miter;stroke-miterlimit:10.43299961;stroke-dasharray:none;stroke-dashoffset:0;stroke-opacity:1"
       ns0:preamble="default_packages.tex"
       ns0:text="$V_0$\n\n\n"
       word-spacing="normal"
       letter-spacing="normal"
       font-size-adjust="none"
       font-stretch="normal"
       font-weight="normal"
       font-variant="normal"
       font-style="normal"
       stroke-miterlimit="10.433"
       xml:space="preserve"
       transform="matrix(2,0,0,-2,-112.75387,1590.1151)"
       id="content"><path
         id="path4369"
         style="font-style:normal;font-variant:normal;font-weight:normal;font-stretch:normal;letter-spacing:normal;word-spacing:normal;text-anchor:start;fill:#0000ff;fill-opacity:1;fill-rule:evenodd;stroke:#0000ff;stroke-width:0;stroke-linecap:butt;stroke-linejoin:miter;stroke-miterlimit:10.43299961;stroke-dasharray:none;stroke-dashoffset:0;stroke-opacity:1"
         word-spacing="normal"
         stroke-miterlimit="10.433"
         letter-spacing="normal"
         font-weight="normal"
         font-variant="normal"
         font-style="normal"
         font-stretch="normal"
         font-size-adjust="none"
         d="m 154.98,712.78 0.04,0.07 0.05,0.06 0.04,0.07 0.04,0.05 0.05,0.06 0.04,0.05 0.05,0.05 0.04,0.04 0.04,0.04 0.04,0.04 0.04,0.03 0.05,0.03 0.04,0.03 0.04,0.03 0.04,0.02 0.04,0.02 0.04,0.02 0.04,0.02 0.04,0.01 0.03,0.02 0.04,0.01 0.04,0.01 0.04,0.01 0.03,0 0.04,0.01 0.04,0 0.07,0.01 0.07,0.01 0.07,0 c 0.12,0.01 0.13,0.18 0.13,0.19 0,0.08 -0.05,0.12 -0.13,0.12 -0.26,0 -0.55,-0.03 -0.82,-0.03 -0.33,0 -0.67,0.03 -0.98,0.03 -0.06,0 -0.19,0 -0.19,-0.19 0,-0.11 0.09,-0.12 0.16,-0.12 0.26,-0.02 0.46,-0.12 0.46,-0.33 0,-0.14 -0.15,-0.36 -0.15,-0.37 l -3.07,-4.85 -0.67,5.25 c 0,0.17 0.22,0.3 0.68,0.3 0.14,0 0.25,0 0.25,0.2 0,0.09 -0.08,0.11 -0.14,0.11 -0.4,0 -0.82,-0.03 -1.23,-0.03 -0.18,0 -0.37,0.01 -0.55,0.01 -0.18,0 -0.37,0.02 -0.54,0.02 -0.07,0 -0.19,0 -0.19,-0.19 0,-0.12 0.09,-0.12 0.25,-0.12 0.56,0 0.57,-0.09 0.6,-0.34 l 0.79,-6.12 c 0.03,-0.2 0.07,-0.23 0.19,-0.23 0.16,0 0.2,0.05 0.28,0.18 z"
         inkscape:connector-curvature="0" /><path
         id="path4371"
         style="font-style:normal;font-variant:normal;font-weight:normal;font-stretch:normal;letter-spacing:normal;word-spacing:normal;text-anchor:start;fill:#0000ff;fill-opacity:1;fill-rule:evenodd;stroke:#0000ff;stroke-width:0;stroke-linecap:butt;stroke-linejoin:miter;stroke-miterlimit:10.43299961;stroke-dasharray:none;stroke-dashoffset:0;stroke-opacity:1"
         word-spacing="normal"
         stroke-miterlimit="10.433"
         letter-spacing="normal"
         font-weight="normal"
         font-variant="normal"
         font-style="normal"
         font-stretch="normal"
         font-size-adjust="none"
         d="m 158.13,707.85 0,0.14 0,0.14 -0.01,0.13 -0.01,0.12 -0.01,0.13 -0.01,0.12 -0.02,0.11 -0.02,0.11 -0.03,0.11 -0.03,0.11 -0.03,0.1 -0.04,0.1 -0.04,0.1 -0.05,0.09 -0.05,0.1 -0.03,0.04 -0.03,0.05 c -0.22,0.32 -0.65,0.6 -1.21,0.6 l 0,-0.2 c 0.38,0 0.74,-0.23 0.87,-0.63 0.11,-0.38 0.12,-0.88 0.12,-1.48 0,-0.52 0,-1.03 -0.1,-1.47 -0.14,-0.63 -0.61,-0.78 -0.89,-0.78 l 0,0 c -0.32,0 -0.75,0.18 -0.89,0.76 -0.1,0.4 -0.1,0.97 -0.1,1.49 0,0.51 0,1.04 0.11,1.42 0.15,0.55 0.59,0.69 0.88,0.69 l 0,0.2 c -1.62,0 -1.62,-1.9 -1.62,-2.4 0,-0.5 0,-2.36 1.62,-2.36 1.62,0 1.62,1.86 1.62,2.36 z"
         inkscape:connector-curvature="0" /></g>    <g
       id="g4487"
       transform="matrix(2,0,0,-2,-113.05407,1494.7238)"
       xml:space="preserve"
       stroke-miterlimit="10.433"
       font-style="normal"
       font-variant="normal"
       font-weight="normal"
       font-stretch="normal"
       font-size-adjust="none"
       letter-spacing="normal"
       word-spacing="normal"
       ns0:text="$V_2$\n\n\n\n"
       ns0:preamble="default_packages.tex"
       style="font-style:normal;font-variant:normal;font-weight:normal;font-stretch:normal;letter-spacing:normal;word-spacing:normal;text-anchor:start;fill:#ff0000;fill-opacity:1;fill-rule:evenodd;stroke:#0000ff;stroke-linecap:butt;stroke-linejoin:miter;stroke-miterlimit:10.43299961;stroke-dasharray:none;stroke-dashoffset:0;stroke-opacity:1"><path
         inkscape:connector-curvature="0"
         d="m 154.98,712.78 0.04,0.07 0.05,0.06 0.04,0.07 0.04,0.05 0.05,0.06 0.04,0.05 0.05,0.05 0.04,0.04 0.04,0.04 0.04,0.04 0.04,0.03 0.05,0.03 0.04,0.03 0.04,0.03 0.04,0.02 0.04,0.02 0.04,0.02 0.04,0.02 0.04,0.01 0.03,0.02 0.04,0.01 0.04,0.01 0.04,0.01 0.03,0 0.04,0.01 0.04,0 0.07,0.01 0.07,0.01 0.07,0 c 0.12,0.01 0.13,0.18 0.13,0.19 0,0.08 -0.05,0.12 -0.13,0.12 -0.26,0 -0.55,-0.03 -0.82,-0.03 -0.33,0 -0.67,0.03 -0.98,0.03 -0.06,0 -0.19,0 -0.19,-0.19 0,-0.11 0.09,-0.12 0.16,-0.12 0.26,-0.02 0.46,-0.12 0.46,-0.33 0,-0.14 -0.15,-0.36 -0.15,-0.37 l -3.07,-4.85 -0.67,5.25 c 0,0.17 0.22,0.3 0.68,0.3 0.14,0 0.25,0 0.25,0.2 0,0.09 -0.08,0.11 -0.14,0.11 -0.4,0 -0.82,-0.03 -1.23,-0.03 -0.18,0 -0.37,0.01 -0.55,0.01 -0.18,0 -0.37,0.02 -0.54,0.02 -0.07,0 -0.19,0 -0.19,-0.19 0,-0.12 0.09,-0.12 0.25,-0.12 0.56,0 0.57,-0.09 0.6,-0.34 l 0.79,-6.12 c 0.03,-0.2 0.07,-0.23 0.19,-0.23 0.16,0 0.2,0.05 0.28,0.18 z"
         font-size-adjust="none"
         font-stretch="normal"
         font-style="normal"
         font-variant="normal"
         font-weight="normal"
         letter-spacing="normal"
         stroke-miterlimit="10.433"
         word-spacing="normal"
         style="font-style:normal;font-variant:normal;font-weight:normal;font-stretch:normal;letter-spacing:normal;word-spacing:normal;text-anchor:start;fill:#ff0000;fill-opacity:1;fill-rule:evenodd;stroke:#0000ff;stroke-width:0;stroke-linecap:butt;stroke-linejoin:miter;stroke-miterlimit:10.43299961;stroke-dasharray:none;stroke-dashoffset:0;stroke-opacity:1"
         id="path4489" /><path
         inkscape:connector-curvature="0"
         d="m 158.05,706.9 -0.23,0 c -0.02,-0.16 -0.09,-0.57 -0.19,-0.64 -0.05,-0.04 -0.59,-0.04 -0.69,-0.04 l -1.28,0 c 0.73,0.65 0.98,0.84 1.39,1.17 0.52,0.41 1,0.84 1,1.5 0,0.84 -0.74,1.36 -1.63,1.36 -0.87,0 -1.46,-0.61 -1.46,-1.25 0,-0.35 0.3,-0.39 0.38,-0.39 0.16,0 0.37,0.12 0.37,0.37 0,0.13 -0.05,0.37 -0.42,0.37 0.22,0.49 0.7,0.65 1.02,0.65 0.7,0 1.07,-0.54 1.07,-1.11 0,-0.6 -0.44,-1.08 -0.66,-1.33 l -1.69,-1.66 c -0.07,-0.06 -0.07,-0.07 -0.07,-0.27 l 2.89,0 z"
         font-size-adjust="none"
         font-stretch="normal"
         font-style="normal"
         font-variant="normal"
         font-weight="normal"
         letter-spacing="normal"
         stroke-miterlimit="10.433"
         word-spacing="normal"
         style="font-style:normal;font-variant:normal;font-weight:normal;font-stretch:normal;letter-spacing:normal;word-spacing:normal;text-anchor:start;fill:#ff0000;fill-opacity:1;fill-rule:evenodd;stroke:#0000ff;stroke-width:0;stroke-linecap:butt;stroke-linejoin:miter;stroke-miterlimit:10.43299961;stroke-dasharray:none;stroke-dashoffset:0;stroke-opacity:1"
         id="path4491" /></g>    <g
       style="font-style:normal;font-variant:normal;font-weight:normal;font-stretch:normal;letter-spacing:normal;word-spacing:normal;text-anchor:start;fill:#800080;fill-opacity:1;fill-rule:evenodd;stroke:#0000ff;stroke-linecap:butt;stroke-linejoin:miter;stroke-miterlimit:10.43299961;stroke-dasharray:none;stroke-dashoffset:0;stroke-opacity:1"
       ns0:preamble="default_packages.tex"
       ns0:text="$V_1$\n\n\n\n"
       word-spacing="normal"
       letter-spacing="normal"
       font-size-adjust="none"
       font-stretch="normal"
       font-weight="normal"
       font-variant="normal"
       font-style="normal"
       stroke-miterlimit="10.433"
       xml:space="preserve"
       transform="matrix(2,0,0,-2,-112.329,1546.2416)"
       id="g4582"><path
         id="path4584"
         style="font-style:normal;font-variant:normal;font-weight:normal;font-stretch:normal;letter-spacing:normal;word-spacing:normal;text-anchor:start;fill:#800080;fill-opacity:1;fill-rule:evenodd;stroke:#0000ff;stroke-width:0;stroke-linecap:butt;stroke-linejoin:miter;stroke-miterlimit:10.43299961;stroke-dasharray:none;stroke-dashoffset:0;stroke-opacity:1"
         word-spacing="normal"
         stroke-miterlimit="10.433"
         letter-spacing="normal"
         font-weight="normal"
         font-variant="normal"
         font-style="normal"
         font-stretch="normal"
         font-size-adjust="none"
         d="m 154.98,712.78 0.04,0.07 0.05,0.06 0.04,0.07 0.04,0.05 0.05,0.06 0.04,0.05 0.05,0.05 0.04,0.04 0.04,0.04 0.04,0.04 0.04,0.03 0.05,0.03 0.04,0.03 0.04,0.03 0.04,0.02 0.04,0.02 0.04,0.02 0.04,0.02 0.04,0.01 0.03,0.02 0.04,0.01 0.04,0.01 0.04,0.01 0.03,0 0.04,0.01 0.04,0 0.07,0.01 0.07,0.01 0.07,0 c 0.12,0.01 0.13,0.18 0.13,0.19 0,0.08 -0.05,0.12 -0.13,0.12 -0.26,0 -0.55,-0.03 -0.82,-0.03 -0.33,0 -0.67,0.03 -0.98,0.03 -0.06,0 -0.19,0 -0.19,-0.19 0,-0.11 0.09,-0.12 0.16,-0.12 0.26,-0.02 0.46,-0.12 0.46,-0.33 0,-0.14 -0.15,-0.36 -0.15,-0.37 l -3.07,-4.85 -0.67,5.25 c 0,0.17 0.22,0.3 0.68,0.3 0.14,0 0.25,0 0.25,0.2 0,0.09 -0.08,0.11 -0.14,0.11 -0.4,0 -0.82,-0.03 -1.23,-0.03 -0.18,0 -0.37,0.01 -0.55,0.01 -0.18,0 -0.37,0.02 -0.54,0.02 -0.07,0 -0.19,0 -0.19,-0.19 0,-0.12 0.09,-0.12 0.25,-0.12 0.56,0 0.57,-0.09 0.6,-0.34 l 0.79,-6.12 c 0.03,-0.2 0.07,-0.23 0.19,-0.23 0.16,0 0.2,0.05 0.28,0.18 z"
         inkscape:connector-curvature="0" /><path
         id="path4586"
         style="font-style:normal;font-variant:normal;font-weight:normal;font-stretch:normal;letter-spacing:normal;word-spacing:normal;text-anchor:start;fill:#800080;fill-opacity:1;fill-rule:evenodd;stroke:#0000ff;stroke-width:0;stroke-linecap:butt;stroke-linejoin:miter;stroke-miterlimit:10.43299961;stroke-dasharray:none;stroke-dashoffset:0;stroke-opacity:1"
         word-spacing="normal"
         stroke-miterlimit="10.433"
         letter-spacing="normal"
         font-weight="normal"
         font-variant="normal"
         font-style="normal"
         font-stretch="normal"
         font-size-adjust="none"
         d="m 156.87,710.05 0,0.01 0,0.01 0,0.01 0,0.01 0,0 0,0.01 0,0.01 0,0.01 -0.01,0 0,0.01 0,0.01 0,0 0,0.01 0,0 0,0.01 0,0 0,0.01 0,0 0,0.01 -0.01,0.01 0,0.01 0,0 -0.01,0.01 0,0.01 -0.01,0 0,0.01 -0.01,0 0,0 -0.01,0.01 -0.01,0 -0.01,0 -0.01,0 0,0 -0.01,0 0,0 -0.01,0.01 -0.01,0 0,0 -0.01,0 0,0 -0.01,0 -0.01,0 -0.01,0 0,0 -0.01,0 -0.01,0 -0.01,0 -0.01,0 0,0 -0.01,0 c -0.45,-0.44 -1.09,-0.45 -1.37,-0.45 l 0,-0.25 c 0.16,0 0.62,0 1.01,0.2 l 0,-3.55 c 0,-0.23 0,-0.32 -0.7,-0.32 l -0.26,0 0,-0.25 c 0.12,0.01 0.98,0.03 1.24,0.03 0.22,0 1.1,-0.02 1.25,-0.03 l 0,0.25 -0.26,0 c -0.7,0 -0.7,0.09 -0.7,0.32 z"
         inkscape:connector-curvature="0" /></g>  </g>
</svg>
