<?xml version="1.0" encoding="UTF-8" standalone="no"?>
<!-- Created with Inkscape (http://www.inkscape.org/) -->

<svg
   xmlns:ns0="http://www.iki.fi/pav/software/textext/"
   xmlns:dc="http://purl.org/dc/elements/1.1/"
   xmlns:cc="http://creativecommons.org/ns#"
   xmlns:rdf="http://www.w3.org/1999/02/22-rdf-syntax-ns#"
   xmlns:svg="http://www.w3.org/2000/svg"
   xmlns="http://www.w3.org/2000/svg"
   xmlns:sodipodi="http://sodipodi.sourceforge.net/DTD/sodipodi-0.dtd"
   xmlns:inkscape="http://www.inkscape.org/namespaces/inkscape"
   width="129.82689mm"
   height="46.290344mm"
   viewBox="0 0 460.01654 164.0209"
   id="svg5452"
   version="1.1"
   inkscape:version="0.91 r13725"
   sodipodi:docname="RoundingAssignment1.svg">
  <sodipodi:namedview
     id="base"
     pagecolor="#ffffff"
     bordercolor="#666666"
     borderopacity="1.0"
     inkscape:pageopacity="0.0"
     inkscape:pageshadow="2"
     inkscape:zoom="1.4"
     inkscape:cx="238.28598"
     inkscape:cy="43.743036"
     inkscape:document-units="px"
     inkscape:current-layer="layer1"
     showgrid="false"
     inkscape:snap-object-midpoints="true"
     inkscape:window-width="1205"
     inkscape:window-height="697"
     inkscape:window-x="67"
     inkscape:window-y="675"
     inkscape:window-maximized="1"
     fit-margin-top="0"
     fit-margin-left="0"
     fit-margin-right="0"
     fit-margin-bottom="0"
     inkscape:object-paths="false"
     inkscape:snap-intersection-paths="true"
     inkscape:object-nodes="true"
     inkscape:snap-smooth-nodes="false"
     inkscape:snap-nodes="false"
     inkscape:snap-others="false"
     showguides="false" />
  <defs
     id="defs5454">
    <marker
       inkscape:isstock="true"
       style="overflow:visible"
       id="marker5746"
       refX="0"
       refY="0"
       orient="auto"
       inkscape:stockid="TriangleOutM">
      <path
         inkscape:connector-curvature="0"
         transform="scale(0.4,0.4)"
         style="fill:#800080;fill-opacity:1;fill-rule:evenodd;stroke:#800080;stroke-width:1pt;stroke-opacity:1"
         d="m 5.77,0 -8.65,5 0,-10 8.65,5 z"
         id="path5748" />
    </marker>
    <marker
       inkscape:stockid="Arrow2Send"
       orient="auto"
       refY="0"
       refX="0"
       id="Arrow2Send"
       style="overflow:visible"
       inkscape:isstock="true">
      <path
         id="path13331"
         style="fill:#000000;fill-opacity:1;fill-rule:evenodd;stroke:#000000;stroke-width:0.625;stroke-linejoin:round;stroke-opacity:1"
         d="M 8.7185878,4.0337352 -2.2072895,0.01601326 8.7185884,-4.0017078 c -1.7454984,2.3720609 -1.7354408,5.6174519 -6e-7,8.035443 z"
         transform="matrix(-0.3,0,0,-0.3,0.69,0)"
         inkscape:connector-curvature="0" />
    </marker>
    <marker
       inkscape:stockid="Arrow2Mend"
       orient="auto"
       refY="0"
       refX="0"
       id="Arrow2Mend"
       style="overflow:visible"
       inkscape:isstock="true">
      <path
         id="path13325"
         style="fill:#000000;fill-opacity:1;fill-rule:evenodd;stroke:#000000;stroke-width:0.625;stroke-linejoin:round;stroke-opacity:1"
         d="M 8.7185878,4.0337352 -2.2072895,0.01601326 8.7185884,-4.0017078 c -1.7454984,2.3720609 -1.7354408,5.6174519 -6e-7,8.035443 z"
         transform="scale(-0.6,-0.6)"
         inkscape:connector-curvature="0" />
    </marker>
    <marker
       inkscape:stockid="Arrow1Mend"
       orient="auto"
       refY="0"
       refX="0"
       id="Arrow1Mend"
       style="overflow:visible"
       inkscape:isstock="true">
      <path
         id="path13307"
         d="M 0,0 5,-5 -12.5,0 5,5 0,0 Z"
         style="fill:#000000;fill-opacity:1;fill-rule:evenodd;stroke:#000000;stroke-width:1pt;stroke-opacity:1"
         transform="matrix(-0.4,0,0,-0.4,-4,0)"
         inkscape:connector-curvature="0" />
    </marker>
  </defs>
  <metadata
     id="metadata5457">
    <rdf:RDF>
      <cc:Work
         rdf:about="">
        <dc:format>image/svg+xml</dc:format>
        <dc:type
           rdf:resource="http://purl.org/dc/dcmitype/StillImage" />
        <dc:title />
      </cc:Work>
    </rdf:RDF>
  </metadata>
  <g
     inkscape:label="Ebene 1"
     inkscape:groupmode="layer"
     id="layer1"
     transform="translate(66.979542,-239.43581)">
    <path
       inkscape:connector-curvature="0"
       d="m 157.12106,309.32499 1.0038,0 c 2.34217,0 3.50753,-0.74558 4.34977,-1.30803 1.2689,-0.84737 1.95699,-2.31402 2.17792,-3.50687 0.91388,-4.53666 0.39782,-3.29212 1.05438,-4.67142 1.14839,-2.41252 2.79045,-4.47523 4.79803,-5.78325 -2.00758,-1.30802 -4.01517,-3.05204 -5.01896,-5.66809 -1.0038,-2.61604 -1.673,-15.72813 -1.673,-22.26824 l 0,-20.081 c 0,-1.30802 -0.3346,-2.98614 -1.33837,-4.29416 -0.6692,-0.872 -2.0076,-1.30802 -4.34977,-1.30802 l -1.0038,0"
       id="llv-5"
       style="fill:none;stroke:#000000;stroke-width:2;stroke-linecap:round;stroke-linejoin:round;stroke-miterlimit:4;stroke-dasharray:none;stroke-opacity:1"
       sodipodi:nodetypes="csscscsssssc" />
    <g
       style="font-style:normal;font-variant:normal;font-weight:normal;font-stretch:normal;letter-spacing:normal;word-spacing:normal;text-anchor:start;fill:#000000;fill-opacity:1;fill-rule:evenodd;stroke:#000000;stroke-linecap:butt;stroke-linejoin:miter;stroke-miterlimit:10.43299961;stroke-dasharray:none;stroke-dashoffset:0;stroke-opacity:1"
       ns0:preamble="default_packages.tex"
       ns0:text="$p_{Ti} := \\frac{d(T)}{2^{\\lambda_i}}$\n\n"
       word-spacing="normal"
       letter-spacing="normal"
       font-size-adjust="none"
       font-stretch="normal"
       font-weight="normal"
       font-variant="normal"
       font-style="normal"
       stroke-miterlimit="10.433"
       xml:space="preserve"
       transform="matrix(2.5,0,0,-2.5,-188.48424,2066.0456)"
       id="content"><path
         id="path6442"
         style="font-style:normal;font-variant:normal;font-weight:normal;font-stretch:normal;letter-spacing:normal;word-spacing:normal;text-anchor:start;fill:#000000;fill-opacity:1;fill-rule:evenodd;stroke:#000000;stroke-width:0;stroke-linecap:butt;stroke-linejoin:miter;stroke-miterlimit:10.43299961;stroke-dasharray:none;stroke-dashoffset:0;stroke-opacity:1"
         word-spacing="normal"
         stroke-miterlimit="10.433"
         letter-spacing="normal"
         font-weight="normal"
         font-variant="normal"
         font-style="normal"
         font-stretch="normal"
         font-size-adjust="none"
         d="m 149.16,705.81 -0.01,-0.03 0,-0.03 -0.01,-0.02 -0.01,-0.03 0,-0.03 -0.01,-0.02 -0.01,-0.02 -0.01,-0.02 0,-0.02 -0.01,-0.02 -0.01,-0.02 -0.01,-0.01 -0.01,-0.02 -0.01,-0.01 -0.01,-0.01 -0.01,-0.02 -0.02,-0.01 -0.01,-0.01 -0.02,-0.01 -0.02,0 -0.01,-0.01 -0.02,-0.01 -0.03,0 -0.02,-0.01 -0.03,0 -0.01,0 -0.01,0 -0.02,-0.01 -0.01,0 -0.02,0 -0.01,0 -0.02,0 -0.02,0 -0.01,0 -0.02,0 -0.02,0 -0.02,0 -0.02,0 -0.02,0 c -0.12,0 -0.23,0 -0.23,-0.19 0,-0.08 0.05,-0.12 0.13,-0.12 0.27,0 0.56,0.03 0.84,0.03 0.33,0 0.67,-0.03 0.99,-0.03 0.05,0 0.18,0 0.18,0.2 0,0.11 -0.1,0.11 -0.24,0.11 -0.5,0 -0.5,0.07 -0.5,0.16 0,0.11 0.42,1.73 0.49,1.98 0.13,-0.29 0.41,-0.63 0.92,-0.63 l -0.02,0.22 c -0.65,0 -0.78,0.82 -0.78,0.88 0,0.02 0,0.04 0.03,0.16 l 0.49,1.95 c 0.07,0.26 0.34,0.54 0.51,0.69 0.35,0.31 0.64,0.38 0.81,0.38 0.4,0 0.64,-0.35 0.64,-0.94 0,-0.58 -0.33,-1.72 -0.51,-2.1 -0.34,-0.7 -0.82,-1.02 -1.19,-1.02 l 0.02,-0.22 c 1.15,0 2.4,1.45 2.4,2.91 0,0.93 -0.57,1.59 -1.33,1.59 -0.5,0 -0.98,-0.36 -1.3,-0.75 -0.1,0.54 -0.53,0.75 -0.9,0.75 -0.46,0 -0.65,-0.39 -0.74,-0.57 -0.18,-0.34 -0.31,-0.93 -0.31,-0.96 0,-0.1 0.1,-0.1 0.12,-0.1 0.1,0 0.11,0.01 0.17,0.23 0.17,0.7 0.37,1.18 0.73,1.18 0.17,0 0.31,-0.08 0.31,-0.46 0,-0.23 -0.03,-0.34 -0.07,-0.51 z"
         inkscape:connector-curvature="0" /><path
         id="path6444"
         style="font-style:normal;font-variant:normal;font-weight:normal;font-stretch:normal;letter-spacing:normal;word-spacing:normal;text-anchor:start;fill:#000000;fill-opacity:1;fill-rule:evenodd;stroke:#000000;stroke-width:0;stroke-linecap:butt;stroke-linejoin:miter;stroke-miterlimit:10.43299961;stroke-dasharray:none;stroke-dashoffset:0;stroke-opacity:1"
         word-spacing="normal"
         stroke-miterlimit="10.433"
         letter-spacing="normal"
         font-weight="normal"
         font-variant="normal"
         font-style="normal"
         font-stretch="normal"
         font-size-adjust="none"
         d="m 157.12,709.74 0.01,0.01 0,0.01 0,0.01 0,0 0,0.01 0.01,0.01 0,0.01 0,0.01 0,0.01 0.01,0.01 0,0.02 0.01,0.01 0,0.01 0,0.01 0.01,0.01 0,0.01 0.01,0.01 0,0 0.01,0.01 0,0.01 0.01,0 0,0.01 0.01,0 0.01,0.01 0,0 0.01,0 0.01,0.01 0.01,0 0.01,0 0.01,0 0.01,0.01 0.01,0 0.01,0 0.01,0 0.02,0 0.01,0 c 0.04,0.01 0.28,0.01 0.42,0.01 0.43,0 0.61,0 0.78,-0.05 0.32,-0.1 0.33,-0.3 0.33,-0.55 0,-0.11 0,-0.21 -0.05,-0.57 l -0.01,-0.07 c 0,-0.07 0.05,-0.11 0.12,-0.11 0.1,0 0.12,0.07 0.13,0.18 l 0.19,1.32 c 0,0.1 -0.09,0.1 -0.21,0.1 l -4.3,0 c -0.18,0 -0.19,0 -0.24,-0.14 l -0.44,-1.24 c -0.01,-0.02 -0.03,-0.09 -0.03,-0.12 0,-0.03 0.01,-0.1 0.12,-0.1 0.09,0 0.1,0.04 0.14,0.17 0.41,1.11 0.64,1.18 1.7,1.18 l 0.29,0 c 0.21,0 0.22,-0.01 0.22,-0.07 0,0 0,-0.04 -0.03,-0.14 l -0.92,-3.66 c -0.06,-0.26 -0.08,-0.33 -0.82,-0.33 -0.25,0 -0.31,0 -0.31,-0.15 0,-0.02 0.01,-0.1 0.12,-0.1 0.19,0 0.4,0.02 0.6,0.02 0.19,0 0.4,0.01 0.6,0.01 0.19,0 0.43,0 0.63,-0.01 0.19,-0.01 0.4,-0.02 0.59,-0.02 0.05,0 0.16,0 0.16,0.15 0,0.1 -0.07,0.1 -0.29,0.1 -0.13,0 -0.27,0.01 -0.41,0.01 -0.23,0.03 -0.25,0.05 -0.25,0.14 0,0.05 0,0.06 0.03,0.16 z"
         inkscape:connector-curvature="0" /><path
         id="path6446"
         style="font-style:normal;font-variant:normal;font-weight:normal;font-stretch:normal;letter-spacing:normal;word-spacing:normal;text-anchor:start;fill:#000000;fill-opacity:1;fill-rule:evenodd;stroke:#000000;stroke-width:0;stroke-linecap:butt;stroke-linejoin:miter;stroke-miterlimit:10.43299961;stroke-dasharray:none;stroke-dashoffset:0;stroke-opacity:1"
         word-spacing="normal"
         stroke-miterlimit="10.433"
         letter-spacing="normal"
         font-weight="normal"
         font-variant="normal"
         font-style="normal"
         font-stretch="normal"
         font-size-adjust="none"
         d="m 161.77,709.88 0,0.01 0,0.01 0,0.01 0,0.01 -0.01,0.01 0,0.01 0,0.01 -0.01,0.02 0,0.01 -0.01,0.01 0,0.01 -0.01,0.01 0,0.01 -0.01,0.01 -0.01,0.01 -0.01,0.01 -0.01,0.01 0,0.01 -0.01,0.01 -0.02,0.01 -0.01,0 -0.01,0.01 -0.01,0.01 -0.01,0.01 -0.02,0 -0.01,0.01 -0.02,0 -0.01,0 -0.02,0.01 -0.01,0 -0.02,0 -0.02,0 c -0.19,0 -0.39,-0.18 -0.39,-0.38 0,-0.12 0.09,-0.27 0.28,-0.27 0.2,0 0.39,0.2 0.39,0.39 z"
         inkscape:connector-curvature="0" /><path
         id="path6448"
         style="font-style:normal;font-variant:normal;font-weight:normal;font-stretch:normal;letter-spacing:normal;word-spacing:normal;text-anchor:start;fill:#000000;fill-opacity:1;fill-rule:evenodd;stroke:#000000;stroke-width:0;stroke-linecap:butt;stroke-linejoin:miter;stroke-miterlimit:10.43299961;stroke-dasharray:none;stroke-dashoffset:0;stroke-opacity:1"
         word-spacing="normal"
         stroke-miterlimit="10.433"
         letter-spacing="normal"
         font-weight="normal"
         font-variant="normal"
         font-style="normal"
         font-stretch="normal"
         font-size-adjust="none"
         d="m 160.34,706.34 0,-0.01 -0.01,-0.02 -0.01,-0.03 0,-0.02 -0.01,-0.02 0,-0.01 -0.01,-0.02 0,-0.02 -0.01,-0.02 0,-0.02 0,-0.01 0,-0.01 -0.01,-0.01 0,-0.01 0,-0.01 0,-0.02 0,-0.01 0,-0.01 0,-0.01 c 0,-0.32 0.28,-0.59 0.67,-0.59 0.69,0 1,0.96 1,1.07 0,0.09 -0.09,0.09 -0.11,0.09 -0.1,0 -0.1,-0.05 -0.13,-0.12 -0.16,-0.56 -0.47,-0.84 -0.74,-0.84 -0.14,0 -0.18,0.09 -0.18,0.24 0,0.16 0.05,0.29 0.11,0.44 0.07,0.19 0.15,0.38 0.23,0.56 0.06,0.17 0.31,0.8 0.34,0.88 0.02,0.07 0.04,0.16 0.04,0.23 0,0.32 -0.28,0.59 -0.66,0.59 -0.7,0 -1.02,-0.95 -1.02,-1.07 0,-0.09 0.1,-0.09 0.12,-0.09 0.1,0 0.11,0.04 0.13,0.11 0.18,0.6 0.49,0.85 0.75,0.85 0.11,0 0.17,-0.05 0.17,-0.24 0,-0.16 -0.04,-0.26 -0.22,-0.7 z"
         inkscape:connector-curvature="0" /><path
         id="path6450"
         style="font-style:normal;font-variant:normal;font-weight:normal;font-stretch:normal;letter-spacing:normal;word-spacing:normal;text-anchor:start;fill:#000000;fill-opacity:1;fill-rule:evenodd;stroke:#000000;stroke-width:0;stroke-linecap:butt;stroke-linejoin:miter;stroke-miterlimit:10.43299961;stroke-dasharray:none;stroke-dashoffset:0;stroke-opacity:1"
         word-spacing="normal"
         stroke-miterlimit="10.433"
         letter-spacing="normal"
         font-weight="normal"
         font-variant="normal"
         font-style="normal"
         font-stretch="normal"
         font-size-adjust="none"
         d="m 167.5,710.78 0,0.03 0,0.02 0,0.03 -0.01,0.03 0,0.02 -0.01,0.03 -0.01,0.02 -0.01,0.02 -0.01,0.03 -0.01,0.02 -0.02,0.02 -0.01,0.02 -0.01,0.02 -0.02,0.02 -0.02,0.02 -0.01,0.02 -0.02,0.02 -0.02,0.02 -0.02,0.01 -0.02,0.02 -0.02,0.01 -0.03,0.01 -0.02,0.01 -0.02,0.02 -0.03,0 -0.02,0.01 -0.03,0.01 -0.02,0.01 -0.03,0 -0.02,0 -0.03,0.01 -0.03,0 c -0.29,0 -0.52,-0.24 -0.52,-0.53 0,-0.29 0.23,-0.52 0.52,-0.52 0.29,0 0.53,0.23 0.53,0.52 z"
         inkscape:connector-curvature="0" /><path
         id="path6452"
         style="font-style:normal;font-variant:normal;font-weight:normal;font-stretch:normal;letter-spacing:normal;word-spacing:normal;text-anchor:start;fill:#000000;fill-opacity:1;fill-rule:evenodd;stroke:#000000;stroke-width:0;stroke-linecap:butt;stroke-linejoin:miter;stroke-miterlimit:10.43299961;stroke-dasharray:none;stroke-dashoffset:0;stroke-opacity:1"
         word-spacing="normal"
         stroke-miterlimit="10.433"
         letter-spacing="normal"
         font-weight="normal"
         font-variant="normal"
         font-style="normal"
         font-stretch="normal"
         font-size-adjust="none"
         d="m 167.5,707.55 0,0.03 0,0.03 0,0.02 -0.01,0.03 0,0.02 -0.01,0.03 -0.01,0.02 -0.01,0.03 -0.01,0.02 -0.01,0.02 -0.02,0.02 -0.01,0.03 -0.01,0.02 -0.02,0.02 -0.02,0.02 -0.01,0.01 -0.02,0.02 -0.02,0.02 -0.02,0.01 -0.02,0.02 -0.02,0.01 -0.03,0.01 -0.02,0.02 -0.02,0.01 -0.03,0.01 -0.02,0.01 -0.03,0 -0.02,0.01 -0.03,0 -0.02,0.01 -0.03,0 -0.03,0 c -0.29,0 -0.52,-0.24 -0.52,-0.53 0,-0.29 0.23,-0.52 0.52,-0.52 0.29,0 0.53,0.23 0.53,0.52 z"
         inkscape:connector-curvature="0" /><path
         id="path6454"
         style="font-style:normal;font-variant:normal;font-weight:normal;font-stretch:normal;letter-spacing:normal;word-spacing:normal;text-anchor:start;fill:#000000;fill-opacity:1;fill-rule:evenodd;stroke:#000000;stroke-width:0;stroke-linecap:butt;stroke-linejoin:miter;stroke-miterlimit:10.43299961;stroke-dasharray:none;stroke-dashoffset:0;stroke-opacity:1"
         word-spacing="normal"
         stroke-miterlimit="10.433"
         letter-spacing="normal"
         font-weight="normal"
         font-variant="normal"
         font-style="normal"
         font-stretch="normal"
         font-size-adjust="none"
         d="m 175.21,710.27 0.02,0 0.03,0 0.03,0.01 0.02,0 0.01,0 0.02,0 0.01,0 0.01,0 0.02,0 0.01,0.01 0.02,0 0.01,0 0.01,0.01 0.01,0 0.02,0.01 0.01,0.01 0.01,0 0.01,0.01 0.01,0.01 0.01,0.01 0,0.01 0.01,0 0,0.01 0,0 0.01,0.01 0,0.01 0,0 0,0.01 0.01,0.01 0,0 0,0.01 0,0.01 0,0.01 0,0.01 0,0 0,0.01 0,0.01 c 0,0.2 -0.19,0.2 -0.33,0.2 l -5.97,0 c -0.14,0 -0.33,0 -0.33,-0.2 0,-0.2 0.19,-0.2 0.34,-0.2 z"
         inkscape:connector-curvature="0" /><path
         id="path6456"
         style="font-style:normal;font-variant:normal;font-weight:normal;font-stretch:normal;letter-spacing:normal;word-spacing:normal;text-anchor:start;fill:#000000;fill-opacity:1;fill-rule:evenodd;stroke:#000000;stroke-width:0;stroke-linecap:butt;stroke-linejoin:miter;stroke-miterlimit:10.43299961;stroke-dasharray:none;stroke-dashoffset:0;stroke-opacity:1"
         word-spacing="normal"
         stroke-miterlimit="10.433"
         letter-spacing="normal"
         font-weight="normal"
         font-variant="normal"
         font-style="normal"
         font-stretch="normal"
         font-size-adjust="none"
         d="m 175.21,708.35 0.02,0 0.01,0 0.03,0 0.03,0 0.01,0 0.02,0 0.01,0 0.01,0 0.02,0.01 0.01,0 0.01,0 0.02,0 0.01,0.01 0.01,0 0.01,0.01 0.02,0 0.01,0.01 0.01,0.01 0.01,0 0.01,0.01 0.01,0.01 0,0.01 0,0 0.01,0.01 0,0 0,0.01 0.01,0 0,0.01 0,0.01 0,0 0.01,0.01 0,0.01 0,0.01 0,0 0,0.01 0,0.01 0,0.01 0,0.01 0,0.01 c 0,0.19 -0.19,0.19 -0.33,0.19 l -5.96,0 c -0.15,0 -0.34,0 -0.34,-0.19 0,-0.2 0.19,-0.2 0.33,-0.2 z"
         inkscape:connector-curvature="0" /><path
         id="path6458"
         style="font-style:normal;font-variant:normal;font-weight:normal;font-stretch:normal;letter-spacing:normal;word-spacing:normal;text-anchor:start;fill:#000000;fill-opacity:1;fill-rule:evenodd;stroke:#000000;stroke-width:0;stroke-linecap:butt;stroke-linejoin:miter;stroke-miterlimit:10.43299961;stroke-dasharray:none;stroke-dashoffset:0;stroke-opacity:1"
         word-spacing="normal"
         stroke-miterlimit="10.433"
         letter-spacing="normal"
         font-weight="normal"
         font-variant="normal"
         font-style="normal"
         font-stretch="normal"
         font-size-adjust="none"
         d="m 184.06,716.47 0,0 0,0.01 0,0 0,0 0,0 0,0 0,0 0,0 0,0.01 0,0 0,0 0.01,0.01 0,0 0,0 0,0.01 0,0 0,0.01 0,0 0,0.01 0.01,0.01 0,0.01 0,0 0,0.01 0,0 0,0 0,0.01 0,0 0,0 0,0.01 0,0 0,0 0.01,0 0,0 0,0 0,0 0,0 0,0 0,0.01 0,0 0,0 c 0,0.03 -0.03,0.09 -0.12,0.09 -0.13,0 -0.72,-0.05 -0.89,-0.07 -0.06,0 -0.15,-0.01 -0.15,-0.16 0,-0.09 0.09,-0.09 0.18,-0.09 0.33,0 0.33,-0.05 0.33,-0.11 0,-0.05 -0.01,-0.09 -0.03,-0.15 l -0.39,-1.59 c -0.15,0.23 -0.39,0.41 -0.72,0.41 l 0,-0.19 c 0.49,0 0.62,-0.53 0.62,-0.61 0,-0.02 -0.02,-0.07 -0.02,-0.09 l -0.33,-1.3 c -0.05,-0.2 -0.2,-0.34 -0.36,-0.47 -0.06,-0.05 -0.34,-0.28 -0.64,-0.28 -0.26,0 -0.51,0.18 -0.51,0.68 0,0.37 0.2,1.13 0.36,1.41 0.32,0.56 0.68,0.66 0.88,0.66 l 0,0.19 c -0.9,0 -1.81,-0.98 -1.81,-1.98 0,-0.67 0.46,-1.15 1.06,-1.15 0.38,0 0.71,0.21 0.99,0.48 0.13,-0.41 0.54,-0.48 0.72,-0.48 0.25,0 0.43,0.15 0.55,0.37 0.16,0.27 0.25,0.66 0.25,0.69 0,0.09 -0.09,0.09 -0.11,0.09 -0.1,0 -0.11,-0.03 -0.16,-0.21 -0.08,-0.34 -0.21,-0.75 -0.51,-0.75 -0.18,0 -0.23,0.16 -0.23,0.34 0,0.14 0.02,0.2 0.04,0.29 z"
         inkscape:connector-curvature="0" /><path
         id="path6460"
         style="font-style:normal;font-variant:normal;font-weight:normal;font-stretch:normal;letter-spacing:normal;word-spacing:normal;text-anchor:start;fill:#000000;fill-opacity:1;fill-rule:evenodd;stroke:#000000;stroke-width:0;stroke-linecap:butt;stroke-linejoin:miter;stroke-miterlimit:10.43299961;stroke-dasharray:none;stroke-dashoffset:0;stroke-opacity:1"
         word-spacing="normal"
         stroke-miterlimit="10.433"
         letter-spacing="normal"
         font-weight="normal"
         font-variant="normal"
         font-style="normal"
         font-stretch="normal"
         font-size-adjust="none"
         d="m 186.7,717.07 -0.13,-0.09 -0.11,-0.09 -0.11,-0.09 -0.11,-0.1 -0.1,-0.1 -0.09,-0.1 -0.09,-0.11 -0.09,-0.1 -0.08,-0.11 -0.07,-0.11 -0.07,-0.11 -0.07,-0.11 -0.06,-0.12 -0.06,-0.11 -0.05,-0.12 -0.05,-0.11 -0.05,-0.12 -0.04,-0.12 -0.04,-0.11 -0.03,-0.12 -0.03,-0.11 -0.03,-0.12 -0.03,-0.11 -0.02,-0.12 -0.02,-0.11 -0.01,-0.11 -0.01,-0.11 -0.02,-0.11 0,-0.11 -0.01,-0.1 0,-0.11 0,-0.1 c 0,-0.98 0.29,-2.5 1.68,-3.47 0.05,0 0.14,0 0.14,0.08 0,0.04 -0.03,0.06 -0.08,0.1 -0.92,0.84 -1.27,2.02 -1.27,3.28 0,1.88 0.72,2.8 1.3,3.32 0.02,0.02 0.05,0.04 0.05,0.08 0,0.08 -0.09,0.08 -0.14,0.08 z"
         inkscape:connector-curvature="0" /><path
         id="path6462"
         style="font-style:normal;font-variant:normal;font-weight:normal;font-stretch:normal;letter-spacing:normal;word-spacing:normal;text-anchor:start;fill:#000000;fill-opacity:1;fill-rule:evenodd;stroke:#000000;stroke-width:0;stroke-linecap:butt;stroke-linejoin:miter;stroke-miterlimit:10.43299961;stroke-dasharray:none;stroke-dashoffset:0;stroke-opacity:1"
         word-spacing="normal"
         stroke-miterlimit="10.433"
         letter-spacing="normal"
         font-weight="normal"
         font-variant="normal"
         font-style="normal"
         font-stretch="normal"
         font-size-adjust="none"
         d="m 190.73,716.06 0,0.01 0,0.01 0,0.01 0,0.01 0.01,0.01 0,0.01 0,0 0,0.01 0.01,0.02 0,0.01 0,0.01 0.01,0.01 0,0.02 0.01,0.01 0,0 0,0.01 0.01,0.01 0,0.01 0.01,0.01 0,0 0.01,0.01 0.01,0 0,0.01 0.01,0 0.01,0.01 0,0 0.01,0 0.01,0.01 0.01,0 0.01,0 0.01,0 0.01,0 0.01,0.01 0.01,0 0.02,0 0.01,0 c 0.04,0.01 0.28,0.01 0.42,0.01 0.43,0 0.61,0 0.78,-0.06 0.32,-0.1 0.33,-0.3 0.33,-0.55 0,-0.11 0,-0.2 -0.05,-0.56 l -0.01,-0.08 c 0,-0.07 0.05,-0.1 0.12,-0.1 0.1,0 0.12,0.06 0.13,0.17 l 0.19,1.33 c 0,0.1 -0.08,0.1 -0.21,0.1 l -4.3,0 c -0.17,0 -0.19,0 -0.24,-0.15 l -0.44,-1.23 c 0,-0.03 -0.03,-0.09 -0.03,-0.12 0,-0.03 0.01,-0.1 0.12,-0.1 0.09,0 0.1,0.03 0.14,0.17 0.41,1.11 0.64,1.18 1.7,1.18 l 0.3,0 c 0.21,0 0.21,-0.01 0.21,-0.07 0,-0.01 0,-0.04 -0.03,-0.15 l -0.92,-3.66 c -0.06,-0.25 -0.08,-0.32 -0.82,-0.32 -0.25,0 -0.31,0 -0.31,-0.16 0,-0.02 0.01,-0.09 0.12,-0.09 0.19,0 0.4,0.02 0.6,0.02 0.19,0 0.41,0.01 0.6,0.01 0.2,0 0.43,0 0.63,-0.01 0.19,-0.01 0.4,-0.02 0.59,-0.02 0.05,0 0.16,0 0.16,0.15 0,0.1 -0.07,0.1 -0.29,0.1 -0.13,0 -0.27,0 -0.4,0.01 -0.24,0.02 -0.26,0.05 -0.26,0.13 0,0.05 0,0.07 0.03,0.16 z"
         inkscape:connector-curvature="0" /><path
         id="path6464"
         style="font-style:normal;font-variant:normal;font-weight:normal;font-stretch:normal;letter-spacing:normal;word-spacing:normal;text-anchor:start;fill:#000000;fill-opacity:1;fill-rule:evenodd;stroke:#000000;stroke-width:0;stroke-linecap:butt;stroke-linejoin:miter;stroke-miterlimit:10.43299961;stroke-dasharray:none;stroke-dashoffset:0;stroke-opacity:1"
         word-spacing="normal"
         stroke-miterlimit="10.433"
         letter-spacing="normal"
         font-weight="normal"
         font-variant="normal"
         font-style="normal"
         font-stretch="normal"
         font-size-adjust="none"
         d="m 193.73,717.07 0,0 -0.01,0 0,0 -0.01,0 0,0 -0.01,0 0,0 -0.01,0 0,0 -0.01,0 0,0 -0.01,0 -0.01,0 0,0 -0.01,-0.01 0,0 -0.01,0 0,0 -0.01,-0.01 0,0 0,0 -0.01,0 0,-0.01 0,0 -0.01,0 0,-0.01 0,0 0,0 0,0 0,-0.01 0,0 0,0 -0.01,0 0,-0.01 0,0 0,0 0,-0.01 0,0 0,0 0,-0.01 0,0 c 0,-0.04 0.02,-0.06 0.06,-0.1 0.61,-0.55 1.28,-1.49 1.28,-3.29 0,-1.45 -0.46,-2.55 -1.21,-3.23 -0.12,-0.12 -0.13,-0.13 -0.13,-0.16 0,-0.04 0.02,-0.08 0.09,-0.08 0.09,0 0.75,0.45 1.21,1.32 0.31,0.58 0.51,1.33 0.51,2.14 0,0.99 -0.29,2.51 -1.68,3.48 z"
         inkscape:connector-curvature="0" /><line
         id="line6466"
         style="font-style:normal;font-variant:normal;font-weight:normal;font-stretch:normal;letter-spacing:normal;word-spacing:normal;text-anchor:start;fill:#000000;fill-opacity:1;fill-rule:evenodd;stroke:#000000;stroke-width:0.398;stroke-linecap:butt;stroke-linejoin:miter;stroke-miterlimit:10.43299961;stroke-dasharray:none;stroke-dashoffset:0;stroke-opacity:1"
         word-spacing="normal"
         stroke-miterlimit="10.433"
         letter-spacing="normal"
         font-weight="normal"
         font-variant="normal"
         font-style="normal"
         font-stretch="normal"
         font-size-adjust="none"
         y2="709.52002"
         x2="196.22"
         y1="709.52002"
         x1="180.07001" /><path
         id="path6468"
         style="font-style:normal;font-variant:normal;font-weight:normal;font-stretch:normal;letter-spacing:normal;word-spacing:normal;text-anchor:start;fill:#000000;fill-opacity:1;fill-rule:evenodd;stroke:#000000;stroke-width:0;stroke-linecap:butt;stroke-linejoin:miter;stroke-miterlimit:10.43299961;stroke-dasharray:none;stroke-dashoffset:0;stroke-opacity:1"
         word-spacing="normal"
         stroke-miterlimit="10.433"
         letter-spacing="normal"
         font-weight="normal"
         font-variant="normal"
         font-style="normal"
         font-stretch="normal"
         font-size-adjust="none"
         d="m 185.77,704.37 -0.24,0 c -0.02,-0.15 -0.09,-0.56 -0.18,-0.63 -0.06,-0.04 -0.6,-0.04 -0.7,-0.04 l -1.28,0 c 0.73,0.64 0.98,0.84 1.4,1.16 0.52,0.41 1,0.85 1,1.5 0,0.85 -0.74,1.36 -1.64,1.36 -0.87,0 -1.45,-0.6 -1.45,-1.24 0,-0.36 0.3,-0.39 0.37,-0.39 0.16,0 0.37,0.12 0.37,0.37 0,0.12 -0.05,0.36 -0.41,0.36 0.21,0.5 0.69,0.65 1.02,0.65 0.7,0 1.06,-0.54 1.06,-1.11 0,-0.6 -0.44,-1.08 -0.66,-1.33 l -1.68,-1.65 c -0.07,-0.07 -0.07,-0.08 -0.07,-0.28 l 2.88,0 z"
         inkscape:connector-curvature="0" /><path
         id="path6470"
         style="font-style:normal;font-variant:normal;font-weight:normal;font-stretch:normal;letter-spacing:normal;word-spacing:normal;text-anchor:start;fill:#000000;fill-opacity:1;fill-rule:evenodd;stroke:#000000;stroke-width:0;stroke-linecap:butt;stroke-linejoin:miter;stroke-miterlimit:10.43299961;stroke-dasharray:none;stroke-dashoffset:0;stroke-opacity:1"
         word-spacing="normal"
         stroke-miterlimit="10.433"
         letter-spacing="normal"
         font-weight="normal"
         font-variant="normal"
         font-style="normal"
         font-stretch="normal"
         font-size-adjust="none"
         d="m 188.62,706.87 0.02,-0.04 0.02,-0.05 0.03,-0.04 0.02,-0.05 0.03,-0.05 0.02,-0.05 0.06,-0.11 0.05,-0.1 0.06,-0.11 0.05,-0.1 0.02,-0.06 0.03,-0.05 0.02,-0.05 0.03,-0.04 0.02,-0.05 0.03,-0.05 0.02,-0.04 0.02,-0.04 0.02,-0.04 0.02,-0.04 0.01,-0.03 0.02,-0.03 0.01,-0.03 0.01,-0.02 0.02,-0.02 0,-0.02 0.01,0 0,-0.01 0,0 0.01,-0.01 c 0.04,-0.06 0.11,-0.09 0.11,-0.09 0.09,-0.05 0.1,-0.05 0.2,-0.05 l 0.13,0 c 0.08,0 0.14,0 0.14,0.07 0,0.03 -0.01,0.05 -0.03,0.07 -0.06,0.05 -0.1,0.13 -0.14,0.21 l -1.46,2.86 c -0.09,0.18 -0.24,0.3 -0.72,0.3 -0.1,0 -0.18,0 -0.18,-0.09 0,-0.07 0.05,-0.08 0.12,-0.08 0.21,-0.03 0.31,-0.22 0.38,-0.36 l 0.25,-0.48 c 0.09,-0.18 0.33,-0.64 0.42,-0.83 l -1.59,-1.29 c -0.04,-0.03 -0.12,-0.11 -0.12,-0.2 0,-0.1 0.09,-0.19 0.19,-0.19 0.09,0 0.14,0.06 0.19,0.1 z"
         inkscape:connector-curvature="0" /><path
         id="path6472"
         style="font-style:normal;font-variant:normal;font-weight:normal;font-stretch:normal;letter-spacing:normal;word-spacing:normal;text-anchor:start;fill:#000000;fill-opacity:1;fill-rule:evenodd;stroke:#000000;stroke-width:0;stroke-linecap:butt;stroke-linejoin:miter;stroke-miterlimit:10.43299961;stroke-dasharray:none;stroke-dashoffset:0;stroke-opacity:1"
         word-spacing="normal"
         stroke-miterlimit="10.433"
         letter-spacing="normal"
         font-weight="normal"
         font-variant="normal"
         font-style="normal"
         font-stretch="normal"
         font-size-adjust="none"
         d="m 192.36,706.95 0,0.02 0,0.01 0,0.01 0,0.01 -0.01,0.01 0,0.01 0,0.01 -0.01,0.01 0,0.01 0,0.01 -0.01,0.01 -0.01,0 0,0.01 -0.01,0.01 0,0.01 -0.01,0.01 -0.01,0 -0.01,0.01 0,0.01 -0.01,0 -0.01,0.01 -0.01,0 -0.01,0.01 -0.01,0 -0.01,0.01 -0.01,0 -0.01,0 -0.01,0 -0.01,0.01 -0.02,0 -0.01,0 -0.01,0 c -0.14,0 -0.3,-0.14 -0.3,-0.3 0,-0.14 0.11,-0.21 0.21,-0.21 0.17,0 0.31,0.14 0.31,0.29 z"
         inkscape:connector-curvature="0" /><path
         id="path6474"
         style="font-style:normal;font-variant:normal;font-weight:normal;font-stretch:normal;letter-spacing:normal;word-spacing:normal;text-anchor:start;fill:#000000;fill-opacity:1;fill-rule:evenodd;stroke:#000000;stroke-width:0;stroke-linecap:butt;stroke-linejoin:miter;stroke-miterlimit:10.43299961;stroke-dasharray:none;stroke-dashoffset:0;stroke-opacity:1"
         word-spacing="normal"
         stroke-miterlimit="10.433"
         letter-spacing="normal"
         font-weight="normal"
         font-variant="normal"
         font-style="normal"
         font-stretch="normal"
         font-size-adjust="none"
         d="m 192.59,704.57 0,0 0,0.01 0,0 0,0 0,0.01 0,0 0,0 0,0 0,0.01 0,0 0,0 0,0 -0.01,0 0,0.01 0,0 0,0 0,0 0,0 -0.01,0.01 0,0 0,0 0,0 -0.01,0.01 0,0 -0.01,0 0,0 -0.01,0 0,0 0,0.01 -0.01,0 0,0 -0.01,0 0,0 -0.01,0 0,0 0,0 -0.01,0 0,0 0,0 -0.01,0 0,0 0,0 c -0.09,0 -0.09,-0.02 -0.12,-0.11 -0.08,-0.28 -0.31,-0.56 -0.56,-0.56 -0.11,0 -0.15,0.08 -0.15,0.19 0,0.1 0.03,0.16 0.07,0.25 0.04,0.1 0.08,0.2 0.1,0.27 0.02,0.04 0.22,0.51 0.29,0.68 0.04,0.1 0.07,0.17 0.07,0.25 0,0.24 -0.23,0.44 -0.54,0.44 -0.53,0 -0.8,-0.64 -0.8,-0.77 0,-0.07 0.07,-0.07 0.1,-0.07 0.08,0 0.09,0.03 0.11,0.1 0.11,0.35 0.35,0.57 0.57,0.57 0.09,0 0.14,-0.05 0.14,-0.19 0,-0.02 0,-0.08 -0.03,-0.18 -0.03,-0.09 -0.25,-0.62 -0.32,-0.79 -0.04,-0.08 -0.04,-0.09 -0.11,-0.26 -0.03,-0.07 -0.06,-0.14 -0.06,-0.22 0,-0.26 0.25,-0.44 0.54,-0.44 0.53,0 0.8,0.65 0.8,0.77 z"
         inkscape:connector-curvature="0" /></g>  </g>
</svg>
