<?xml version="1.0" standalone="no" ?>
<!DOCTYPE svg PUBLIC "-//W3C//DTD SVG 1.1//EN" "http://www.w3.org/Graphics/SVG/1.1/DTD/svg11.dtd">
<svg width="110px" height="110px" xmlns="http://www.w3.org/2000/svg" version="1.1" >
	<polygon points="0,110 110,110 110,0 0,0 " fill="none" stroke-width="0.44" stroke="rgb(0,0,0)" />
	<circle cx="10" cy="100" r="7.81893" fill="rgb(173,216,230)" stroke-width="0.22" stroke="rgb(0,0,0)" />
	<circle cx="90" cy="100" r="6.05652" fill="rgb(173,216,230)" stroke-width="0.22" stroke="rgb(0,0,0)" />
	<circle cx="50" cy="50" r="2.70856" fill="rgb(173,216,230)" stroke-width="0.22" stroke="rgb(0,0,0)" />
	<circle cx="90" cy="50" r="2.70856" fill="rgb(173,216,230)" stroke-width="0.22" stroke="rgb(0,0,0)" />
	<circle cx="100" cy="50" r="2.21153" fill="rgb(173,216,230)" stroke-width="0.22" stroke="rgb(0,0,0)" />
	<circle cx="94" cy="40" r="2.70856" fill="rgb(173,216,230)" stroke-width="0.22" stroke="rgb(0,0,0)" />
	<circle cx="50" cy="20" r="2.70856" fill="rgb(173,216,230)" stroke-width="0.22" stroke="rgb(0,0,0)" />
	<circle cx="40" cy="10" r="2.70856" fill="rgb(173,216,230)" stroke-width="0.22" stroke="rgb(0,0,0)" />
	<circle cx="60" cy="10" r="2.21153" fill="rgb(173,216,230)" stroke-width="0.22" stroke="rgb(0,0,0)" />
	<circle cx="20" cy="50" r="1.56379" fill="rgb(173,216,230)" stroke-width="0.22" stroke="rgb(0,0,0)" />
	<circle cx="10" cy="50" r="1.56379" fill="rgb(173,216,230)" stroke-width="0.22" stroke="rgb(0,0,0)" />
	<circle cx="16" cy="40" r="2.21153" fill="rgb(173,216,230)" stroke-width="0.22" stroke="rgb(0,0,0)" />
	<rect x="56.8246" y="96.8246" width="6.35085" height="6.35085" fill="rgb(242,242,242)" stroke-width="0.22" stroke="rgb(0,0,0)" />
	<text x="56.8246" y="96.8246" fill="rgb(0,0,0)" font-size="2.2" font-family="Verdana" >10</text>
	<rect x="21.8246" y="81.8246" width="6.35085" height="6.35085" fill="rgb(0,0,0)" stroke-width="0.22" stroke="rgb(0,0,0)" />
	<text x="21.8246" y="81.8246" fill="rgb(0,0,0)" font-size="2.2" font-family="Verdana" >200</text>
	<rect x="46.8246" y="56.8246" width="6.35085" height="6.35085" fill="rgb(229,229,229)" stroke-width="0.22" stroke="rgb(0,0,0)" />
	<text x="46.8246" y="56.8246" fill="rgb(0,0,0)" font-size="2.2" font-family="Verdana" >20</text>
	<line x1="85" y1="5" x2="105" y2="5" stroke-width="0.88" stroke="rgb(0,0,0)" />
	<line x1="85" y1="3" x2="85" y2="7" stroke-width="0.44" stroke="rgb(0,0,0)" />
	<line x1="105" y1="3" x2="105" y2="7" stroke-width="0.44" stroke="rgb(0,0,0)" />
	<text x="95" y="4" fill="rgb(0,0,0)" font-size="2.2" font-family="Verdana" >20</text>
	<circle cx="70.1072" cy="5" r="4.94638" fill="none" stroke-width="0.44" stroke="rgb(0,0,0)" />
	<text x="65.6555" y="5" fill="rgb(0,0,0)" font-size="2.2" font-family="Verdana" >u=10</text>
</svg>
